<svg width="530" height="149" viewBox="0 0 530 149" fill="none" xmlns="http://www.w3.org/2000/svg">
<rect width="530" height="149" fill="#F5F5F5"/>
<path d="M0 2C0 0.895435 0.895431 0 2 0H528C529.105 0 530 0.895431 530 2V147C530 148.105 529.105 149 528 149H1.99999C0.895423 149 0 148.105 0 147V2Z" fill="white"/>
<path d="M2 1H528V-1H2V1ZM529 2V147H531V2H529ZM528 148H1.99999V150H528V148ZM1 147V2H-1V147H1ZM1.99999 148C1.44771 148 1 147.552 1 147H-1C-1 148.657 0.343133 150 1.99999 150V148ZM529 147C529 147.552 528.552 148 528 148V150C529.657 150 531 148.657 531 147H529ZM528 1C528.552 1 529 1.44771 529 2H531C531 0.343151 529.657 -1 528 -1V1ZM2 -1C0.343143 -1 -1 0.343153 -1 2H1C1 1.44772 1.44772 1 2 1V-1Z" fill="black" fill-opacity="0.1"/>
<rect width="530" height="40" fill="#A52A2A"/>
<rect y="40" width="125" height="109" fill="#A52A2A"/>
<path d="M26.358 18.2898H24.233C24.1723 17.9413 24.0606 17.6326 23.8977 17.3636C23.7348 17.0909 23.5322 16.8598 23.2898 16.6705C23.0473 16.4811 22.7708 16.339 22.4602 16.2443C22.1534 16.1458 21.822 16.0966 21.4659 16.0966C20.8333 16.0966 20.2727 16.2557 19.7841 16.5739C19.2955 16.8883 18.9129 17.3504 18.6364 17.9602C18.3598 18.5663 18.2216 19.3068 18.2216 20.1818C18.2216 21.072 18.3598 21.822 18.6364 22.4318C18.9167 23.0379 19.2992 23.4962 19.7841 23.8068C20.2727 24.1136 20.8314 24.267 21.4602 24.267C21.8087 24.267 22.1345 24.2216 22.4375 24.1307C22.7443 24.036 23.0189 23.8977 23.2614 23.7159C23.5076 23.5341 23.714 23.3106 23.8807 23.0455C24.0511 22.7803 24.1686 22.4773 24.233 22.1364L26.358 22.1477C26.2784 22.7008 26.1061 23.2197 25.8409 23.7045C25.5795 24.1894 25.2367 24.6174 24.8125 24.9886C24.3883 25.3561 23.892 25.6439 23.3239 25.8523C22.7557 26.0568 22.125 26.1591 21.4318 26.1591C20.4091 26.1591 19.4962 25.9223 18.6932 25.4489C17.8902 24.9754 17.2576 24.2917 16.7955 23.3977C16.3333 22.5038 16.1023 21.4318 16.1023 20.1818C16.1023 18.928 16.3352 17.8561 16.8011 16.9659C17.267 16.072 17.9015 15.3883 18.7045 14.9148C19.5076 14.4413 20.4167 14.2045 21.4318 14.2045C22.0795 14.2045 22.6818 14.2955 23.2386 14.4773C23.7955 14.6591 24.2917 14.9261 24.7273 15.2784C25.1629 15.6269 25.5208 16.0549 25.8011 16.5625C26.0852 17.0663 26.2708 17.642 26.358 18.2898ZM32.0043 26.1705C31.152 26.1705 30.4134 25.983 29.7884 25.608C29.1634 25.233 28.6785 24.7083 28.3338 24.0341C27.9929 23.3598 27.8224 22.572 27.8224 21.6705C27.8224 20.7689 27.9929 19.9792 28.3338 19.3011C28.6785 18.6231 29.1634 18.0966 29.7884 17.7216C30.4134 17.3466 31.152 17.1591 32.0043 17.1591C32.8565 17.1591 33.5952 17.3466 34.2202 17.7216C34.8452 18.0966 35.3281 18.6231 35.669 19.3011C36.0137 19.9792 36.1861 20.7689 36.1861 21.6705C36.1861 22.572 36.0137 23.3598 35.669 24.0341C35.3281 24.7083 34.8452 25.233 34.2202 25.608C33.5952 25.983 32.8565 26.1705 32.0043 26.1705ZM32.0156 24.5227C32.4777 24.5227 32.8641 24.3958 33.1747 24.142C33.4853 23.8845 33.7164 23.5398 33.8679 23.108C34.0232 22.6761 34.1009 22.1951 34.1009 21.6648C34.1009 21.1307 34.0232 20.6477 33.8679 20.2159C33.7164 19.7803 33.4853 19.4337 33.1747 19.1761C32.8641 18.9186 32.4777 18.7898 32.0156 18.7898C31.5421 18.7898 31.1482 18.9186 30.8338 19.1761C30.5232 19.4337 30.2902 19.7803 30.1349 20.2159C29.9834 20.6477 29.9077 21.1307 29.9077 21.6648C29.9077 22.1951 29.9834 22.6761 30.1349 23.108C30.2902 23.5398 30.5232 23.8845 30.8338 24.142C31.1482 24.3958 31.5421 24.5227 32.0156 24.5227ZM39.9886 20.8864V26H37.9318V17.2727H39.8977V18.7557H40C40.2008 18.267 40.5208 17.8788 40.9602 17.5909C41.4034 17.303 41.9508 17.1591 42.6023 17.1591C43.2045 17.1591 43.7292 17.2879 44.1761 17.5455C44.6269 17.803 44.9754 18.1761 45.2216 18.6648C45.4716 19.1534 45.5947 19.7462 45.5909 20.4432V26H43.5341V20.7614C43.5341 20.178 43.3826 19.7216 43.0795 19.392C42.7803 19.0625 42.3655 18.8977 41.8352 18.8977C41.4754 18.8977 41.1553 18.9773 40.875 19.1364C40.5985 19.2917 40.3807 19.517 40.2216 19.8125C40.0663 20.108 39.9886 20.4659 39.9886 20.8864ZM52.0398 17.2727V18.8636H47.0227V17.2727H52.0398ZM48.2614 15.1818H50.3182V23.375C50.3182 23.6515 50.3598 23.8636 50.4432 24.0114C50.5303 24.1553 50.6439 24.2538 50.7841 24.3068C50.9242 24.3598 51.0795 24.3864 51.25 24.3864C51.3788 24.3864 51.4962 24.3769 51.6023 24.358C51.7121 24.339 51.7955 24.322 51.8523 24.3068L52.1989 25.9148C52.089 25.9527 51.9318 25.9943 51.7273 26.0398C51.5265 26.0852 51.2803 26.1117 50.9886 26.1193C50.4735 26.1345 50.0095 26.0568 49.5966 25.8864C49.1837 25.7121 48.8561 25.4432 48.6136 25.0795C48.375 24.7159 48.2576 24.2614 48.2614 23.7159V15.1818ZM56.2713 26.1761C55.7183 26.1761 55.2202 26.0777 54.777 25.8807C54.3376 25.6799 53.9891 25.3845 53.7315 24.9943C53.4777 24.6042 53.3509 24.1231 53.3509 23.5511C53.3509 23.0587 53.4418 22.6515 53.6236 22.3295C53.8054 22.0076 54.0535 21.75 54.3679 21.5568C54.6823 21.3636 55.0365 21.2178 55.4304 21.1193C55.8281 21.017 56.2391 20.9432 56.6634 20.8977C57.1747 20.8447 57.5895 20.7973 57.9077 20.7557C58.2259 20.7102 58.4569 20.642 58.6009 20.5511C58.7486 20.4564 58.8224 20.3106 58.8224 20.1136V20.0795C58.8224 19.6515 58.6955 19.3201 58.4418 19.0852C58.188 18.8504 57.8224 18.733 57.3452 18.733C56.8414 18.733 56.4418 18.8428 56.1463 19.0625C55.8546 19.2822 55.6577 19.5417 55.5554 19.8409L53.6349 19.5682C53.7865 19.0379 54.0365 18.5947 54.3849 18.2386C54.7334 17.8788 55.1596 17.6098 55.6634 17.4318C56.1671 17.25 56.724 17.1591 57.3338 17.1591C57.7543 17.1591 58.1728 17.2083 58.5895 17.3068C59.0062 17.4053 59.3868 17.5682 59.7315 17.7955C60.0762 18.0189 60.3527 18.3239 60.5611 18.7102C60.7732 19.0966 60.8793 19.5795 60.8793 20.1591V26H58.902V24.8011H58.8338C58.7088 25.0436 58.5327 25.2708 58.3054 25.483C58.0819 25.6913 57.7997 25.8598 57.4588 25.9886C57.1217 26.1136 56.7259 26.1761 56.2713 26.1761ZM56.8054 24.6648C57.2183 24.6648 57.5762 24.5833 57.8793 24.4205C58.1823 24.2538 58.4152 24.0341 58.5781 23.7614C58.7448 23.4886 58.8281 23.1913 58.8281 22.8693V21.8409C58.7637 21.8939 58.6539 21.9432 58.4986 21.9886C58.3471 22.0341 58.1766 22.0739 57.9872 22.108C57.7978 22.142 57.6103 22.1723 57.4247 22.1989C57.2391 22.2254 57.0781 22.2481 56.9418 22.267C56.6349 22.3087 56.3603 22.3769 56.1179 22.4716C55.8755 22.5663 55.6842 22.6989 55.544 22.8693C55.4039 23.036 55.3338 23.2519 55.3338 23.517C55.3338 23.8958 55.4721 24.1818 55.7486 24.375C56.0251 24.5682 56.3774 24.6648 56.8054 24.6648ZM66.7543 26.1705C65.883 26.1705 65.1349 25.9792 64.5099 25.5966C63.8887 25.214 63.4096 24.6856 63.0724 24.0114C62.7391 23.3333 62.5724 22.553 62.5724 21.6705C62.5724 20.7841 62.7429 20.0019 63.0838 19.3239C63.4247 18.642 63.9058 18.1117 64.527 17.733C65.152 17.3504 65.8906 17.1591 66.7429 17.1591C67.4512 17.1591 68.0781 17.2898 68.6236 17.5511C69.1728 17.8087 69.6103 18.1742 69.9361 18.6477C70.2618 19.1174 70.4474 19.6667 70.4929 20.2955H68.527C68.4474 19.875 68.258 19.5246 67.9588 19.2443C67.6634 18.9602 67.2675 18.8182 66.7713 18.8182C66.3509 18.8182 65.9815 18.9318 65.6634 19.1591C65.3452 19.3826 65.0971 19.7045 64.919 20.125C64.7448 20.5455 64.6577 21.0492 64.6577 21.6364C64.6577 22.2311 64.7448 22.7424 64.919 23.1705C65.0933 23.5947 65.3376 23.9223 65.652 24.1534C65.9702 24.3807 66.3433 24.4943 66.7713 24.4943C67.0743 24.4943 67.3452 24.4375 67.5838 24.3239C67.8262 24.2064 68.0289 24.0379 68.1918 23.8182C68.3546 23.5985 68.4664 23.3314 68.527 23.017H70.4929C70.4437 23.6345 70.2618 24.1818 69.9474 24.6591C69.633 25.1326 69.205 25.5038 68.6634 25.7727C68.1217 26.0379 67.4853 26.1705 66.7543 26.1705ZM76.5398 17.2727V18.8636H71.5227V17.2727H76.5398ZM72.7614 15.1818H74.8182V23.375C74.8182 23.6515 74.8598 23.8636 74.9432 24.0114C75.0303 24.1553 75.1439 24.2538 75.2841 24.3068C75.4242 24.3598 75.5795 24.3864 75.75 24.3864C75.8788 24.3864 75.9962 24.3769 76.1023 24.358C76.2121 24.339 76.2955 24.322 76.3523 24.3068L76.6989 25.9148C76.589 25.9527 76.4318 25.9943 76.2273 26.0398C76.0265 26.0852 75.7803 26.1117 75.4886 26.1193C74.9735 26.1345 74.5095 26.0568 74.0966 25.8864C73.6837 25.7121 73.3561 25.4432 73.1136 25.0795C72.875 24.7159 72.7576 24.2614 72.7614 23.7159V15.1818ZM84.4276 14.3636V26H82.3196V14.3636H84.4276ZM88.6761 20.8864V26H86.6193V17.2727H88.5852V18.7557H88.6875C88.8883 18.267 89.2083 17.8788 89.6477 17.5909C90.0909 17.303 90.6383 17.1591 91.2898 17.1591C91.892 17.1591 92.4167 17.2879 92.8636 17.5455C93.3144 17.803 93.6629 18.1761 93.9091 18.6648C94.1591 19.1534 94.2822 19.7462 94.2784 20.4432V26H92.2216V20.7614C92.2216 20.178 92.0701 19.7216 91.767 19.392C91.4678 19.0625 91.053 18.8977 90.5227 18.8977C90.1629 18.8977 89.8428 18.9773 89.5625 19.1364C89.286 19.2917 89.0682 19.517 88.9091 19.8125C88.7538 20.108 88.6761 20.4659 88.6761 20.8864ZM100.79 17.2727V18.8636H95.6307V17.2727H100.79ZM96.9205 26V16.4489C96.9205 15.8617 97.0417 15.3731 97.2841 14.983C97.5303 14.5928 97.8598 14.3011 98.2727 14.108C98.6856 13.9148 99.1439 13.8182 99.6477 13.8182C100.004 13.8182 100.32 13.8466 100.597 13.9034C100.873 13.9602 101.078 14.0114 101.21 14.0568L100.801 15.6477C100.714 15.6212 100.604 15.5947 100.472 15.5682C100.339 15.5379 100.191 15.5227 100.028 15.5227C99.6458 15.5227 99.375 15.6155 99.2159 15.8011C99.0606 15.983 98.983 16.2443 98.983 16.5852V26H96.9205ZM105.879 26.1705C105.027 26.1705 104.288 25.983 103.663 25.608C103.038 25.233 102.554 24.7083 102.209 24.0341C101.868 23.3598 101.697 22.572 101.697 21.6705C101.697 20.7689 101.868 19.9792 102.209 19.3011C102.554 18.6231 103.038 18.0966 103.663 17.7216C104.288 17.3466 105.027 17.1591 105.879 17.1591C106.732 17.1591 107.47 17.3466 108.095 17.7216C108.72 18.0966 109.203 18.6231 109.544 19.3011C109.889 19.9792 110.061 20.7689 110.061 21.6705C110.061 22.572 109.889 23.3598 109.544 24.0341C109.203 24.7083 108.72 25.233 108.095 25.608C107.47 25.983 106.732 26.1705 105.879 26.1705ZM105.891 24.5227C106.353 24.5227 106.739 24.3958 107.05 24.142C107.36 23.8845 107.591 23.5398 107.743 23.108C107.898 22.6761 107.976 22.1951 107.976 21.6648C107.976 21.1307 107.898 20.6477 107.743 20.2159C107.591 19.7803 107.36 19.4337 107.05 19.1761C106.739 18.9186 106.353 18.7898 105.891 18.7898C105.417 18.7898 105.023 18.9186 104.709 19.1761C104.398 19.4337 104.165 19.7803 104.01 20.2159C103.858 20.6477 103.783 21.1307 103.783 21.6648C103.783 22.1951 103.858 22.6761 104.01 23.108C104.165 23.5398 104.398 23.8845 104.709 24.142C105.023 24.3958 105.417 24.5227 105.891 24.5227Z" fill="white"/>
<path d="M101.889 59.625C103.417 59.625 104.667 61.0312 104.667 62.75V125.25C104.667 126.969 103.417 128.375 101.889 128.375H24.1111C22.5833 128.375 21.3333 126.969 21.3333 125.25V62.75C21.3333 61.0312 22.5833 59.625 24.1111 59.625H101.889ZM24.1111 50.25C17.9826 50.25 13 55.8555 13 62.75V125.25C13 132.145 17.9826 137.75 24.1111 137.75H101.889C108.017 137.75 113 132.145 113 125.25V62.75C113 55.8555 108.017 50.25 101.889 50.25H24.1111ZM49.1111 94C52.058 94 54.8841 92.683 56.9679 90.3388C59.0516 87.9946 60.2222 84.8152 60.2222 81.5C60.2222 78.1848 59.0516 75.0054 56.9679 72.6612C54.8841 70.317 52.058 69 49.1111 69C46.1643 69 43.3381 70.317 41.2544 72.6612C39.1706 75.0054 38 78.1848 38 81.5C38 84.8152 39.1706 87.9946 41.2544 90.3388C43.3381 92.683 46.1643 94 49.1111 94ZM43.5556 100.25C35.8819 100.25 29.6667 107.242 29.6667 115.875C29.6667 117.594 30.9167 119 32.4444 119H65.7778C67.3056 119 68.5556 117.594 68.5556 115.875C68.5556 107.242 62.3403 100.25 54.6667 100.25H43.5556ZM78.2778 72.125C75.9687 72.125 74.1111 74.2148 74.1111 76.8125C74.1111 79.4102 75.9687 81.5 78.2778 81.5H92.1667C94.4757 81.5 96.3333 79.4102 96.3333 76.8125C96.3333 74.2148 94.4757 72.125 92.1667 72.125H78.2778ZM78.2778 90.875C75.9687 90.875 74.1111 92.9648 74.1111 95.5625C74.1111 98.1602 75.9687 100.25 78.2778 100.25H92.1667C94.4757 100.25 96.3333 98.1602 96.3333 95.5625C96.3333 92.9648 94.4757 90.875 92.1667 90.875H78.2778Z" fill="white"/>
<path d="M184.412 60.1818C184.412 58.7614 184.599 57.4564 184.974 56.267C185.353 55.0739 185.916 53.9716 186.662 52.9602H188.599C188.312 53.3352 188.043 53.7955 187.793 54.3409C187.543 54.8826 187.325 55.4773 187.139 56.125C186.957 56.7689 186.813 57.4375 186.707 58.1307C186.605 58.8239 186.554 59.5076 186.554 60.1818C186.554 61.0795 186.643 61.9886 186.821 62.9091C187.003 63.8295 187.247 64.6837 187.554 65.4716C187.865 66.2557 188.213 66.8977 188.599 67.3977H186.662C185.916 66.3864 185.353 65.286 184.974 64.0966C184.599 62.9034 184.412 61.5985 184.412 60.1818ZM194.908 54.3636V66H192.8V56.4148H192.732L190.01 58.1534V56.2216L192.902 54.3636H194.908ZM197.862 66V64.4773L201.902 60.517C202.288 60.1269 202.61 59.7803 202.868 59.4773C203.125 59.1742 203.319 58.8807 203.447 58.5966C203.576 58.3125 203.641 58.0095 203.641 57.6875C203.641 57.3201 203.557 57.0057 203.391 56.7443C203.224 56.4792 202.995 56.2746 202.703 56.1307C202.411 55.9867 202.08 55.9148 201.709 55.9148C201.326 55.9148 200.991 55.9943 200.703 56.1534C200.415 56.3087 200.192 56.5303 200.033 56.8182C199.877 57.1061 199.8 57.4489 199.8 57.8466H197.794C197.794 57.108 197.963 56.4659 198.3 55.9205C198.637 55.375 199.101 54.9527 199.692 54.6534C200.286 54.3542 200.968 54.2045 201.737 54.2045C202.518 54.2045 203.203 54.3504 203.794 54.642C204.385 54.9337 204.843 55.3333 205.169 55.8409C205.499 56.3485 205.663 56.928 205.663 57.5795C205.663 58.0152 205.58 58.4432 205.413 58.8636C205.247 59.2841 204.953 59.75 204.533 60.2614C204.116 60.7727 203.531 61.392 202.777 62.1193L200.771 64.1591V64.2386H205.839V66H197.862ZM211.976 66.1591C211.158 66.1591 210.43 66.0189 209.794 65.7386C209.161 65.4583 208.661 65.0682 208.294 64.5682C207.927 64.0682 207.732 63.4905 207.709 62.8352H209.845C209.864 63.1496 209.968 63.4242 210.158 63.6591C210.347 63.8902 210.599 64.0701 210.913 64.1989C211.228 64.3277 211.58 64.392 211.97 64.392C212.387 64.392 212.756 64.3201 213.078 64.1761C213.4 64.0284 213.652 63.8239 213.834 63.5625C214.016 63.3011 214.105 63 214.101 62.6591C214.105 62.3068 214.014 61.9962 213.828 61.7273C213.643 61.4583 213.374 61.2481 213.021 61.0966C212.673 60.9451 212.252 60.8693 211.76 60.8693H210.732V59.2443H211.76C212.165 59.2443 212.519 59.1742 212.822 59.0341C213.129 58.8939 213.37 58.697 213.544 58.4432C213.718 58.1856 213.804 57.8883 213.8 57.5511C213.804 57.2216 213.73 56.9356 213.578 56.6932C213.43 56.447 213.22 56.2557 212.947 56.1193C212.679 55.983 212.362 55.9148 211.999 55.9148C211.643 55.9148 211.313 55.9792 211.01 56.108C210.707 56.2367 210.463 56.4205 210.277 56.6591C210.091 56.8939 209.993 57.1742 209.982 57.5H207.953C207.968 56.8485 208.156 56.2765 208.516 55.7841C208.879 55.2879 209.364 54.9015 209.97 54.625C210.576 54.3447 211.256 54.2045 212.01 54.2045C212.786 54.2045 213.461 54.3504 214.033 54.642C214.608 54.9299 215.054 55.3182 215.368 55.8068C215.682 56.2955 215.839 56.8352 215.839 57.4261C215.843 58.0814 215.65 58.6307 215.26 59.0739C214.874 59.517 214.366 59.8068 213.737 59.9432V60.0341C214.555 60.1477 215.182 60.4508 215.618 60.9432C216.057 61.4318 216.275 62.0398 216.271 62.767C216.271 63.4186 216.086 64.0019 215.714 64.517C215.347 65.0284 214.839 65.4299 214.192 65.7216C213.548 66.0133 212.809 66.1591 211.976 66.1591ZM221.915 60.1818C221.915 61.5985 221.725 62.9034 221.347 64.0966C220.972 65.286 220.411 66.3864 219.665 67.3977H217.727C218.019 67.0227 218.288 66.5644 218.534 66.0227C218.784 65.4811 219 64.8864 219.182 64.2386C219.367 63.5909 219.511 62.9205 219.614 62.2273C219.72 61.5341 219.773 60.8523 219.773 60.1818C219.773 59.2841 219.682 58.375 219.5 57.4545C219.322 56.5341 219.078 55.6799 218.767 54.892C218.46 54.1042 218.114 53.4602 217.727 52.9602H219.665C220.411 53.9716 220.972 55.0739 221.347 56.267C221.725 57.4564 221.915 58.7614 221.915 60.1818ZM228.277 63.8409V62.1648L233.214 54.3636H234.612V56.75H233.76L230.436 62.017V62.108H237.328V63.8409H228.277ZM233.828 66V63.3295L233.851 62.5795V54.3636H235.839V66H233.828ZM243.189 66.1591C242.431 66.1591 241.753 66.017 241.155 65.733C240.556 65.4451 240.081 65.0511 239.729 64.5511C239.38 64.0511 239.195 63.4792 239.172 62.8352H241.217C241.255 63.3125 241.462 63.7027 241.837 64.0057C242.212 64.3049 242.662 64.4545 243.189 64.4545C243.602 64.4545 243.969 64.3598 244.291 64.1705C244.613 63.9811 244.867 63.7178 245.053 63.3807C245.238 63.0436 245.329 62.6591 245.325 62.2273C245.329 61.7879 245.236 61.3977 245.047 61.0568C244.857 60.7159 244.598 60.4489 244.268 60.2557C243.939 60.0587 243.56 59.9602 243.132 59.9602C242.784 59.9564 242.441 60.0208 242.104 60.1534C241.767 60.286 241.5 60.4602 241.303 60.6761L239.399 60.3636L240.007 54.3636H246.757V56.125H241.751L241.416 59.2102H241.484C241.7 58.9564 242.005 58.7462 242.399 58.5795C242.793 58.4091 243.225 58.3239 243.695 58.3239C244.399 58.3239 245.028 58.4905 245.581 58.8239C246.134 59.1534 246.57 59.608 246.888 60.1875C247.206 60.767 247.365 61.4299 247.365 62.1761C247.365 62.9451 247.187 63.6307 246.831 64.233C246.479 64.8314 245.988 65.303 245.359 65.6477C244.734 65.9886 244.011 66.1591 243.189 66.1591ZM253.53 66.1591C252.973 66.1553 252.429 66.0587 251.899 65.8693C251.369 65.6761 250.892 65.3636 250.467 64.9318C250.043 64.4962 249.706 63.9186 249.456 63.1989C249.206 62.4754 249.083 61.5795 249.087 60.5114C249.087 59.5152 249.193 58.6269 249.405 57.8466C249.617 57.0663 249.922 56.4072 250.32 55.8693C250.717 55.3277 251.196 54.9148 251.757 54.6307C252.321 54.3466 252.952 54.2045 253.649 54.2045C254.38 54.2045 255.028 54.3485 255.592 54.6364C256.161 54.9242 256.619 55.3182 256.967 55.8182C257.316 56.3144 257.532 56.875 257.615 57.5H255.541C255.435 57.053 255.217 56.697 254.888 56.4318C254.562 56.1629 254.149 56.0284 253.649 56.0284C252.842 56.0284 252.221 56.3788 251.786 57.0795C251.354 57.7803 251.136 58.7424 251.132 59.9659H251.212C251.397 59.6326 251.638 59.3466 251.933 59.108C252.229 58.8693 252.562 58.6856 252.933 58.5568C253.308 58.4242 253.704 58.358 254.121 58.358C254.803 58.358 255.414 58.5208 255.956 58.8466C256.501 59.1723 256.933 59.6212 257.251 60.1932C257.57 60.7614 257.727 61.4129 257.723 62.1477C257.727 62.9129 257.553 63.6004 257.2 64.2102C256.848 64.8163 256.357 65.2936 255.729 65.642C255.1 65.9905 254.367 66.1629 253.53 66.1591ZM253.518 64.4545C253.931 64.4545 254.301 64.3542 254.626 64.1534C254.952 63.9527 255.21 63.6818 255.399 63.3409C255.589 63 255.681 62.6174 255.678 62.1932C255.681 61.7765 255.59 61.3996 255.405 61.0625C255.223 60.7254 254.971 60.4583 254.649 60.2614C254.327 60.0644 253.96 59.9659 253.547 59.9659C253.24 59.9659 252.954 60.0246 252.689 60.142C252.424 60.2595 252.193 60.4223 251.996 60.6307C251.799 60.8352 251.643 61.0739 251.53 61.3466C251.42 61.6155 251.363 61.9034 251.359 62.2102C251.363 62.6155 251.458 62.9886 251.643 63.3295C251.829 63.6705 252.085 63.9432 252.411 64.1477C252.736 64.3523 253.106 64.4545 253.518 64.4545ZM264.956 59.3352V61.0284H259.717V59.3352H264.956ZM267.085 66L272.034 56.2045V56.125H266.29V54.3636H274.216V56.1648L269.273 66H267.085ZM279.952 66.1591C279.107 66.1591 278.357 66.017 277.702 65.733C277.05 65.4489 276.539 65.0606 276.168 64.5682C275.8 64.072 275.618 63.5095 275.622 62.8807C275.618 62.392 275.724 61.9432 275.94 61.5341C276.156 61.125 276.448 60.7841 276.815 60.5114C277.187 60.2348 277.599 60.0587 278.054 59.983V59.9034C277.455 59.7708 276.971 59.4659 276.599 58.9886C276.232 58.5076 276.05 57.9527 276.054 57.3239C276.05 56.7254 276.217 56.1913 276.554 55.7216C276.891 55.2519 277.353 54.8826 277.94 54.6136C278.527 54.3409 279.198 54.2045 279.952 54.2045C280.698 54.2045 281.363 54.3409 281.946 54.6136C282.533 54.8826 282.995 55.2519 283.332 55.7216C283.673 56.1913 283.844 56.7254 283.844 57.3239C283.844 57.9527 283.656 58.5076 283.281 58.9886C282.91 59.4659 282.431 59.7708 281.844 59.9034V59.983C282.298 60.0587 282.707 60.2348 283.071 60.5114C283.438 60.7841 283.73 61.125 283.946 61.5341C284.166 61.9432 284.276 62.392 284.276 62.8807C284.276 63.5095 284.09 64.072 283.719 64.5682C283.348 65.0606 282.836 65.4489 282.185 65.733C281.537 66.017 280.793 66.1591 279.952 66.1591ZM279.952 64.5341C280.387 64.5341 280.766 64.4602 281.088 64.3125C281.41 64.161 281.66 63.9489 281.838 63.6761C282.016 63.4034 282.107 63.089 282.111 62.733C282.107 62.3617 282.01 62.0341 281.821 61.75C281.635 61.4621 281.38 61.2367 281.054 61.0739C280.732 60.911 280.365 60.8295 279.952 60.8295C279.535 60.8295 279.164 60.911 278.838 61.0739C278.512 61.2367 278.255 61.4621 278.065 61.75C277.88 62.0341 277.789 62.3617 277.793 62.733C277.789 63.089 277.876 63.4034 278.054 63.6761C278.232 63.9451 278.482 64.1553 278.804 64.3068C279.13 64.4583 279.512 64.5341 279.952 64.5341ZM279.952 59.233C280.308 59.233 280.622 59.161 280.895 59.017C281.171 58.8731 281.389 58.6723 281.548 58.4148C281.707 58.1572 281.789 57.8598 281.793 57.5227C281.789 57.1894 281.709 56.8977 281.554 56.6477C281.399 56.3939 281.183 56.1989 280.906 56.0625C280.63 55.9223 280.312 55.8523 279.952 55.8523C279.584 55.8523 279.26 55.9223 278.98 56.0625C278.704 56.1989 278.488 56.3939 278.332 56.6477C278.181 56.8977 278.107 57.1894 278.111 57.5227C278.107 57.8598 278.183 58.1572 278.338 58.4148C278.497 58.6686 278.715 58.8693 278.991 59.017C279.272 59.161 279.592 59.233 279.952 59.233ZM290.183 54.2045C290.74 54.2083 291.282 54.3068 291.808 54.5C292.339 54.6894 292.816 55 293.24 55.4318C293.664 55.8598 294.001 56.4337 294.251 57.1534C294.501 57.8731 294.626 58.7633 294.626 59.8239C294.63 60.8239 294.524 61.7178 294.308 62.5057C294.096 63.2898 293.791 63.9527 293.393 64.4943C292.996 65.036 292.517 65.4489 291.956 65.733C291.395 66.017 290.765 66.1591 290.064 66.1591C289.329 66.1591 288.678 66.0152 288.109 65.7273C287.545 65.4394 287.089 65.0455 286.74 64.5455C286.392 64.0455 286.178 63.4735 286.098 62.8295H288.172C288.278 63.2917 288.494 63.6591 288.82 63.9318C289.149 64.2008 289.564 64.3352 290.064 64.3352C290.871 64.3352 291.492 63.9848 291.928 63.2841C292.363 62.5833 292.581 61.6098 292.581 60.3636H292.501C292.316 60.697 292.075 60.9848 291.78 61.2273C291.484 61.4659 291.149 61.6496 290.774 61.7784C290.403 61.9072 290.009 61.9716 289.592 61.9716C288.911 61.9716 288.297 61.8087 287.751 61.483C287.21 61.1572 286.78 60.7102 286.462 60.142C286.147 59.5739 285.988 58.9242 285.984 58.1932C285.984 57.4356 286.159 56.7557 286.507 56.1534C286.859 55.5473 287.35 55.0701 287.979 54.7216C288.607 54.3693 289.342 54.197 290.183 54.2045ZM290.189 55.9091C289.78 55.9091 289.411 56.0095 289.081 56.2102C288.755 56.4072 288.498 56.6761 288.308 57.017C288.123 57.3542 288.03 57.7311 288.03 58.1477C288.034 58.5606 288.126 58.9356 288.308 59.2727C288.494 59.6098 288.746 59.8769 289.064 60.0739C289.386 60.2708 289.753 60.3693 290.166 60.3693C290.473 60.3693 290.759 60.3106 291.024 60.1932C291.289 60.0758 291.52 59.9129 291.717 59.7045C291.918 59.4924 292.073 59.2519 292.183 58.983C292.297 58.714 292.352 58.4299 292.348 58.1307C292.348 57.733 292.253 57.3655 292.064 57.0284C291.878 56.6913 291.623 56.4205 291.297 56.2159C290.975 56.0114 290.606 55.9091 290.189 55.9091ZM300.82 66.2216C299.884 66.2216 299.081 65.9848 298.411 65.5114C297.744 65.0341 297.231 64.3466 296.871 63.4489C296.515 62.5473 296.337 61.4621 296.337 60.1932C296.34 58.9242 296.52 57.8447 296.876 56.9545C297.236 56.0606 297.75 55.3788 298.416 54.9091C299.087 54.4394 299.888 54.2045 300.82 54.2045C301.751 54.2045 302.553 54.4394 303.223 54.9091C303.893 55.3788 304.407 56.0606 304.763 56.9545C305.123 57.8485 305.303 58.928 305.303 60.1932C305.303 61.4659 305.123 62.553 304.763 63.4545C304.407 64.3523 303.893 65.0379 303.223 65.5114C302.556 65.9848 301.755 66.2216 300.82 66.2216ZM300.82 64.4432C301.547 64.4432 302.121 64.0852 302.541 63.3693C302.965 62.6496 303.178 61.5909 303.178 60.1932C303.178 59.2689 303.081 58.4924 302.888 57.8636C302.695 57.2348 302.422 56.7614 302.07 56.4432C301.717 56.1212 301.301 55.9602 300.82 55.9602C300.096 55.9602 299.524 56.3201 299.104 57.0398C298.683 57.7557 298.471 58.8068 298.467 60.1932C298.464 61.1212 298.556 61.9015 298.746 62.5341C298.939 63.1667 299.212 63.6439 299.564 63.9659C299.916 64.2841 300.335 64.4432 300.82 64.4432Z" fill="#A52A2A"/>
<path d="M150.441 50.9618C150.141 50.2353 149.348 49.8485 148.59 50.0556L145.152 50.9931C144.473 51.1806 144 51.7978 144 52.5009C144 62.1649 151.836 70.0009 161.5 70.0009C162.203 70.0009 162.82 69.5282 163.008 68.8485L163.945 65.411C164.152 64.6532 163.766 63.8603 163.039 63.5595L159.289 61.997C158.652 61.7313 157.914 61.9149 157.48 62.4501L155.902 64.3759C153.152 63.0751 150.926 60.8485 149.625 58.0985L151.551 56.5243C152.086 56.0868 152.27 55.3524 152.004 54.7157L150.441 50.9657V50.9618Z" fill="#A52A2A"/>
<path d="M145.875 87C144.84 87 144 87.8398 144 88.875C144 89.4648 144.277 90.0195 144.75 90.375L153.25 96.75C153.695 97.082 154.305 97.082 154.75 96.75L163.25 90.375C163.723 90.0195 164 89.4648 164 88.875C164 87.8398 163.16 87 162.125 87H145.875ZM144 91.375V99.5C144 100.879 145.121 102 146.5 102H161.5C162.879 102 164 100.879 164 99.5V91.375L155.5 97.75C154.609 98.418 153.391 98.418 152.5 97.75L144 91.375Z" fill="#A52A2A"/>
<path d="M186.76 99V90.2727H188.817V99H186.76ZM187.794 89.0341C187.468 89.0341 187.188 88.9261 186.953 88.7102C186.718 88.4905 186.601 88.2273 186.601 87.9205C186.601 87.6098 186.718 87.3466 186.953 87.1307C187.188 86.911 187.468 86.8011 187.794 86.8011C188.124 86.8011 188.404 86.911 188.635 87.1307C188.87 87.3466 188.987 87.6098 188.987 87.9205C188.987 88.2273 188.87 88.4905 188.635 88.7102C188.404 88.9261 188.124 89.0341 187.794 89.0341ZM192.989 93.8864V99H190.932V90.2727H192.898V91.7557H193C193.201 91.267 193.521 90.8788 193.96 90.5909C194.403 90.303 194.951 90.1591 195.602 90.1591C196.205 90.1591 196.729 90.2879 197.176 90.5455C197.627 90.803 197.975 91.1761 198.222 91.6648C198.472 92.1534 198.595 92.7462 198.591 93.4432V99H196.534V93.7614C196.534 93.178 196.383 92.7216 196.08 92.392C195.78 92.0625 195.366 91.8977 194.835 91.8977C194.475 91.8977 194.155 91.9773 193.875 92.1364C193.598 92.2917 193.381 92.517 193.222 92.8125C193.066 93.108 192.989 93.4659 192.989 93.8864ZM205.102 90.2727V91.8636H199.943V90.2727H205.102ZM201.233 99V89.4489C201.233 88.8617 201.354 88.3731 201.597 87.983C201.843 87.5928 202.172 87.3011 202.585 87.108C202.998 86.9148 203.456 86.8182 203.96 86.8182C204.316 86.8182 204.633 86.8466 204.909 86.9034C205.186 86.9602 205.39 87.0114 205.523 87.0568L205.114 88.6477C205.027 88.6212 204.917 88.5947 204.784 88.5682C204.652 88.5379 204.504 88.5227 204.341 88.5227C203.958 88.5227 203.688 88.6155 203.528 88.8011C203.373 88.983 203.295 89.2443 203.295 89.5852V99H201.233ZM210.192 99.1705C209.339 99.1705 208.601 98.983 207.976 98.608C207.351 98.233 206.866 97.7083 206.521 97.0341C206.18 96.3598 206.01 95.572 206.01 94.6705C206.01 93.7689 206.18 92.9792 206.521 92.3011C206.866 91.6231 207.351 91.0966 207.976 90.7216C208.601 90.3466 209.339 90.1591 210.192 90.1591C211.044 90.1591 211.783 90.3466 212.408 90.7216C213.033 91.0966 213.516 91.6231 213.857 92.3011C214.201 92.9792 214.374 93.7689 214.374 94.6705C214.374 95.572 214.201 96.3598 213.857 97.0341C213.516 97.7083 213.033 98.233 212.408 98.608C211.783 98.983 211.044 99.1705 210.192 99.1705ZM210.203 97.5227C210.665 97.5227 211.052 97.3958 211.362 97.142C211.673 96.8845 211.904 96.5398 212.055 96.108C212.211 95.6761 212.288 95.1951 212.288 94.6648C212.288 94.1307 212.211 93.6477 212.055 93.2159C211.904 92.7803 211.673 92.4337 211.362 92.1761C211.052 91.9186 210.665 91.7898 210.203 91.7898C209.73 91.7898 209.336 91.9186 209.021 92.1761C208.711 92.4337 208.478 92.7803 208.322 93.2159C208.171 93.6477 208.095 94.1307 208.095 94.6648C208.095 95.1951 208.171 95.6761 208.322 96.108C208.478 96.5398 208.711 96.8845 209.021 97.142C209.336 97.3958 209.73 97.5227 210.203 97.5227ZM223.432 102.261C222.239 102.261 221.178 102.098 220.25 101.773C219.326 101.451 218.545 100.975 217.909 100.347C217.273 99.7216 216.79 98.9583 216.46 98.0568C216.131 97.1553 215.964 96.125 215.96 94.9659C215.964 93.8333 216.133 92.8125 216.466 91.9034C216.799 90.9905 217.286 90.2102 217.926 89.5625C218.566 88.911 219.348 88.411 220.273 88.0625C221.197 87.714 222.248 87.5398 223.426 87.5398C224.536 87.5398 225.519 87.7083 226.375 88.0455C227.235 88.3826 227.96 88.8523 228.551 89.4545C229.146 90.053 229.595 90.7538 229.898 91.5568C230.205 92.3561 230.358 93.2235 230.358 94.1591C230.358 94.8068 230.309 95.4205 230.21 96C230.112 96.5758 229.943 97.0871 229.705 97.5341C229.47 97.9811 229.15 98.3371 228.744 98.6023C228.339 98.8636 227.831 99.0057 227.222 99.0284C226.839 99.0473 226.504 99.0114 226.216 98.9205C225.928 98.8295 225.695 98.6875 225.517 98.4943C225.343 98.2973 225.233 98.0568 225.188 97.7727H225.119C225.032 98 224.867 98.2083 224.625 98.3977C224.386 98.5833 224.091 98.7292 223.739 98.8352C223.386 98.9375 222.994 98.9792 222.562 98.9602C222.1 98.9375 221.672 98.8314 221.278 98.642C220.888 98.4489 220.547 98.1799 220.256 97.8352C219.968 97.4867 219.744 97.0663 219.585 96.5739C219.426 96.0814 219.347 95.5227 219.347 94.8977C219.347 94.2879 219.434 93.75 219.608 93.2841C219.782 92.8182 220.015 92.4205 220.307 92.0909C220.602 91.7614 220.936 91.5038 221.307 91.3182C221.678 91.1288 222.061 91.0076 222.455 90.9545C222.864 90.8977 223.248 90.9034 223.608 90.9716C223.968 91.0398 224.267 91.1439 224.506 91.2841C224.748 91.4242 224.9 91.5777 224.96 91.7443H225.04V91.108H226.625V96.517C226.629 96.8011 226.697 97.0303 226.83 97.2045C226.966 97.3788 227.155 97.4659 227.398 97.4659C227.701 97.4659 227.945 97.3466 228.131 97.108C228.32 96.8655 228.456 96.4943 228.54 95.9943C228.627 95.4905 228.669 94.8466 228.665 94.0625C228.669 93.4186 228.583 92.8352 228.409 92.3125C228.239 91.786 227.996 91.3239 227.682 90.9261C227.367 90.5284 226.991 90.197 226.551 89.9318C226.116 89.6629 225.631 89.4602 225.097 89.3239C224.563 89.1875 223.992 89.1193 223.386 89.1193C222.458 89.1193 221.642 89.2614 220.938 89.5455C220.233 89.8258 219.642 90.2254 219.165 90.7443C218.691 91.2633 218.333 91.8788 218.091 92.5909C217.852 93.2992 217.733 94.0833 217.733 94.9432C217.733 95.8636 217.858 96.6799 218.108 97.392C218.362 98.1004 218.733 98.697 219.222 99.1818C219.71 99.6667 220.314 100.034 221.034 100.284C221.758 100.534 222.589 100.659 223.528 100.659C223.96 100.659 224.383 100.625 224.795 100.557C225.208 100.489 225.58 100.409 225.909 100.318C226.239 100.227 226.492 100.148 226.67 100.08L227.153 101.523C226.919 101.644 226.6 101.761 226.199 101.875C225.801 101.989 225.362 102.081 224.881 102.153C224.403 102.225 223.92 102.261 223.432 102.261ZM223.034 97.3295C223.515 97.3295 223.9 97.2367 224.188 97.0511C224.475 96.8617 224.682 96.5814 224.807 96.2102C224.932 95.839 224.992 95.3769 224.989 94.8239C224.989 94.3087 224.924 93.8864 224.795 93.5568C224.667 93.2273 224.46 92.983 224.176 92.8239C223.892 92.6648 223.515 92.5852 223.045 92.5852C222.621 92.5852 222.259 92.6818 221.96 92.875C221.665 93.0682 221.438 93.3352 221.278 93.6761C221.123 94.0133 221.045 94.3977 221.045 94.8295C221.045 95.2614 221.108 95.6686 221.233 96.0511C221.362 96.4299 221.57 96.7386 221.858 96.9773C222.15 97.2121 222.542 97.3295 223.034 97.3295ZM235.911 99.1705C235.058 99.1705 234.32 98.983 233.695 98.608C233.07 98.233 232.585 97.7083 232.24 97.0341C231.899 96.3598 231.729 95.572 231.729 94.6705C231.729 93.7689 231.899 92.9792 232.24 92.3011C232.585 91.6231 233.07 91.0966 233.695 90.7216C234.32 90.3466 235.058 90.1591 235.911 90.1591C236.763 90.1591 237.501 90.3466 238.126 90.7216C238.751 91.0966 239.234 91.6231 239.575 92.3011C239.92 92.9792 240.092 93.7689 240.092 94.6705C240.092 95.572 239.92 96.3598 239.575 97.0341C239.234 97.7083 238.751 98.233 238.126 98.608C237.501 98.983 236.763 99.1705 235.911 99.1705ZM235.922 97.5227C236.384 97.5227 236.77 97.3958 237.081 97.142C237.392 96.8845 237.623 96.5398 237.774 96.108C237.929 95.6761 238.007 95.1951 238.007 94.6648C238.007 94.1307 237.929 93.6477 237.774 93.2159C237.623 92.7803 237.392 92.4337 237.081 92.1761C236.77 91.9186 236.384 91.7898 235.922 91.7898C235.448 91.7898 235.054 91.9186 234.74 92.1761C234.429 92.4337 234.196 92.7803 234.041 93.2159C233.89 93.6477 233.814 94.1307 233.814 94.6648C233.814 95.1951 233.89 95.6761 234.041 96.108C234.196 96.5398 234.429 96.8845 234.74 97.142C235.054 97.3958 235.448 97.5227 235.922 97.5227ZM246.196 90.2727V91.8636H241.179V90.2727H246.196ZM242.418 88.1818H244.474V96.375C244.474 96.6515 244.516 96.8636 244.599 97.0114C244.687 97.1553 244.8 97.2538 244.94 97.3068C245.08 97.3598 245.236 97.3864 245.406 97.3864C245.535 97.3864 245.652 97.3769 245.759 97.358C245.868 97.339 245.952 97.322 246.009 97.3068L246.355 98.9148C246.245 98.9527 246.088 98.9943 245.884 99.0398C245.683 99.0852 245.437 99.1117 245.145 99.1193C244.63 99.1345 244.166 99.0568 243.753 98.8864C243.34 98.7121 243.012 98.4432 242.77 98.0795C242.531 97.7159 242.414 97.2614 242.418 96.7159V88.1818ZM252.274 90.2727V91.8636H247.257V90.2727H252.274ZM248.496 88.1818H250.553V96.375C250.553 96.6515 250.594 96.8636 250.678 97.0114C250.765 97.1553 250.878 97.2538 251.018 97.3068C251.159 97.3598 251.314 97.3864 251.484 97.3864C251.613 97.3864 251.731 97.3769 251.837 97.358C251.946 97.339 252.03 97.322 252.087 97.3068L252.433 98.9148C252.323 98.9527 252.166 98.9943 251.962 99.0398C251.761 99.0852 251.515 99.1117 251.223 99.1193C250.708 99.1345 250.244 99.0568 249.831 98.8864C249.418 98.7121 249.09 98.4432 248.848 98.0795C248.609 97.7159 248.492 97.2614 248.496 96.7159V88.1818ZM257.707 99.1705C256.855 99.1705 256.116 98.983 255.491 98.608C254.866 98.233 254.382 97.7083 254.037 97.0341C253.696 96.3598 253.526 95.572 253.526 94.6705C253.526 93.7689 253.696 92.9792 254.037 92.3011C254.382 91.6231 254.866 91.0966 255.491 90.7216C256.116 90.3466 256.855 90.1591 257.707 90.1591C258.56 90.1591 259.298 90.3466 259.923 90.7216C260.548 91.0966 261.031 91.6231 261.372 92.3011C261.717 92.9792 261.889 93.7689 261.889 94.6705C261.889 95.572 261.717 96.3598 261.372 97.0341C261.031 97.7083 260.548 98.233 259.923 98.608C259.298 98.983 258.56 99.1705 257.707 99.1705ZM257.719 97.5227C258.181 97.5227 258.567 97.3958 258.878 97.142C259.188 96.8845 259.42 96.5398 259.571 96.108C259.726 95.6761 259.804 95.1951 259.804 94.6648C259.804 94.1307 259.726 93.6477 259.571 93.2159C259.42 92.7803 259.188 92.4337 258.878 92.1761C258.567 91.9186 258.181 91.7898 257.719 91.7898C257.245 91.7898 256.851 91.9186 256.537 92.1761C256.226 92.4337 255.993 92.7803 255.838 93.2159C255.687 93.6477 255.611 94.1307 255.611 94.6648C255.611 95.1951 255.687 95.6761 255.838 96.108C255.993 96.5398 256.226 96.8845 256.537 97.142C256.851 97.3958 257.245 97.5227 257.719 97.5227ZM263.635 99V90.2727H265.601V91.7557H265.703C265.885 91.2557 266.186 90.8655 266.607 90.5852C267.027 90.3011 267.529 90.1591 268.112 90.1591C268.703 90.1591 269.201 90.303 269.607 90.5909C270.016 90.875 270.304 91.2633 270.47 91.7557H270.561C270.754 91.2708 271.08 90.8845 271.538 90.5966C272 90.3049 272.548 90.1591 273.18 90.1591C273.983 90.1591 274.639 90.4129 275.146 90.9205C275.654 91.428 275.908 92.1686 275.908 93.142V99H273.845V93.4602C273.845 92.9186 273.701 92.5227 273.413 92.2727C273.125 92.0189 272.773 91.892 272.357 91.892C271.86 91.892 271.472 92.0473 271.192 92.358C270.915 92.6648 270.777 93.0644 270.777 93.5568V99H268.76V93.375C268.76 92.9242 268.624 92.5644 268.351 92.2955C268.082 92.0265 267.73 91.892 267.294 91.892C266.999 91.892 266.73 91.9678 266.487 92.1193C266.245 92.267 266.052 92.4773 265.908 92.75C265.764 93.0189 265.692 93.3333 265.692 93.6932V99H263.635ZM280.506 99.1761C279.953 99.1761 279.455 99.0777 279.011 98.8807C278.572 98.6799 278.223 98.3845 277.966 97.9943C277.712 97.6042 277.585 97.1231 277.585 96.5511C277.585 96.0587 277.676 95.6515 277.858 95.3295C278.04 95.0076 278.288 94.75 278.602 94.5568C278.917 94.3636 279.271 94.2178 279.665 94.1193C280.063 94.017 280.473 93.9432 280.898 93.8977C281.409 93.8447 281.824 93.7973 282.142 93.7557C282.46 93.7102 282.691 93.642 282.835 93.5511C282.983 93.4564 283.057 93.3106 283.057 93.1136V93.0795C283.057 92.6515 282.93 92.3201 282.676 92.0852C282.422 91.8504 282.057 91.733 281.58 91.733C281.076 91.733 280.676 91.8428 280.381 92.0625C280.089 92.2822 279.892 92.5417 279.79 92.8409L277.869 92.5682C278.021 92.0379 278.271 91.5947 278.619 91.2386C278.968 90.8788 279.394 90.6098 279.898 90.4318C280.402 90.25 280.958 90.1591 281.568 90.1591C281.989 90.1591 282.407 90.2083 282.824 90.3068C283.241 90.4053 283.621 90.5682 283.966 90.7955C284.311 91.0189 284.587 91.3239 284.795 91.7102C285.008 92.0966 285.114 92.5795 285.114 93.1591V99H283.136V97.8011H283.068C282.943 98.0436 282.767 98.2708 282.54 98.483C282.316 98.6913 282.034 98.8598 281.693 98.9886C281.356 99.1136 280.96 99.1761 280.506 99.1761ZM281.04 97.6648C281.453 97.6648 281.811 97.5833 282.114 97.4205C282.417 97.2538 282.65 97.0341 282.812 96.7614C282.979 96.4886 283.062 96.1913 283.062 95.8693V94.8409C282.998 94.8939 282.888 94.9432 282.733 94.9886C282.581 95.0341 282.411 95.0739 282.222 95.108C282.032 95.142 281.845 95.1723 281.659 95.1989C281.473 95.2254 281.313 95.2481 281.176 95.267C280.869 95.3087 280.595 95.3769 280.352 95.4716C280.11 95.5663 279.919 95.6989 279.778 95.8693C279.638 96.036 279.568 96.2519 279.568 96.517C279.568 96.8958 279.706 97.1818 279.983 97.375C280.259 97.5682 280.612 97.6648 281.04 97.6648ZM289.239 93.8864V99H287.182V90.2727H289.148V91.7557H289.25C289.451 91.267 289.771 90.8788 290.21 90.5909C290.653 90.303 291.201 90.1591 291.852 90.1591C292.455 90.1591 292.979 90.2879 293.426 90.5455C293.877 90.803 294.225 91.1761 294.472 91.6648C294.722 92.1534 294.845 92.7462 294.841 93.4432V99H292.784V93.7614C292.784 93.178 292.633 92.7216 292.33 92.392C292.03 92.0625 291.616 91.8977 291.085 91.8977C290.725 91.8977 290.405 91.9773 290.125 92.1364C289.848 92.2917 289.631 92.517 289.472 92.8125C289.316 93.108 289.239 93.4659 289.239 93.8864ZM300.17 99.1534C299.485 99.1534 298.871 98.9773 298.33 98.625C297.788 98.2727 297.36 97.7614 297.045 97.0909C296.731 96.4205 296.574 95.6061 296.574 94.6477C296.574 93.678 296.733 92.8598 297.051 92.1932C297.373 91.5227 297.807 91.017 298.352 90.6761C298.898 90.3314 299.506 90.1591 300.176 90.1591C300.688 90.1591 301.108 90.2462 301.438 90.4205C301.767 90.5909 302.028 90.7973 302.222 91.0398C302.415 91.2784 302.564 91.5038 302.67 91.7159H302.756V87.3636H304.818V99H302.795V97.625H302.67C302.564 97.8371 302.411 98.0625 302.21 98.3011C302.009 98.536 301.744 98.7367 301.415 98.9034C301.085 99.0701 300.67 99.1534 300.17 99.1534ZM300.744 97.4659C301.18 97.4659 301.551 97.3485 301.858 97.1136C302.165 96.875 302.398 96.5436 302.557 96.1193C302.716 95.6951 302.795 95.2008 302.795 94.6364C302.795 94.072 302.716 93.5814 302.557 93.1648C302.402 92.7481 302.17 92.4242 301.864 92.1932C301.561 91.9621 301.188 91.8466 300.744 91.8466C300.286 91.8466 299.903 91.9659 299.597 92.2045C299.29 92.4432 299.059 92.7727 298.903 93.1932C298.748 93.6136 298.67 94.0947 298.67 94.6364C298.67 95.1818 298.748 95.6686 298.903 96.0966C299.063 96.5208 299.295 96.8561 299.602 97.1023C299.913 97.3447 300.294 97.4659 300.744 97.4659ZM310.874 99.1705C309.999 99.1705 309.243 98.9886 308.607 98.625C307.974 98.2576 307.487 97.7386 307.146 97.0682C306.805 96.3939 306.635 95.6004 306.635 94.6875C306.635 93.7898 306.805 93.0019 307.146 92.3239C307.491 91.642 307.972 91.1117 308.589 90.733C309.207 90.3504 309.932 90.1591 310.766 90.1591C311.304 90.1591 311.811 90.2462 312.288 90.4205C312.769 90.5909 313.194 90.8561 313.561 91.2159C313.932 91.5758 314.224 92.0341 314.436 92.5909C314.648 93.1439 314.754 93.803 314.754 94.5682V95.1989H307.601V93.8125H312.783C312.779 93.4186 312.694 93.0682 312.527 92.7614C312.36 92.4508 312.127 92.2064 311.828 92.0284C311.533 91.8504 311.188 91.7614 310.794 91.7614C310.374 91.7614 310.004 91.8636 309.686 92.0682C309.368 92.2689 309.12 92.5341 308.942 92.8636C308.768 93.1894 308.679 93.5473 308.675 93.9375V95.1477C308.675 95.6553 308.768 96.0909 308.953 96.4545C309.139 96.8144 309.398 97.0909 309.732 97.2841C310.065 97.4735 310.455 97.5682 310.902 97.5682C311.201 97.5682 311.472 97.5265 311.714 97.4432C311.957 97.3561 312.167 97.2292 312.345 97.0625C312.523 96.8958 312.658 96.6894 312.749 96.4432L314.669 96.6591C314.548 97.1667 314.317 97.6098 313.976 97.9886C313.639 98.3636 313.207 98.6553 312.68 98.8636C312.154 99.0682 311.552 99.1705 310.874 99.1705ZM318.551 87.3636V99H316.494V87.3636H318.551ZM320.666 99V90.2727H322.723V99H320.666ZM321.7 89.0341C321.375 89.0341 321.094 88.9261 320.859 88.7102C320.625 88.4905 320.507 88.2273 320.507 87.9205C320.507 87.6098 320.625 87.3466 320.859 87.1307C321.094 86.911 321.375 86.8011 321.7 86.8011C322.03 86.8011 322.31 86.911 322.541 87.1307C322.776 87.3466 322.893 87.6098 322.893 87.9205C322.893 88.2273 322.776 88.4905 322.541 88.7102C322.31 88.9261 322.03 89.0341 321.7 89.0341ZM328.634 102.455C327.895 102.455 327.26 102.354 326.73 102.153C326.2 101.956 325.774 101.691 325.452 101.358C325.13 101.025 324.906 100.655 324.781 100.25L326.634 99.8011C326.717 99.9716 326.838 100.14 326.997 100.307C327.156 100.477 327.37 100.617 327.639 100.727C327.912 100.841 328.255 100.898 328.668 100.898C329.251 100.898 329.734 100.756 330.116 100.472C330.499 100.191 330.69 99.7292 330.69 99.0852V97.4318H330.588C330.482 97.6439 330.327 97.8617 330.122 98.0852C329.921 98.3087 329.654 98.4962 329.321 98.6477C328.991 98.7992 328.577 98.875 328.077 98.875C327.406 98.875 326.798 98.7178 326.253 98.4034C325.711 98.0852 325.279 97.6117 324.957 96.983C324.639 96.3504 324.48 95.5587 324.48 94.608C324.48 93.6496 324.639 92.8409 324.957 92.1818C325.279 91.5189 325.713 91.017 326.259 90.6761C326.804 90.3314 327.412 90.1591 328.082 90.1591C328.594 90.1591 329.014 90.2462 329.344 90.4205C329.677 90.5909 329.942 90.7973 330.139 91.0398C330.336 91.2784 330.486 91.5038 330.588 91.7159H330.702V90.2727H332.73V99.142C332.73 99.8883 332.552 100.506 332.196 100.994C331.84 101.483 331.353 101.848 330.736 102.091C330.118 102.333 329.418 102.455 328.634 102.455ZM328.651 97.2614C329.086 97.2614 329.457 97.1553 329.764 96.9432C330.071 96.7311 330.304 96.4261 330.463 96.0284C330.622 95.6307 330.702 95.1534 330.702 94.5966C330.702 94.0473 330.622 93.5663 330.463 93.1534C330.308 92.7405 330.077 92.4205 329.77 92.1932C329.467 91.9621 329.094 91.8466 328.651 91.8466C328.192 91.8466 327.81 91.9659 327.503 92.2045C327.196 92.4432 326.965 92.7708 326.81 93.1875C326.654 93.6004 326.577 94.0701 326.577 94.5966C326.577 95.1307 326.654 95.5985 326.81 96C326.969 96.3977 327.202 96.7083 327.509 96.9318C327.819 97.1515 328.2 97.2614 328.651 97.2614ZM336.895 93.8864V99H334.838V87.3636H336.849V91.7557H336.952C337.156 91.2633 337.473 90.875 337.901 90.5909C338.332 90.303 338.882 90.1591 339.548 90.1591C340.154 90.1591 340.683 90.286 341.134 90.5398C341.584 90.7936 341.933 91.1648 342.179 91.6534C342.429 92.142 342.554 92.7386 342.554 93.4432V99H340.497V93.7614C340.497 93.1742 340.346 92.7178 340.043 92.392C339.743 92.0625 339.323 91.8977 338.781 91.8977C338.418 91.8977 338.092 91.9773 337.804 92.1364C337.52 92.2917 337.296 92.517 337.134 92.8125C336.974 93.108 336.895 93.4659 336.895 93.8864ZM349.009 90.2727V91.8636H343.991V90.2727H349.009ZM345.23 88.1818H347.287V96.375C347.287 96.6515 347.329 96.8636 347.412 97.0114C347.499 97.1553 347.613 97.2538 347.753 97.3068C347.893 97.3598 348.048 97.3864 348.219 97.3864C348.348 97.3864 348.465 97.3769 348.571 97.358C348.681 97.339 348.764 97.322 348.821 97.3068L349.168 98.9148C349.058 98.9527 348.901 98.9943 348.696 99.0398C348.495 99.0852 348.249 99.1117 347.957 99.1193C347.442 99.1345 346.978 99.0568 346.565 98.8864C346.152 98.7121 345.825 98.4432 345.582 98.0795C345.344 97.7159 345.226 97.2614 345.23 96.7159V88.1818ZM357.501 92.5795L355.626 92.7841C355.573 92.5947 355.481 92.4167 355.348 92.25C355.219 92.0833 355.045 91.9489 354.825 91.8466C354.606 91.7443 354.337 91.6932 354.018 91.6932C353.59 91.6932 353.231 91.786 352.939 91.9716C352.651 92.1572 352.509 92.3977 352.513 92.6932C352.509 92.947 352.602 93.1534 352.791 93.3125C352.984 93.4716 353.303 93.6023 353.746 93.7045L355.234 94.0227C356.06 94.2008 356.674 94.483 357.075 94.8693C357.481 95.2557 357.685 95.7614 357.689 96.3864C357.685 96.9356 357.524 97.4205 357.206 97.8409C356.892 98.2576 356.454 98.5833 355.893 98.8182C355.333 99.053 354.689 99.1705 353.962 99.1705C352.893 99.1705 352.034 98.947 351.382 98.5C350.731 98.0492 350.342 97.4223 350.217 96.6193L352.223 96.4261C352.314 96.8201 352.507 97.1174 352.803 97.3182C353.098 97.5189 353.482 97.6193 353.956 97.6193C354.445 97.6193 354.837 97.5189 355.132 97.3182C355.431 97.1174 355.581 96.8693 355.581 96.5739C355.581 96.3239 355.484 96.1174 355.291 95.9545C355.102 95.7917 354.806 95.6667 354.405 95.5795L352.916 95.267C352.079 95.0928 351.46 94.7992 351.058 94.3864C350.657 93.9697 350.458 93.4432 350.462 92.8068C350.458 92.2689 350.604 91.803 350.899 91.4091C351.198 91.0114 351.613 90.7045 352.143 90.4886C352.678 90.2689 353.293 90.1591 353.99 90.1591C355.013 90.1591 355.818 90.3769 356.405 90.8125C356.996 91.2481 357.361 91.8371 357.501 92.5795ZM360.652 99.125C360.307 99.125 360.012 99.0038 359.766 98.7614C359.519 98.5189 359.398 98.2235 359.402 97.875C359.398 97.5341 359.519 97.2424 359.766 97C360.012 96.7576 360.307 96.6364 360.652 96.6364C360.985 96.6364 361.275 96.7576 361.521 97C361.771 97.2424 361.898 97.5341 361.902 97.875C361.898 98.1061 361.838 98.3163 361.72 98.5057C361.607 98.6951 361.455 98.8466 361.266 98.9602C361.08 99.0701 360.875 99.125 360.652 99.125ZM367.832 99.1705C366.961 99.1705 366.213 98.9792 365.588 98.5966C364.967 98.214 364.488 97.6856 364.151 97.0114C363.817 96.3333 363.651 95.553 363.651 94.6705C363.651 93.7841 363.821 93.0019 364.162 92.3239C364.503 91.642 364.984 91.1117 365.605 90.733C366.23 90.3504 366.969 90.1591 367.821 90.1591C368.529 90.1591 369.156 90.2898 369.702 90.5511C370.251 90.8087 370.688 91.1742 371.014 91.6477C371.34 92.1174 371.526 92.6667 371.571 93.2955H369.605C369.526 92.875 369.336 92.5246 369.037 92.2443C368.741 91.9602 368.346 91.8182 367.849 91.8182C367.429 91.8182 367.06 91.9318 366.741 92.1591C366.423 92.3826 366.175 92.7045 365.997 93.125C365.823 93.5455 365.736 94.0492 365.736 94.6364C365.736 95.2311 365.823 95.7424 365.997 96.1705C366.171 96.5947 366.416 96.9223 366.73 97.1534C367.048 97.3807 367.421 97.4943 367.849 97.4943C368.152 97.4943 368.423 97.4375 368.662 97.3239C368.904 97.2064 369.107 97.0379 369.27 96.8182C369.433 96.5985 369.545 96.3314 369.605 96.017H371.571C371.522 96.6345 371.34 97.1818 371.026 97.6591C370.711 98.1326 370.283 98.5038 369.741 98.7727C369.2 99.0379 368.563 99.1705 367.832 99.1705ZM377.067 99.1705C376.214 99.1705 375.476 98.983 374.851 98.608C374.226 98.233 373.741 97.7083 373.396 97.0341C373.055 96.3598 372.885 95.572 372.885 94.6705C372.885 93.7689 373.055 92.9792 373.396 92.3011C373.741 91.6231 374.226 91.0966 374.851 90.7216C375.476 90.3466 376.214 90.1591 377.067 90.1591C377.919 90.1591 378.658 90.3466 379.283 90.7216C379.908 91.0966 380.391 91.6231 380.732 92.3011C381.076 92.9792 381.249 93.7689 381.249 94.6705C381.249 95.572 381.076 96.3598 380.732 97.0341C380.391 97.7083 379.908 98.233 379.283 98.608C378.658 98.983 377.919 99.1705 377.067 99.1705ZM377.078 97.5227C377.54 97.5227 377.927 97.3958 378.237 97.142C378.548 96.8845 378.779 96.5398 378.93 96.108C379.086 95.6761 379.163 95.1951 379.163 94.6648C379.163 94.1307 379.086 93.6477 378.93 93.2159C378.779 92.7803 378.548 92.4337 378.237 92.1761C377.927 91.9186 377.54 91.7898 377.078 91.7898C376.605 91.7898 376.211 91.9186 375.896 92.1761C375.586 92.4337 375.353 92.7803 375.197 93.2159C375.046 93.6477 374.97 94.1307 374.97 94.6648C374.97 95.1951 375.046 95.6761 375.197 96.108C375.353 96.5398 375.586 96.8845 375.896 97.142C376.211 97.3958 376.605 97.5227 377.078 97.5227ZM382.994 99V90.2727H384.96V91.7557H385.062C385.244 91.2557 385.545 90.8655 385.966 90.5852C386.386 90.3011 386.888 90.1591 387.472 90.1591C388.062 90.1591 388.561 90.303 388.966 90.5909C389.375 90.875 389.663 91.2633 389.83 91.7557H389.92C390.114 91.2708 390.439 90.8845 390.898 90.5966C391.36 90.3049 391.907 90.1591 392.54 90.1591C393.343 90.1591 393.998 90.4129 394.506 90.9205C395.013 91.428 395.267 92.1686 395.267 93.142V99H393.205V93.4602C393.205 92.9186 393.061 92.5227 392.773 92.2727C392.485 92.0189 392.133 91.892 391.716 91.892C391.22 91.892 390.831 92.0473 390.551 92.358C390.275 92.6648 390.136 93.0644 390.136 93.5568V99H388.119V93.375C388.119 92.9242 387.983 92.5644 387.71 92.2955C387.441 92.0265 387.089 91.892 386.653 91.892C386.358 91.892 386.089 91.9678 385.847 92.1193C385.604 92.267 385.411 92.4773 385.267 92.75C385.123 93.0189 385.051 93.3333 385.051 93.6932V99H382.994Z" fill="#A52A2A"/>
<path d="M189.173 126.273V127.864H184.013V126.273H189.173ZM185.303 135V125.449C185.303 124.862 185.424 124.373 185.667 123.983C185.913 123.593 186.243 123.301 186.656 123.108C187.068 122.915 187.527 122.818 188.031 122.818C188.387 122.818 188.703 122.847 188.979 122.903C189.256 122.96 189.46 123.011 189.593 123.057L189.184 124.648C189.097 124.621 188.987 124.595 188.854 124.568C188.722 124.538 188.574 124.523 188.411 124.523C188.029 124.523 187.758 124.616 187.599 124.801C187.443 124.983 187.366 125.244 187.366 125.585V135H185.303ZM192.998 135.176C192.445 135.176 191.947 135.078 191.504 134.881C191.064 134.68 190.716 134.384 190.458 133.994C190.204 133.604 190.077 133.123 190.077 132.551C190.077 132.059 190.168 131.652 190.35 131.33C190.532 131.008 190.78 130.75 191.094 130.557C191.409 130.364 191.763 130.218 192.157 130.119C192.555 130.017 192.966 129.943 193.39 129.898C193.901 129.845 194.316 129.797 194.634 129.756C194.952 129.71 195.183 129.642 195.327 129.551C195.475 129.456 195.549 129.311 195.549 129.114V129.08C195.549 128.652 195.422 128.32 195.168 128.085C194.915 127.85 194.549 127.733 194.072 127.733C193.568 127.733 193.168 127.843 192.873 128.062C192.581 128.282 192.384 128.542 192.282 128.841L190.362 128.568C190.513 128.038 190.763 127.595 191.112 127.239C191.46 126.879 191.886 126.61 192.39 126.432C192.894 126.25 193.451 126.159 194.06 126.159C194.481 126.159 194.899 126.208 195.316 126.307C195.733 126.405 196.113 126.568 196.458 126.795C196.803 127.019 197.079 127.324 197.288 127.71C197.5 128.097 197.606 128.58 197.606 129.159V135H195.629V133.801H195.56C195.435 134.044 195.259 134.271 195.032 134.483C194.808 134.691 194.526 134.86 194.185 134.989C193.848 135.114 193.452 135.176 192.998 135.176ZM193.532 133.665C193.945 133.665 194.303 133.583 194.606 133.42C194.909 133.254 195.142 133.034 195.305 132.761C195.471 132.489 195.555 132.191 195.555 131.869V130.841C195.49 130.894 195.38 130.943 195.225 130.989C195.074 131.034 194.903 131.074 194.714 131.108C194.524 131.142 194.337 131.172 194.151 131.199C193.966 131.225 193.805 131.248 193.668 131.267C193.362 131.309 193.087 131.377 192.844 131.472C192.602 131.566 192.411 131.699 192.271 131.869C192.13 132.036 192.06 132.252 192.06 132.517C192.06 132.896 192.199 133.182 192.475 133.375C192.752 133.568 193.104 133.665 193.532 133.665ZM203.481 135.17C202.61 135.17 201.862 134.979 201.237 134.597C200.615 134.214 200.136 133.686 199.799 133.011C199.466 132.333 199.299 131.553 199.299 130.67C199.299 129.784 199.469 129.002 199.81 128.324C200.151 127.642 200.632 127.112 201.254 126.733C201.879 126.35 202.617 126.159 203.469 126.159C204.178 126.159 204.805 126.29 205.35 126.551C205.899 126.809 206.337 127.174 206.663 127.648C206.988 128.117 207.174 128.667 207.219 129.295H205.254C205.174 128.875 204.985 128.525 204.685 128.244C204.39 127.96 203.994 127.818 203.498 127.818C203.077 127.818 202.708 127.932 202.39 128.159C202.072 128.383 201.824 128.705 201.646 129.125C201.471 129.545 201.384 130.049 201.384 130.636C201.384 131.231 201.471 131.742 201.646 132.17C201.82 132.595 202.064 132.922 202.379 133.153C202.697 133.381 203.07 133.494 203.498 133.494C203.801 133.494 204.072 133.437 204.31 133.324C204.553 133.206 204.755 133.038 204.918 132.818C205.081 132.598 205.193 132.331 205.254 132.017H207.219C207.17 132.634 206.988 133.182 206.674 133.659C206.36 134.133 205.932 134.504 205.39 134.773C204.848 135.038 204.212 135.17 203.481 135.17ZM212.772 135.17C211.897 135.17 211.141 134.989 210.505 134.625C209.872 134.258 209.386 133.739 209.045 133.068C208.704 132.394 208.533 131.6 208.533 130.688C208.533 129.79 208.704 129.002 209.045 128.324C209.389 127.642 209.871 127.112 210.488 126.733C211.105 126.35 211.831 126.159 212.664 126.159C213.202 126.159 213.71 126.246 214.187 126.42C214.668 126.591 215.092 126.856 215.46 127.216C215.831 127.576 216.122 128.034 216.335 128.591C216.547 129.144 216.653 129.803 216.653 130.568V131.199H209.499V129.812H214.681C214.677 129.419 214.592 129.068 214.425 128.761C214.259 128.451 214.026 128.206 213.727 128.028C213.431 127.85 213.086 127.761 212.692 127.761C212.272 127.761 211.903 127.864 211.585 128.068C211.266 128.269 211.018 128.534 210.84 128.864C210.666 129.189 210.577 129.547 210.573 129.938V131.148C210.573 131.655 210.666 132.091 210.852 132.455C211.037 132.814 211.297 133.091 211.63 133.284C211.963 133.473 212.353 133.568 212.8 133.568C213.1 133.568 213.371 133.527 213.613 133.443C213.855 133.356 214.066 133.229 214.244 133.062C214.422 132.896 214.556 132.689 214.647 132.443L216.567 132.659C216.446 133.167 216.215 133.61 215.874 133.989C215.537 134.364 215.105 134.655 214.579 134.864C214.052 135.068 213.45 135.17 212.772 135.17ZM218.484 135V123.364H220.54V127.716H220.626C220.732 127.504 220.881 127.278 221.075 127.04C221.268 126.797 221.529 126.591 221.859 126.42C222.188 126.246 222.609 126.159 223.12 126.159C223.794 126.159 224.402 126.331 224.944 126.676C225.489 127.017 225.921 127.523 226.239 128.193C226.561 128.86 226.722 129.678 226.722 130.648C226.722 131.606 226.565 132.42 226.251 133.091C225.936 133.761 225.508 134.273 224.967 134.625C224.425 134.977 223.811 135.153 223.126 135.153C222.626 135.153 222.211 135.07 221.881 134.903C221.552 134.737 221.287 134.536 221.086 134.301C220.889 134.062 220.736 133.837 220.626 133.625H220.506V135H218.484ZM220.501 130.636C220.501 131.201 220.58 131.695 220.739 132.119C220.902 132.544 221.135 132.875 221.438 133.114C221.745 133.348 222.116 133.466 222.552 133.466C223.006 133.466 223.387 133.345 223.694 133.102C224.001 132.856 224.232 132.521 224.387 132.097C224.546 131.669 224.626 131.182 224.626 130.636C224.626 130.095 224.548 129.614 224.393 129.193C224.237 128.773 224.006 128.443 223.7 128.205C223.393 127.966 223.01 127.847 222.552 127.847C222.112 127.847 221.739 127.962 221.433 128.193C221.126 128.424 220.893 128.748 220.734 129.165C220.578 129.581 220.501 130.072 220.501 130.636ZM232.278 135.17C231.425 135.17 230.687 134.983 230.062 134.608C229.437 134.233 228.952 133.708 228.607 133.034C228.266 132.36 228.096 131.572 228.096 130.67C228.096 129.769 228.266 128.979 228.607 128.301C228.952 127.623 229.437 127.097 230.062 126.722C230.687 126.347 231.425 126.159 232.278 126.159C233.13 126.159 233.869 126.347 234.494 126.722C235.119 127.097 235.602 127.623 235.942 128.301C236.287 128.979 236.46 129.769 236.46 130.67C236.46 131.572 236.287 132.36 235.942 133.034C235.602 133.708 235.119 134.233 234.494 134.608C233.869 134.983 233.13 135.17 232.278 135.17ZM232.289 133.523C232.751 133.523 233.138 133.396 233.448 133.142C233.759 132.884 233.99 132.54 234.141 132.108C234.297 131.676 234.374 131.195 234.374 130.665C234.374 130.131 234.297 129.648 234.141 129.216C233.99 128.78 233.759 128.434 233.448 128.176C233.138 127.919 232.751 127.79 232.289 127.79C231.816 127.79 231.422 127.919 231.107 128.176C230.797 128.434 230.564 128.78 230.408 129.216C230.257 129.648 230.181 130.131 230.181 130.665C230.181 131.195 230.257 131.676 230.408 132.108C230.564 132.54 230.797 132.884 231.107 133.142C231.422 133.396 231.816 133.523 232.289 133.523ZM242.012 135.17C241.16 135.17 240.421 134.983 239.796 134.608C239.171 134.233 238.686 133.708 238.342 133.034C238.001 132.36 237.83 131.572 237.83 130.67C237.83 129.769 238.001 128.979 238.342 128.301C238.686 127.623 239.171 127.097 239.796 126.722C240.421 126.347 241.16 126.159 242.012 126.159C242.864 126.159 243.603 126.347 244.228 126.722C244.853 127.097 245.336 127.623 245.677 128.301C246.022 128.979 246.194 129.769 246.194 130.67C246.194 131.572 246.022 132.36 245.677 133.034C245.336 133.708 244.853 134.233 244.228 134.608C243.603 134.983 242.864 135.17 242.012 135.17ZM242.023 133.523C242.486 133.523 242.872 133.396 243.183 133.142C243.493 132.884 243.724 132.54 243.876 132.108C244.031 131.676 244.109 131.195 244.109 130.665C244.109 130.131 244.031 129.648 243.876 129.216C243.724 128.78 243.493 128.434 243.183 128.176C242.872 127.919 242.486 127.79 242.023 127.79C241.55 127.79 241.156 127.919 240.842 128.176C240.531 128.434 240.298 128.78 240.143 129.216C239.991 129.648 239.915 130.131 239.915 130.665C239.915 131.195 239.991 131.676 240.143 132.108C240.298 132.54 240.531 132.884 240.842 133.142C241.156 133.396 241.55 133.523 242.023 133.523ZM249.815 132.261L249.809 129.778H250.138L253.275 126.273H255.678L251.82 130.568H251.394L249.815 132.261ZM247.94 135V123.364H249.996V135H247.94ZM253.417 135L250.576 131.028L251.962 129.58L255.877 135H253.417ZM258.316 135.125C257.971 135.125 257.676 135.004 257.43 134.761C257.183 134.519 257.062 134.223 257.066 133.875C257.062 133.534 257.183 133.242 257.43 133C257.676 132.758 257.971 132.636 258.316 132.636C258.649 132.636 258.939 132.758 259.185 133C259.435 133.242 259.562 133.534 259.566 133.875C259.562 134.106 259.502 134.316 259.384 134.506C259.271 134.695 259.119 134.847 258.93 134.96C258.744 135.07 258.54 135.125 258.316 135.125ZM265.496 135.17C264.625 135.17 263.877 134.979 263.252 134.597C262.631 134.214 262.152 133.686 261.815 133.011C261.481 132.333 261.315 131.553 261.315 130.67C261.315 129.784 261.485 129.002 261.826 128.324C262.167 127.642 262.648 127.112 263.269 126.733C263.894 126.35 264.633 126.159 265.485 126.159C266.193 126.159 266.82 126.29 267.366 126.551C267.915 126.809 268.353 127.174 268.678 127.648C269.004 128.117 269.19 128.667 269.235 129.295H267.269C267.19 128.875 267 128.525 266.701 128.244C266.406 127.96 266.01 127.818 265.513 127.818C265.093 127.818 264.724 127.932 264.406 128.159C264.087 128.383 263.839 128.705 263.661 129.125C263.487 129.545 263.4 130.049 263.4 130.636C263.4 131.231 263.487 131.742 263.661 132.17C263.835 132.595 264.08 132.922 264.394 133.153C264.712 133.381 265.085 133.494 265.513 133.494C265.817 133.494 266.087 133.437 266.326 133.324C266.568 133.206 266.771 133.038 266.934 132.818C267.097 132.598 267.209 132.331 267.269 132.017H269.235C269.186 132.634 269.004 133.182 268.69 133.659C268.375 134.133 267.947 134.504 267.406 134.773C266.864 135.038 266.228 135.17 265.496 135.17ZM274.731 135.17C273.879 135.17 273.14 134.983 272.515 134.608C271.89 134.233 271.405 133.708 271.06 133.034C270.719 132.36 270.549 131.572 270.549 130.67C270.549 129.769 270.719 128.979 271.06 128.301C271.405 127.623 271.89 127.097 272.515 126.722C273.14 126.347 273.879 126.159 274.731 126.159C275.583 126.159 276.322 126.347 276.947 126.722C277.572 127.097 278.055 127.623 278.396 128.301C278.74 128.979 278.913 129.769 278.913 130.67C278.913 131.572 278.74 132.36 278.396 133.034C278.055 133.708 277.572 134.233 276.947 134.608C276.322 134.983 275.583 135.17 274.731 135.17ZM274.742 133.523C275.204 133.523 275.591 133.396 275.901 133.142C276.212 132.884 276.443 132.54 276.594 132.108C276.75 131.676 276.827 131.195 276.827 130.665C276.827 130.131 276.75 129.648 276.594 129.216C276.443 128.78 276.212 128.434 275.901 128.176C275.591 127.919 275.204 127.79 274.742 127.79C274.269 127.79 273.875 127.919 273.56 128.176C273.25 128.434 273.017 128.78 272.862 129.216C272.71 129.648 272.634 130.131 272.634 130.665C272.634 131.195 272.71 131.676 272.862 132.108C273.017 132.54 273.25 132.884 273.56 133.142C273.875 133.396 274.269 133.523 274.742 133.523ZM280.658 135V126.273H282.624V127.756H282.727C282.908 127.256 283.21 126.866 283.63 126.585C284.05 126.301 284.552 126.159 285.136 126.159C285.727 126.159 286.225 126.303 286.63 126.591C287.039 126.875 287.327 127.263 287.494 127.756H287.585C287.778 127.271 288.103 126.884 288.562 126.597C289.024 126.305 289.571 126.159 290.204 126.159C291.007 126.159 291.662 126.413 292.17 126.92C292.677 127.428 292.931 128.169 292.931 129.142V135H290.869V129.46C290.869 128.919 290.725 128.523 290.437 128.273C290.149 128.019 289.797 127.892 289.38 127.892C288.884 127.892 288.496 128.047 288.215 128.358C287.939 128.665 287.8 129.064 287.8 129.557V135H285.783V129.375C285.783 128.924 285.647 128.564 285.374 128.295C285.105 128.027 284.753 127.892 284.317 127.892C284.022 127.892 283.753 127.968 283.511 128.119C283.268 128.267 283.075 128.477 282.931 128.75C282.787 129.019 282.715 129.333 282.715 129.693V135H280.658ZM299.768 122.818L296.018 136.75H294.217L297.967 122.818H299.768ZM304.887 135.17C304.035 135.17 303.296 134.983 302.671 134.608C302.046 134.233 301.561 133.708 301.217 133.034C300.876 132.36 300.705 131.572 300.705 130.67C300.705 129.769 300.876 128.979 301.217 128.301C301.561 127.623 302.046 127.097 302.671 126.722C303.296 126.347 304.035 126.159 304.887 126.159C305.739 126.159 306.478 126.347 307.103 126.722C307.728 127.097 308.211 127.623 308.552 128.301C308.897 128.979 309.069 129.769 309.069 130.67C309.069 131.572 308.897 132.36 308.552 133.034C308.211 133.708 307.728 134.233 307.103 134.608C306.478 134.983 305.739 135.17 304.887 135.17ZM304.898 133.523C305.361 133.523 305.747 133.396 306.058 133.142C306.368 132.884 306.599 132.54 306.751 132.108C306.906 131.676 306.984 131.195 306.984 130.665C306.984 130.131 306.906 129.648 306.751 129.216C306.599 128.78 306.368 128.434 306.058 128.176C305.747 127.919 305.361 127.79 304.898 127.79C304.425 127.79 304.031 127.919 303.717 128.176C303.406 128.434 303.173 128.78 303.018 129.216C302.866 129.648 302.79 130.131 302.79 130.665C302.79 131.195 302.866 131.676 303.018 132.108C303.173 132.54 303.406 132.884 303.717 133.142C304.031 133.396 304.425 133.523 304.898 133.523ZM315.173 126.273V127.864H310.156V126.273H315.173ZM311.394 124.182H313.451V132.375C313.451 132.652 313.493 132.864 313.576 133.011C313.663 133.155 313.777 133.254 313.917 133.307C314.057 133.36 314.212 133.386 314.383 133.386C314.512 133.386 314.629 133.377 314.735 133.358C314.845 133.339 314.928 133.322 314.985 133.307L315.332 134.915C315.222 134.953 315.065 134.994 314.86 135.04C314.659 135.085 314.413 135.112 314.121 135.119C313.606 135.134 313.142 135.057 312.729 134.886C312.317 134.712 311.989 134.443 311.746 134.08C311.508 133.716 311.39 133.261 311.394 132.716V124.182ZM321.251 126.273V127.864H316.234V126.273H321.251ZM317.472 124.182H319.529V132.375C319.529 132.652 319.571 132.864 319.654 133.011C319.741 133.155 319.855 133.254 319.995 133.307C320.135 133.36 320.29 133.386 320.461 133.386C320.59 133.386 320.707 133.377 320.813 133.358C320.923 133.339 321.006 133.322 321.063 133.307L321.41 134.915C321.3 134.953 321.143 134.994 320.938 135.04C320.737 135.085 320.491 135.112 320.2 135.119C319.684 135.134 319.22 135.057 318.808 134.886C318.395 134.712 318.067 134.443 317.825 134.08C317.586 133.716 317.469 133.261 317.472 132.716V124.182ZM326.684 135.17C325.832 135.17 325.093 134.983 324.468 134.608C323.843 134.233 323.358 133.708 323.013 133.034C322.673 132.36 322.502 131.572 322.502 130.67C322.502 129.769 322.673 128.979 323.013 128.301C323.358 127.623 323.843 127.097 324.468 126.722C325.093 126.347 325.832 126.159 326.684 126.159C327.536 126.159 328.275 126.347 328.9 126.722C329.525 127.097 330.008 127.623 330.349 128.301C330.693 128.979 330.866 129.769 330.866 130.67C330.866 131.572 330.693 132.36 330.349 133.034C330.008 133.708 329.525 134.233 328.9 134.608C328.275 134.983 327.536 135.17 326.684 135.17ZM326.695 133.523C327.157 133.523 327.544 133.396 327.854 133.142C328.165 132.884 328.396 132.54 328.548 132.108C328.703 131.676 328.781 131.195 328.781 130.665C328.781 130.131 328.703 129.648 328.548 129.216C328.396 128.78 328.165 128.434 327.854 128.176C327.544 127.919 327.157 127.79 326.695 127.79C326.222 127.79 325.828 127.919 325.513 128.176C325.203 128.434 324.97 128.78 324.815 129.216C324.663 129.648 324.587 130.131 324.587 130.665C324.587 131.195 324.663 131.676 324.815 132.108C324.97 132.54 325.203 132.884 325.513 133.142C325.828 133.396 326.222 133.523 326.695 133.523ZM332.612 135V126.273H334.577V127.756H334.68C334.862 127.256 335.163 126.866 335.583 126.585C336.004 126.301 336.505 126.159 337.089 126.159C337.68 126.159 338.178 126.303 338.583 126.591C338.992 126.875 339.28 127.263 339.447 127.756H339.538C339.731 127.271 340.057 126.884 340.515 126.597C340.977 126.305 341.524 126.159 342.157 126.159C342.96 126.159 343.615 126.413 344.123 126.92C344.63 127.428 344.884 128.169 344.884 129.142V135H342.822V129.46C342.822 128.919 342.678 128.523 342.39 128.273C342.102 128.019 341.75 127.892 341.333 127.892C340.837 127.892 340.449 128.047 340.168 128.358C339.892 128.665 339.754 129.064 339.754 129.557V135H337.737V129.375C337.737 128.924 337.6 128.564 337.327 128.295C337.058 128.027 336.706 127.892 336.271 127.892C335.975 127.892 335.706 127.968 335.464 128.119C335.221 128.267 335.028 128.477 334.884 128.75C334.74 129.019 334.668 129.333 334.668 129.693V135H332.612ZM349.482 135.176C348.929 135.176 348.431 135.078 347.988 134.881C347.549 134.68 347.2 134.384 346.942 133.994C346.689 133.604 346.562 133.123 346.562 132.551C346.562 132.059 346.653 131.652 346.835 131.33C347.016 131.008 347.264 130.75 347.579 130.557C347.893 130.364 348.247 130.218 348.641 130.119C349.039 130.017 349.45 129.943 349.874 129.898C350.386 129.845 350.8 129.797 351.119 129.756C351.437 129.71 351.668 129.642 351.812 129.551C351.96 129.456 352.033 129.311 352.033 129.114V129.08C352.033 128.652 351.906 128.32 351.653 128.085C351.399 127.85 351.033 127.733 350.556 127.733C350.052 127.733 349.653 127.843 349.357 128.062C349.066 128.282 348.869 128.542 348.766 128.841L346.846 128.568C346.997 128.038 347.247 127.595 347.596 127.239C347.944 126.879 348.371 126.61 348.874 126.432C349.378 126.25 349.935 126.159 350.545 126.159C350.965 126.159 351.384 126.208 351.8 126.307C352.217 126.405 352.598 126.568 352.942 126.795C353.287 127.019 353.564 127.324 353.772 127.71C353.984 128.097 354.09 128.58 354.09 129.159V135H352.113V133.801H352.045C351.92 134.044 351.744 134.271 351.516 134.483C351.293 134.691 351.011 134.86 350.67 134.989C350.333 135.114 349.937 135.176 349.482 135.176ZM350.016 133.665C350.429 133.665 350.787 133.583 351.09 133.42C351.393 133.254 351.626 133.034 351.789 132.761C351.956 132.489 352.039 132.191 352.039 131.869V130.841C351.975 130.894 351.865 130.943 351.71 130.989C351.558 131.034 351.388 131.074 351.198 131.108C351.009 131.142 350.821 131.172 350.636 131.199C350.45 131.225 350.289 131.248 350.153 131.267C349.846 131.309 349.571 131.377 349.329 131.472C349.086 131.566 348.895 131.699 348.755 131.869C348.615 132.036 348.545 132.252 348.545 132.517C348.545 132.896 348.683 133.182 348.96 133.375C349.236 133.568 349.588 133.665 350.016 133.665ZM358.215 129.886V135H356.158V126.273H358.124V127.756H358.227C358.427 127.267 358.747 126.879 359.187 126.591C359.63 126.303 360.177 126.159 360.829 126.159C361.431 126.159 361.956 126.288 362.403 126.545C362.853 126.803 363.202 127.176 363.448 127.665C363.698 128.153 363.821 128.746 363.817 129.443V135H361.761V129.761C361.761 129.178 361.609 128.722 361.306 128.392C361.007 128.062 360.592 127.898 360.062 127.898C359.702 127.898 359.382 127.977 359.102 128.136C358.825 128.292 358.607 128.517 358.448 128.812C358.293 129.108 358.215 129.466 358.215 129.886ZM369.147 135.153C368.461 135.153 367.848 134.977 367.306 134.625C366.764 134.273 366.336 133.761 366.022 133.091C365.708 132.42 365.55 131.606 365.55 130.648C365.55 129.678 365.71 128.86 366.028 128.193C366.35 127.523 366.783 127.017 367.329 126.676C367.874 126.331 368.482 126.159 369.153 126.159C369.664 126.159 370.085 126.246 370.414 126.42C370.744 126.591 371.005 126.797 371.198 127.04C371.391 127.278 371.541 127.504 371.647 127.716H371.732V123.364H373.795V135H371.772V133.625H371.647C371.541 133.837 371.388 134.062 371.187 134.301C370.986 134.536 370.721 134.737 370.391 134.903C370.062 135.07 369.647 135.153 369.147 135.153ZM369.721 133.466C370.156 133.466 370.528 133.348 370.835 133.114C371.141 132.875 371.374 132.544 371.533 132.119C371.692 131.695 371.772 131.201 371.772 130.636C371.772 130.072 371.692 129.581 371.533 129.165C371.378 128.748 371.147 128.424 370.84 128.193C370.537 127.962 370.164 127.847 369.721 127.847C369.263 127.847 368.88 127.966 368.573 128.205C368.266 128.443 368.035 128.773 367.88 129.193C367.725 129.614 367.647 130.095 367.647 130.636C367.647 131.182 367.725 131.669 367.88 132.097C368.039 132.521 368.272 132.856 368.579 133.102C368.889 133.345 369.27 133.466 369.721 133.466ZM379.85 135.17C378.975 135.17 378.219 134.989 377.583 134.625C376.951 134.258 376.464 133.739 376.123 133.068C375.782 132.394 375.612 131.6 375.612 130.688C375.612 129.79 375.782 129.002 376.123 128.324C376.468 127.642 376.949 127.112 377.566 126.733C378.183 126.35 378.909 126.159 379.742 126.159C380.28 126.159 380.788 126.246 381.265 126.42C381.746 126.591 382.17 126.856 382.538 127.216C382.909 127.576 383.201 128.034 383.413 128.591C383.625 129.144 383.731 129.803 383.731 130.568V131.199H376.577V129.812H381.759C381.755 129.419 381.67 129.068 381.504 128.761C381.337 128.451 381.104 128.206 380.805 128.028C380.509 127.85 380.165 127.761 379.771 127.761C379.35 127.761 378.981 127.864 378.663 128.068C378.344 128.269 378.096 128.534 377.918 128.864C377.744 129.189 377.655 129.547 377.651 129.938V131.148C377.651 131.655 377.744 132.091 377.93 132.455C378.115 132.814 378.375 133.091 378.708 133.284C379.041 133.473 379.432 133.568 379.879 133.568C380.178 133.568 380.449 133.527 380.691 133.443C380.933 133.356 381.144 133.229 381.322 133.062C381.5 132.896 381.634 132.689 381.725 132.443L383.646 132.659C383.524 133.167 383.293 133.61 382.952 133.989C382.615 134.364 382.183 134.655 381.657 134.864C381.13 135.068 380.528 135.17 379.85 135.17ZM387.528 123.364V135H385.471V123.364H387.528ZM389.643 135V126.273H391.7V135H389.643ZM390.677 125.034C390.351 125.034 390.071 124.926 389.836 124.71C389.601 124.491 389.484 124.227 389.484 123.92C389.484 123.61 389.601 123.347 389.836 123.131C390.071 122.911 390.351 122.801 390.677 122.801C391.006 122.801 391.287 122.911 391.518 123.131C391.753 123.347 391.87 123.61 391.87 123.92C391.87 124.227 391.753 124.491 391.518 124.71C391.287 124.926 391.006 125.034 390.677 125.034ZM397.61 138.455C396.871 138.455 396.237 138.354 395.707 138.153C395.176 137.956 394.75 137.691 394.428 137.358C394.106 137.025 393.883 136.655 393.758 136.25L395.61 135.801C395.693 135.972 395.815 136.14 395.974 136.307C396.133 136.477 396.347 136.617 396.616 136.727C396.888 136.841 397.231 136.898 397.644 136.898C398.228 136.898 398.71 136.756 399.093 136.472C399.476 136.191 399.667 135.729 399.667 135.085V133.432H399.565C399.459 133.644 399.303 133.862 399.099 134.085C398.898 134.309 398.631 134.496 398.298 134.648C397.968 134.799 397.553 134.875 397.053 134.875C396.383 134.875 395.775 134.718 395.229 134.403C394.688 134.085 394.256 133.612 393.934 132.983C393.616 132.35 393.457 131.559 393.457 130.608C393.457 129.65 393.616 128.841 393.934 128.182C394.256 127.519 394.69 127.017 395.235 126.676C395.781 126.331 396.388 126.159 397.059 126.159C397.57 126.159 397.991 126.246 398.32 126.42C398.654 126.591 398.919 126.797 399.116 127.04C399.313 127.278 399.462 127.504 399.565 127.716H399.678V126.273H401.707V135.142C401.707 135.888 401.529 136.506 401.173 136.994C400.817 137.483 400.33 137.848 399.712 138.091C399.095 138.333 398.394 138.455 397.61 138.455ZM397.627 133.261C398.063 133.261 398.434 133.155 398.741 132.943C399.048 132.731 399.281 132.426 399.44 132.028C399.599 131.631 399.678 131.153 399.678 130.597C399.678 130.047 399.599 129.566 399.44 129.153C399.284 128.741 399.053 128.42 398.746 128.193C398.443 127.962 398.07 127.847 397.627 127.847C397.169 127.847 396.786 127.966 396.479 128.205C396.173 128.443 395.942 128.771 395.786 129.188C395.631 129.6 395.553 130.07 395.553 130.597C395.553 131.131 395.631 131.598 395.786 132C395.945 132.398 396.178 132.708 396.485 132.932C396.796 133.152 397.176 133.261 397.627 133.261ZM405.871 129.886V135H403.815V123.364H405.826V127.756H405.928C406.133 127.263 406.449 126.875 406.877 126.591C407.309 126.303 407.858 126.159 408.525 126.159C409.131 126.159 409.659 126.286 410.11 126.54C410.561 126.794 410.909 127.165 411.156 127.653C411.406 128.142 411.531 128.739 411.531 129.443V135H409.474V129.761C409.474 129.174 409.322 128.718 409.019 128.392C408.72 128.062 408.299 127.898 407.758 127.898C407.394 127.898 407.068 127.977 406.781 128.136C406.496 128.292 406.273 128.517 406.11 128.812C405.951 129.108 405.871 129.466 405.871 129.886ZM417.985 126.273V127.864H412.968V126.273H417.985ZM414.207 124.182H416.263V132.375C416.263 132.652 416.305 132.864 416.388 133.011C416.476 133.155 416.589 133.254 416.729 133.307C416.87 133.36 417.025 133.386 417.195 133.386C417.324 133.386 417.442 133.377 417.548 133.358C417.657 133.339 417.741 133.322 417.798 133.307L418.144 134.915C418.034 134.953 417.877 134.994 417.673 135.04C417.472 135.085 417.226 135.112 416.934 135.119C416.419 135.134 415.955 135.057 415.542 134.886C415.129 134.712 414.801 134.443 414.559 134.08C414.32 133.716 414.203 133.261 414.207 132.716V124.182ZM426.478 128.58L424.603 128.784C424.55 128.595 424.457 128.417 424.325 128.25C424.196 128.083 424.022 127.949 423.802 127.847C423.582 127.744 423.313 127.693 422.995 127.693C422.567 127.693 422.207 127.786 421.915 127.972C421.628 128.157 421.486 128.398 421.489 128.693C421.486 128.947 421.578 129.153 421.768 129.312C421.961 129.472 422.279 129.602 422.722 129.705L424.211 130.023C425.037 130.201 425.65 130.483 426.052 130.869C426.457 131.256 426.662 131.761 426.665 132.386C426.662 132.936 426.501 133.42 426.183 133.841C425.868 134.258 425.431 134.583 424.87 134.818C424.309 135.053 423.665 135.17 422.938 135.17C421.87 135.17 421.01 134.947 420.359 134.5C419.707 134.049 419.319 133.422 419.194 132.619L421.2 132.426C421.29 132.82 421.484 133.117 421.779 133.318C422.075 133.519 422.459 133.619 422.933 133.619C423.421 133.619 423.813 133.519 424.109 133.318C424.408 133.117 424.558 132.869 424.558 132.574C424.558 132.324 424.461 132.117 424.268 131.955C424.078 131.792 423.783 131.667 423.381 131.58L421.893 131.267C421.056 131.093 420.436 130.799 420.035 130.386C419.633 129.97 419.434 129.443 419.438 128.807C419.434 128.269 419.58 127.803 419.876 127.409C420.175 127.011 420.59 126.705 421.12 126.489C421.654 126.269 422.27 126.159 422.967 126.159C423.989 126.159 424.794 126.377 425.381 126.812C425.972 127.248 426.338 127.837 426.478 128.58Z" fill="#A52A2A"/>
<path d="M146.857 119.25C145.281 119.25 144 120.371 144 121.75V134.25C144 135.629 145.281 136.75 146.857 136.75H151.241V131.055H148.884V128H151.241V126.684C151.241 123.281 153 121.703 156.821 121.703C157.545 121.703 158.795 121.828 159.308 121.953V124.719C159.04 124.695 158.571 124.68 157.987 124.68C156.112 124.68 155.388 125.301 155.388 126.914V128H159.121L158.478 131.055H155.384V136.75H161.143C162.719 136.75 164 135.629 164 134.25V121.75C164 120.371 162.719 119.25 161.143 119.25H146.857Z" fill="#A52A2A"/>
</svg>
