<svg width="530" height="149" viewBox="0 0 530 149" fill="none" xmlns="http://www.w3.org/2000/svg">
<rect width="530" height="149" fill="#F5F5F5"/>
<path d="M0 2C0 0.895435 0.895431 0 2 0H528C529.105 0 530 0.895431 530 2V147C530 148.105 529.105 149 528 149H1.99999C0.895423 149 0 148.105 0 147V2Z" fill="white"/>
<path d="M2 1H528V-1H2V1ZM529 2V147H531V2H529ZM528 148H1.99999V150H528V148ZM1 147V2H-1V147H1ZM1.99999 148C1.44771 148 1 147.552 1 147H-1C-1 148.657 0.343133 150 1.99999 150V148ZM529 147C529 147.552 528.552 148 528 148V150C529.657 150 531 148.657 531 147H529ZM528 1C528.552 1 529 1.44771 529 2H531C531 0.343151 529.657 -1 528 -1V1ZM2 -1C0.343143 -1 -1 0.343153 -1 2H1C1 1.44772 1.44772 1 2 1V-1Z" fill="black" fill-opacity="0.1"/>
<rect width="530" height="40" fill="#A52A2A"/>
<rect y="40" width="125" height="109" fill="#A52A2A"/>
<path d="M29.6712 26V14.3636H31.7791V24.233H36.9041V26H29.6712ZM42.4496 26.1705C41.5973 26.1705 40.8587 25.983 40.2337 25.608C39.6087 25.233 39.1238 24.7083 38.7791 24.0341C38.4382 23.3598 38.2678 22.572 38.2678 21.6705C38.2678 20.7689 38.4382 19.9792 38.7791 19.3011C39.1238 18.6231 39.6087 18.0966 40.2337 17.7216C40.8587 17.3466 41.5973 17.1591 42.4496 17.1591C43.3018 17.1591 44.0405 17.3466 44.6655 17.7216C45.2905 18.0966 45.7734 18.6231 46.1143 19.3011C46.459 19.9792 46.6314 20.7689 46.6314 21.6705C46.6314 22.572 46.459 23.3598 46.1143 24.0341C45.7734 24.7083 45.2905 25.233 44.6655 25.608C44.0405 25.983 43.3018 26.1705 42.4496 26.1705ZM42.4609 24.5227C42.9231 24.5227 43.3094 24.3958 43.62 24.142C43.9306 23.8845 44.1617 23.5398 44.3132 23.108C44.4685 22.6761 44.5462 22.1951 44.5462 21.6648C44.5462 21.1307 44.4685 20.6477 44.3132 20.2159C44.1617 19.7803 43.9306 19.4337 43.62 19.1761C43.3094 18.9186 42.9231 18.7898 42.4609 18.7898C41.9875 18.7898 41.5935 18.9186 41.2791 19.1761C40.9685 19.4337 40.7356 19.7803 40.5803 20.2159C40.4287 20.6477 40.353 21.1307 40.353 21.6648C40.353 22.1951 40.4287 22.6761 40.5803 23.108C40.7356 23.5398 40.9685 23.8845 41.2791 24.142C41.5935 24.3958 41.9875 24.5227 42.4609 24.5227ZM52.1839 26.1705C51.3127 26.1705 50.5646 25.9792 49.9396 25.5966C49.3184 25.214 48.8393 24.6856 48.5021 24.0114C48.1688 23.3333 48.0021 22.553 48.0021 21.6705C48.0021 20.7841 48.1726 20.0019 48.5135 19.3239C48.8544 18.642 49.3355 18.1117 49.9567 17.733C50.5817 17.3504 51.3203 17.1591 52.1726 17.1591C52.8809 17.1591 53.5078 17.2898 54.0533 17.5511C54.6025 17.8087 55.04 18.1742 55.3658 18.6477C55.6915 19.1174 55.8771 19.6667 55.9226 20.2955H53.9567C53.8771 19.875 53.6877 19.5246 53.3885 19.2443C53.093 18.9602 52.6972 18.8182 52.201 18.8182C51.7805 18.8182 51.4112 18.9318 51.093 19.1591C50.7749 19.3826 50.5268 19.7045 50.3487 20.125C50.1745 20.5455 50.0874 21.0492 50.0874 21.6364C50.0874 22.2311 50.1745 22.7424 50.3487 23.1705C50.523 23.5947 50.7673 23.9223 51.0817 24.1534C51.3999 24.3807 51.773 24.4943 52.201 24.4943C52.504 24.4943 52.7749 24.4375 53.0135 24.3239C53.2559 24.2064 53.4586 24.0379 53.6214 23.8182C53.7843 23.5985 53.8961 23.3314 53.9567 23.017H55.9226C55.8733 23.6345 55.6915 24.1818 55.3771 24.6591C55.0627 25.1326 54.6347 25.5038 54.093 25.7727C53.5514 26.0379 52.915 26.1705 52.1839 26.1705ZM60.1229 26.1761C59.5698 26.1761 59.0717 26.0777 58.6286 25.8807C58.1892 25.6799 57.8407 25.3845 57.5831 24.9943C57.3293 24.6042 57.2024 24.1231 57.2024 23.5511C57.2024 23.0587 57.2933 22.6515 57.4751 22.3295C57.657 22.0076 57.9051 21.75 58.2195 21.5568C58.5339 21.3636 58.888 21.2178 59.282 21.1193C59.6797 21.017 60.0907 20.9432 60.5149 20.8977C61.0263 20.8447 61.4411 20.7973 61.7592 20.7557C62.0774 20.7102 62.3085 20.642 62.4524 20.5511C62.6001 20.4564 62.674 20.3106 62.674 20.1136V20.0795C62.674 19.6515 62.5471 19.3201 62.2933 19.0852C62.0395 18.8504 61.674 18.733 61.1967 18.733C60.6929 18.733 60.2933 18.8428 59.9979 19.0625C59.7062 19.2822 59.5092 19.5417 59.407 19.8409L57.4865 19.5682C57.638 19.0379 57.888 18.5947 58.2365 18.2386C58.585 17.8788 59.0111 17.6098 59.5149 17.4318C60.0187 17.25 60.5755 17.1591 61.1854 17.1591C61.6058 17.1591 62.0244 17.2083 62.4411 17.3068C62.8577 17.4053 63.2384 17.5682 63.5831 17.7955C63.9278 18.0189 64.2043 18.3239 64.4126 18.7102C64.6248 19.0966 64.7308 19.5795 64.7308 20.1591V26H62.7536V24.8011H62.6854C62.5604 25.0436 62.3842 25.2708 62.157 25.483C61.9335 25.6913 61.6513 25.8598 61.3104 25.9886C60.9732 26.1136 60.5774 26.1761 60.1229 26.1761ZM60.657 24.6648C61.0698 24.6648 61.4278 24.5833 61.7308 24.4205C62.0339 24.2538 62.2668 24.0341 62.4297 23.7614C62.5964 23.4886 62.6797 23.1913 62.6797 22.8693V21.8409C62.6153 21.8939 62.5054 21.9432 62.3501 21.9886C62.1986 22.0341 62.0282 22.0739 61.8388 22.108C61.6494 22.142 61.4619 22.1723 61.2763 22.1989C61.0907 22.2254 60.9297 22.2481 60.7933 22.267C60.4865 22.3087 60.2119 22.3769 59.9695 22.4716C59.727 22.5663 59.5357 22.6989 59.3956 22.8693C59.2554 23.036 59.1854 23.2519 59.1854 23.517C59.1854 23.8958 59.3236 24.1818 59.6001 24.375C59.8767 24.5682 60.2289 24.6648 60.657 24.6648ZM71.157 17.2727V18.8636H66.1399V17.2727H71.157ZM67.3786 15.1818H69.4354V23.375C69.4354 23.6515 69.477 23.8636 69.5604 24.0114C69.6475 24.1553 69.7611 24.2538 69.9013 24.3068C70.0414 24.3598 70.1967 24.3864 70.3672 24.3864C70.496 24.3864 70.6134 24.3769 70.7195 24.358C70.8293 24.339 70.9126 24.322 70.9695 24.3068L71.3161 25.9148C71.2062 25.9527 71.049 25.9943 70.8445 26.0398C70.6437 26.0852 70.3975 26.1117 70.1058 26.1193C69.5907 26.1345 69.1267 26.0568 68.7138 25.8864C68.3009 25.7121 67.9732 25.4432 67.7308 25.0795C67.4922 24.7159 67.3748 24.2614 67.3786 23.7159V15.1818ZM72.8771 26V17.2727H74.9339V26H72.8771ZM73.9112 16.0341C73.5855 16.0341 73.3052 15.9261 73.0703 15.7102C72.8355 15.4905 72.718 15.2273 72.718 14.9205C72.718 14.6098 72.8355 14.3466 73.0703 14.1307C73.3052 13.911 73.5855 13.8011 73.9112 13.8011C74.2408 13.8011 74.5211 13.911 74.7521 14.1307C74.987 14.3466 75.1044 14.6098 75.1044 14.9205C75.1044 15.2273 74.987 15.4905 74.7521 15.7102C74.5211 15.9261 74.2408 16.0341 73.9112 16.0341ZM80.8558 26.1705C80.0036 26.1705 79.2649 25.983 78.6399 25.608C78.0149 25.233 77.5301 24.7083 77.1854 24.0341C76.8445 23.3598 76.674 22.572 76.674 21.6705C76.674 20.7689 76.8445 19.9792 77.1854 19.3011C77.5301 18.6231 78.0149 18.0966 78.6399 17.7216C79.2649 17.3466 80.0036 17.1591 80.8558 17.1591C81.7081 17.1591 82.4467 17.3466 83.0717 17.7216C83.6967 18.0966 84.1797 18.6231 84.5206 19.3011C84.8653 19.9792 85.0376 20.7689 85.0376 21.6705C85.0376 22.572 84.8653 23.3598 84.5206 24.0341C84.1797 24.7083 83.6967 25.233 83.0717 25.608C82.4467 25.983 81.7081 26.1705 80.8558 26.1705ZM80.8672 24.5227C81.3293 24.5227 81.7157 24.3958 82.0263 24.142C82.3369 23.8845 82.5679 23.5398 82.7195 23.108C82.8748 22.6761 82.9524 22.1951 82.9524 21.6648C82.9524 21.1307 82.8748 20.6477 82.7195 20.2159C82.5679 19.7803 82.3369 19.4337 82.0263 19.1761C81.7157 18.9186 81.3293 18.7898 80.8672 18.7898C80.3937 18.7898 79.9998 18.9186 79.6854 19.1761C79.3748 19.4337 79.1418 19.7803 78.9865 20.2159C78.835 20.6477 78.7592 21.1307 78.7592 21.6648C78.7592 22.1951 78.835 22.6761 78.9865 23.108C79.1418 23.5398 79.3748 23.8845 79.6854 24.142C79.9998 24.3958 80.3937 24.5227 80.8672 24.5227ZM88.8402 20.8864V26H86.7834V17.2727H88.7493V18.7557H88.8516C89.0523 18.267 89.3724 17.8788 89.8118 17.5909C90.255 17.303 90.8023 17.1591 91.4538 17.1591C92.0561 17.1591 92.5807 17.2879 93.0277 17.5455C93.4785 17.803 93.8269 18.1761 94.0732 18.6648C94.3232 19.1534 94.4463 19.7462 94.4425 20.4432V26H92.3857V20.7614C92.3857 20.178 92.2341 19.7216 91.9311 19.392C91.6319 19.0625 91.2171 18.8977 90.6868 18.8977C90.3269 18.8977 90.0069 18.9773 89.7266 19.1364C89.45 19.2917 89.2322 19.517 89.0732 19.8125C88.9179 20.108 88.8402 20.4659 88.8402 20.8864Z" fill="white"/>
<path d="M160.152 97.8409V96.1648L165.089 88.3636H166.487V90.75H165.635L162.311 96.017V96.108H169.203V97.8409H160.152ZM165.703 100V97.3295L165.726 96.5795V88.3636H167.714V100H165.703ZM175.064 100.159C174.306 100.159 173.628 100.017 173.03 99.733C172.431 99.4451 171.956 99.0511 171.604 98.5511C171.255 98.0511 171.07 97.4792 171.047 96.8352H173.092C173.13 97.3125 173.337 97.7027 173.712 98.0057C174.087 98.3049 174.537 98.4545 175.064 98.4545C175.477 98.4545 175.844 98.3598 176.166 98.1705C176.488 97.9811 176.742 97.7178 176.928 97.3807C177.113 97.0436 177.204 96.6591 177.2 96.2273C177.204 95.7879 177.111 95.3977 176.922 95.0568C176.732 94.7159 176.473 94.4489 176.143 94.2557C175.814 94.0587 175.435 93.9602 175.007 93.9602C174.659 93.9564 174.316 94.0208 173.979 94.1534C173.642 94.286 173.375 94.4602 173.178 94.6761L171.274 94.3636L171.882 88.3636H178.632V90.125H173.626L173.291 93.2102H173.359C173.575 92.9564 173.88 92.7462 174.274 92.5795C174.668 92.4091 175.1 92.3239 175.57 92.3239C176.274 92.3239 176.903 92.4905 177.456 92.8239C178.009 93.1534 178.445 93.608 178.763 94.1875C179.081 94.767 179.24 95.4299 179.24 96.1761C179.24 96.9451 179.062 97.6307 178.706 98.233C178.354 98.8314 177.863 99.303 177.234 99.6477C176.609 99.9886 175.886 100.159 175.064 100.159ZM185.405 100.159C184.848 100.155 184.304 100.059 183.774 99.8693C183.244 99.6761 182.767 99.3636 182.342 98.9318C181.918 98.4962 181.581 97.9186 181.331 97.1989C181.081 96.4754 180.958 95.5795 180.962 94.5114C180.962 93.5152 181.068 92.6269 181.28 91.8466C181.492 91.0663 181.797 90.4072 182.195 89.8693C182.592 89.3277 183.071 88.9148 183.632 88.6307C184.196 88.3466 184.827 88.2045 185.524 88.2045C186.255 88.2045 186.903 88.3485 187.467 88.6364C188.036 88.9242 188.494 89.3182 188.842 89.8182C189.191 90.3144 189.407 90.875 189.49 91.5H187.416C187.31 91.053 187.092 90.697 186.763 90.4318C186.437 90.1629 186.024 90.0284 185.524 90.0284C184.717 90.0284 184.096 90.3788 183.661 91.0795C183.229 91.7803 183.011 92.7424 183.007 93.9659H183.087C183.272 93.6326 183.513 93.3466 183.808 93.108C184.104 92.8693 184.437 92.6856 184.808 92.5568C185.183 92.4242 185.579 92.358 185.996 92.358C186.678 92.358 187.289 92.5208 187.831 92.8466C188.376 93.1723 188.808 93.6212 189.126 94.1932C189.445 94.7614 189.602 95.4129 189.598 96.1477C189.602 96.9129 189.428 97.6004 189.075 98.2102C188.723 98.8163 188.232 99.2936 187.604 99.642C186.975 99.9905 186.242 100.163 185.405 100.159ZM185.393 98.4545C185.806 98.4545 186.176 98.3542 186.501 98.1534C186.827 97.9527 187.085 97.6818 187.274 97.3409C187.464 97 187.556 96.6174 187.553 96.1932C187.556 95.7765 187.465 95.3996 187.28 95.0625C187.098 94.7254 186.846 94.4583 186.524 94.2614C186.202 94.0644 185.835 93.9659 185.422 93.9659C185.115 93.9659 184.829 94.0246 184.564 94.142C184.299 94.2595 184.068 94.4223 183.871 94.6307C183.674 94.8352 183.518 95.0739 183.405 95.3466C183.295 95.6155 183.238 95.9034 183.234 96.2102C183.238 96.6155 183.333 96.9886 183.518 97.3295C183.704 97.6705 183.96 97.9432 184.286 98.1477C184.611 98.3523 184.981 98.4545 185.393 98.4545ZM195.601 88.3636H198.18L201.635 96.7955H201.771L205.226 88.3636H207.805V100H205.783V92.0057H205.675L202.459 99.9659H200.947L197.732 91.9886H197.624V100H195.601V88.3636ZM213.874 100.17C212.999 100.17 212.243 99.9886 211.607 99.625C210.974 99.2576 210.487 98.7386 210.146 98.0682C209.805 97.3939 209.635 96.6004 209.635 95.6875C209.635 94.7898 209.805 94.0019 210.146 93.3239C210.491 92.642 210.972 92.1117 211.589 91.733C212.207 91.3504 212.932 91.1591 213.766 91.1591C214.304 91.1591 214.811 91.2462 215.288 91.4205C215.769 91.5909 216.194 91.8561 216.561 92.2159C216.932 92.5758 217.224 93.0341 217.436 93.5909C217.648 94.1439 217.754 94.803 217.754 95.5682V96.1989H210.601V94.8125H215.783C215.779 94.4186 215.694 94.0682 215.527 93.7614C215.36 93.4508 215.127 93.2064 214.828 93.0284C214.533 92.8504 214.188 92.7614 213.794 92.7614C213.374 92.7614 213.004 92.8636 212.686 93.0682C212.368 93.2689 212.12 93.5341 211.942 93.8636C211.768 94.1894 211.679 94.5473 211.675 94.9375V96.1477C211.675 96.6553 211.768 97.0909 211.953 97.4545C212.139 97.8144 212.398 98.0909 212.732 98.2841C213.065 98.4735 213.455 98.5682 213.902 98.5682C214.201 98.5682 214.472 98.5265 214.714 98.4432C214.957 98.3561 215.167 98.2292 215.345 98.0625C215.523 97.8958 215.658 97.6894 215.749 97.4432L217.669 97.6591C217.548 98.1667 217.317 98.6098 216.976 98.9886C216.639 99.3636 216.207 99.6553 215.68 99.8636C215.154 100.068 214.552 100.17 213.874 100.17ZM222.733 100.153C222.047 100.153 221.434 99.9773 220.892 99.625C220.35 99.2727 219.922 98.7614 219.608 98.0909C219.294 97.4205 219.136 96.6061 219.136 95.6477C219.136 94.678 219.295 93.8598 219.614 93.1932C219.936 92.5227 220.369 92.017 220.915 91.6761C221.46 91.3314 222.068 91.1591 222.739 91.1591C223.25 91.1591 223.67 91.2462 224 91.4205C224.33 91.5909 224.591 91.7973 224.784 92.0398C224.977 92.2784 225.127 92.5038 225.233 92.7159H225.318V88.3636H227.381V100H225.358V98.625H225.233C225.127 98.8371 224.973 99.0625 224.773 99.3011C224.572 99.536 224.307 99.7367 223.977 99.9034C223.648 100.07 223.233 100.153 222.733 100.153ZM223.307 98.4659C223.742 98.4659 224.114 98.3485 224.42 98.1136C224.727 97.875 224.96 97.5436 225.119 97.1193C225.278 96.6951 225.358 96.2008 225.358 95.6364C225.358 95.072 225.278 94.5814 225.119 94.1648C224.964 93.7481 224.733 93.4242 224.426 93.1932C224.123 92.9621 223.75 92.8466 223.307 92.8466C222.848 92.8466 222.466 92.9659 222.159 93.2045C221.852 93.4432 221.621 93.7727 221.466 94.1932C221.311 94.6136 221.233 95.0947 221.233 95.6364C221.233 96.1818 221.311 96.6686 221.466 97.0966C221.625 97.5208 221.858 97.8561 222.165 98.1023C222.475 98.3447 222.856 98.4659 223.307 98.4659ZM229.572 100V91.2727H231.629V100H229.572ZM230.607 90.0341C230.281 90.0341 230 89.9261 229.766 89.7102C229.531 89.4905 229.413 89.2273 229.413 88.9205C229.413 88.6098 229.531 88.3466 229.766 88.1307C230 87.911 230.281 87.8011 230.607 87.8011C230.936 87.8011 231.216 87.911 231.447 88.1307C231.682 88.3466 231.8 88.6098 231.8 88.9205C231.8 89.2273 231.682 89.4905 231.447 89.7102C231.216 89.9261 230.936 90.0341 230.607 90.0341ZM238.102 91.2727V92.8636H233.085V91.2727H238.102ZM234.324 89.1818H236.381V97.375C236.381 97.6515 236.422 97.8636 236.506 98.0114C236.593 98.1553 236.706 98.2538 236.847 98.3068C236.987 98.3598 237.142 98.3864 237.312 98.3864C237.441 98.3864 237.559 98.3769 237.665 98.358C237.775 98.339 237.858 98.322 237.915 98.3068L238.261 99.9148C238.152 99.9527 237.994 99.9943 237.79 100.04C237.589 100.085 237.343 100.112 237.051 100.119C236.536 100.134 236.072 100.057 235.659 99.8864C235.246 99.7121 234.919 99.4432 234.676 99.0795C234.438 98.7159 234.32 98.2614 234.324 97.7159V89.1818ZM243.592 100.17C242.717 100.17 241.962 99.9886 241.325 99.625C240.693 99.2576 240.206 98.7386 239.865 98.0682C239.524 97.3939 239.354 96.6004 239.354 95.6875C239.354 94.7898 239.524 94.0019 239.865 93.3239C240.21 92.642 240.691 92.1117 241.308 91.733C241.926 91.3504 242.651 91.1591 243.484 91.1591C244.022 91.1591 244.53 91.2462 245.007 91.4205C245.488 91.5909 245.912 91.8561 246.28 92.2159C246.651 92.5758 246.943 93.0341 247.155 93.5909C247.367 94.1439 247.473 94.803 247.473 95.5682V96.1989H240.32V94.8125H245.501C245.498 94.4186 245.412 94.0682 245.246 93.7614C245.079 93.4508 244.846 93.2064 244.547 93.0284C244.251 92.8504 243.907 92.7614 243.513 92.7614C243.092 92.7614 242.723 92.8636 242.405 93.0682C242.087 93.2689 241.839 93.5341 241.661 93.8636C241.486 94.1894 241.397 94.5473 241.393 94.9375V96.1477C241.393 96.6553 241.486 97.0909 241.672 97.4545C241.857 97.8144 242.117 98.0909 242.45 98.2841C242.784 98.4735 243.174 98.5682 243.621 98.5682C243.92 98.5682 244.191 98.5265 244.433 98.4432C244.676 98.3561 244.886 98.2292 245.064 98.0625C245.242 97.8958 245.376 97.6894 245.467 97.4432L247.388 97.6591C247.267 98.1667 247.036 98.6098 246.695 98.9886C246.357 99.3636 245.926 99.6553 245.399 99.8636C244.873 100.068 244.27 100.17 243.592 100.17ZM249.213 100V91.2727H251.207V92.7273H251.298C251.457 92.2235 251.73 91.8352 252.116 91.5625C252.507 91.286 252.952 91.1477 253.452 91.1477C253.565 91.1477 253.692 91.1534 253.832 91.1648C253.976 91.1723 254.096 91.1856 254.19 91.2045V93.0966C254.103 93.0663 253.965 93.0398 253.776 93.017C253.59 92.9905 253.41 92.9773 253.236 92.9773C252.861 92.9773 252.524 93.0587 252.224 93.2216C251.929 93.3807 251.696 93.6023 251.526 93.8864C251.355 94.1705 251.27 94.4981 251.27 94.8693V100H249.213ZM255.557 100V91.2727H257.551V92.7273H257.642C257.801 92.2235 258.074 91.8352 258.46 91.5625C258.85 91.286 259.295 91.1477 259.795 91.1477C259.909 91.1477 260.036 91.1534 260.176 91.1648C260.32 91.1723 260.439 91.1856 260.534 91.2045V93.0966C260.447 93.0663 260.309 93.0398 260.119 93.017C259.934 92.9905 259.754 92.9773 259.58 92.9773C259.205 92.9773 258.867 93.0587 258.568 93.2216C258.273 93.3807 258.04 93.6023 257.869 93.8864C257.699 94.1705 257.614 94.4981 257.614 94.8693V100H255.557ZM264.256 100.176C263.703 100.176 263.205 100.078 262.761 99.8807C262.322 99.6799 261.973 99.3845 261.716 98.9943C261.462 98.6042 261.335 98.1231 261.335 97.5511C261.335 97.0587 261.426 96.6515 261.608 96.3295C261.79 96.0076 262.038 95.75 262.352 95.5568C262.667 95.3636 263.021 95.2178 263.415 95.1193C263.813 95.017 264.223 94.9432 264.648 94.8977C265.159 94.8447 265.574 94.7973 265.892 94.7557C266.21 94.7102 266.441 94.642 266.585 94.5511C266.733 94.4564 266.807 94.3106 266.807 94.1136V94.0795C266.807 93.6515 266.68 93.3201 266.426 93.0852C266.172 92.8504 265.807 92.733 265.33 92.733C264.826 92.733 264.426 92.8428 264.131 93.0625C263.839 93.2822 263.642 93.5417 263.54 93.8409L261.619 93.5682C261.771 93.0379 262.021 92.5947 262.369 92.2386C262.718 91.8788 263.144 91.6098 263.648 91.4318C264.152 91.25 264.708 91.1591 265.318 91.1591C265.739 91.1591 266.157 91.2083 266.574 91.3068C266.991 91.4053 267.371 91.5682 267.716 91.7955C268.061 92.0189 268.337 92.3239 268.545 92.7102C268.758 93.0966 268.864 93.5795 268.864 94.1591V100H266.886V98.8011H266.818C266.693 99.0436 266.517 99.2708 266.29 99.483C266.066 99.6913 265.784 99.8598 265.443 99.9886C265.106 100.114 264.71 100.176 264.256 100.176ZM264.79 98.6648C265.203 98.6648 265.561 98.5833 265.864 98.4205C266.167 98.2538 266.4 98.0341 266.562 97.7614C266.729 97.4886 266.812 97.1913 266.812 96.8693V95.8409C266.748 95.8939 266.638 95.9432 266.483 95.9886C266.331 96.0341 266.161 96.0739 265.972 96.108C265.782 96.142 265.595 96.1723 265.409 96.1989C265.223 96.2254 265.063 96.2481 264.926 96.267C264.619 96.3087 264.345 96.3769 264.102 96.4716C263.86 96.5663 263.669 96.6989 263.528 96.8693C263.388 97.036 263.318 97.2519 263.318 97.517C263.318 97.8958 263.456 98.1818 263.733 98.375C264.009 98.5682 264.362 98.6648 264.79 98.6648ZM272.989 94.8864V100H270.932V91.2727H272.898V92.7557H273C273.201 92.267 273.521 91.8788 273.96 91.5909C274.403 91.303 274.951 91.1591 275.602 91.1591C276.205 91.1591 276.729 91.2879 277.176 91.5455C277.627 91.803 277.975 92.1761 278.222 92.6648C278.472 93.1534 278.595 93.7462 278.591 94.4432V100H276.534V94.7614C276.534 94.178 276.383 93.7216 276.08 93.392C275.78 93.0625 275.366 92.8977 274.835 92.8977C274.475 92.8977 274.155 92.9773 273.875 93.1364C273.598 93.2917 273.381 93.517 273.222 93.8125C273.066 94.108 272.989 94.4659 272.989 94.8864ZM284.545 100.17C283.67 100.17 282.915 99.9886 282.278 99.625C281.646 99.2576 281.159 98.7386 280.818 98.0682C280.477 97.3939 280.307 96.6004 280.307 95.6875C280.307 94.7898 280.477 94.0019 280.818 93.3239C281.163 92.642 281.644 92.1117 282.261 91.733C282.879 91.3504 283.604 91.1591 284.438 91.1591C284.975 91.1591 285.483 91.2462 285.96 91.4205C286.441 91.5909 286.866 91.8561 287.233 92.2159C287.604 92.5758 287.896 93.0341 288.108 93.5909C288.32 94.1439 288.426 94.803 288.426 95.5682V96.1989H281.273V94.8125H286.455C286.451 94.4186 286.366 94.0682 286.199 93.7614C286.032 93.4508 285.799 93.2064 285.5 93.0284C285.205 92.8504 284.86 92.7614 284.466 92.7614C284.045 92.7614 283.676 92.8636 283.358 93.0682C283.04 93.2689 282.792 93.5341 282.614 93.8636C282.439 94.1894 282.35 94.5473 282.347 94.9375V96.1477C282.347 96.6553 282.439 97.0909 282.625 97.4545C282.811 97.8144 283.07 98.0909 283.403 98.2841C283.737 98.4735 284.127 98.5682 284.574 98.5682C284.873 98.5682 285.144 98.5265 285.386 98.4432C285.629 98.3561 285.839 98.2292 286.017 98.0625C286.195 97.8958 286.33 97.6894 286.42 97.4432L288.341 97.6591C288.22 98.1667 287.989 98.6098 287.648 98.9886C287.311 99.3636 286.879 99.6553 286.352 99.8636C285.826 100.068 285.223 100.17 284.545 100.17ZM292.678 100.176C292.125 100.176 291.626 100.078 291.183 99.8807C290.744 99.6799 290.395 99.3845 290.138 98.9943C289.884 98.6042 289.757 98.1231 289.757 97.5511C289.757 97.0587 289.848 96.6515 290.03 96.3295C290.212 96.0076 290.46 95.75 290.774 95.5568C291.089 95.3636 291.443 95.2178 291.837 95.1193C292.234 95.017 292.645 94.9432 293.07 94.8977C293.581 94.8447 293.996 94.7973 294.314 94.7557C294.632 94.7102 294.863 94.642 295.007 94.5511C295.155 94.4564 295.229 94.3106 295.229 94.1136V94.0795C295.229 93.6515 295.102 93.3201 294.848 93.0852C294.594 92.8504 294.229 92.733 293.751 92.733C293.248 92.733 292.848 92.8428 292.553 93.0625C292.261 93.2822 292.064 93.5417 291.962 93.8409L290.041 93.5682C290.193 93.0379 290.443 92.5947 290.791 92.2386C291.14 91.8788 291.566 91.6098 292.07 91.4318C292.573 91.25 293.13 91.1591 293.74 91.1591C294.161 91.1591 294.579 91.2083 294.996 91.3068C295.412 91.4053 295.793 91.5682 296.138 91.7955C296.482 92.0189 296.759 92.3239 296.967 92.7102C297.179 93.0966 297.286 93.5795 297.286 94.1591V100H295.308V98.8011H295.24C295.115 99.0436 294.939 99.2708 294.712 99.483C294.488 99.6913 294.206 99.8598 293.865 99.9886C293.528 100.114 293.132 100.176 292.678 100.176ZM293.212 98.6648C293.625 98.6648 293.982 98.5833 294.286 98.4205C294.589 98.2538 294.821 98.0341 294.984 97.7614C295.151 97.4886 295.234 97.1913 295.234 96.8693V95.8409C295.17 95.8939 295.06 95.9432 294.905 95.9886C294.753 96.0341 294.583 96.0739 294.393 96.108C294.204 96.142 294.017 96.1723 293.831 96.1989C293.645 96.2254 293.484 96.2481 293.348 96.267C293.041 96.3087 292.767 96.3769 292.524 96.4716C292.282 96.5663 292.09 96.6989 291.95 96.8693C291.81 97.036 291.74 97.2519 291.74 97.517C291.74 97.8958 291.878 98.1818 292.155 98.375C292.431 98.5682 292.784 98.6648 293.212 98.6648ZM301.411 94.8864V100H299.354V91.2727H301.32V92.7557H301.422C301.623 92.267 301.943 91.8788 302.382 91.5909C302.825 91.303 303.373 91.1591 304.024 91.1591C304.626 91.1591 305.151 91.2879 305.598 91.5455C306.049 91.803 306.397 92.1761 306.643 92.6648C306.893 93.1534 307.017 93.7462 307.013 94.4432V100H304.956V94.7614C304.956 94.178 304.804 93.7216 304.501 93.392C304.202 93.0625 303.787 92.8977 303.257 92.8977C302.897 92.8977 302.577 92.9773 302.297 93.1364C302.02 93.2917 301.803 93.517 301.643 93.8125C301.488 94.108 301.411 94.4659 301.411 94.8864ZM314.658 100H312.408L316.504 88.3636H319.107L323.209 100H320.959L317.851 90.75H317.76L314.658 100ZM314.732 95.4375H320.868V97.1307H314.732V95.4375ZM331.352 91.2727L328.244 100H325.972L322.864 91.2727H325.057L327.062 97.7557H327.153L329.165 91.2727H331.352ZM336.342 100.17C335.467 100.17 334.712 99.9886 334.075 99.625C333.443 99.2576 332.956 98.7386 332.615 98.0682C332.274 97.3939 332.104 96.6004 332.104 95.6875C332.104 94.7898 332.274 94.0019 332.615 93.3239C332.96 92.642 333.441 92.1117 334.058 91.733C334.676 91.3504 335.401 91.1591 336.234 91.1591C336.772 91.1591 337.28 91.2462 337.757 91.4205C338.238 91.5909 338.662 91.8561 339.03 92.2159C339.401 92.5758 339.693 93.0341 339.905 93.5909C340.117 94.1439 340.223 94.803 340.223 95.5682V96.1989H333.07V94.8125H338.251C338.248 94.4186 338.162 94.0682 337.996 93.7614C337.829 93.4508 337.596 93.2064 337.297 93.0284C337.001 92.8504 336.657 92.7614 336.263 92.7614C335.842 92.7614 335.473 92.8636 335.155 93.0682C334.837 93.2689 334.589 93.5341 334.411 93.8636C334.236 94.1894 334.147 94.5473 334.143 94.9375V96.1477C334.143 96.6553 334.236 97.0909 334.422 97.4545C334.607 97.8144 334.867 98.0909 335.2 98.2841C335.534 98.4735 335.924 98.5682 336.371 98.5682C336.67 98.5682 336.941 98.5265 337.183 98.4432C337.426 98.3561 337.636 98.2292 337.814 98.0625C337.992 97.8958 338.126 97.6894 338.217 97.4432L340.138 97.6591C340.017 98.1667 339.786 98.6098 339.445 98.9886C339.107 99.3636 338.676 99.6553 338.149 99.8636C337.623 100.068 337.02 100.17 336.342 100.17ZM344.02 94.8864V100H341.963V91.2727H343.929V92.7557H344.031C344.232 92.267 344.552 91.8788 344.991 91.5909C345.435 91.303 345.982 91.1591 346.634 91.1591C347.236 91.1591 347.76 91.2879 348.207 91.5455C348.658 91.803 349.007 92.1761 349.253 92.6648C349.503 93.1534 349.626 93.7462 349.622 94.4432V100H347.565V94.7614C347.565 94.178 347.414 93.7216 347.111 93.392C346.812 93.0625 346.397 92.8977 345.866 92.8977C345.507 92.8977 345.187 92.9773 344.906 93.1364C344.63 93.2917 344.412 93.517 344.253 93.8125C344.098 94.108 344.02 94.4659 344.02 94.8864ZM357.276 96.3295V91.2727H359.332V100H357.338V98.4489H357.247C357.05 98.9375 356.726 99.3371 356.276 99.6477C355.829 99.9583 355.277 100.114 354.622 100.114C354.05 100.114 353.545 99.9867 353.105 99.733C352.67 99.4754 352.329 99.1023 352.082 98.6136C351.836 98.1212 351.713 97.5265 351.713 96.8295V91.2727H353.77V96.5114C353.77 97.0644 353.921 97.5038 354.224 97.8295C354.527 98.1553 354.925 98.3182 355.418 98.3182C355.721 98.3182 356.014 98.2443 356.298 98.0966C356.582 97.9489 356.815 97.7292 356.997 97.4375C357.183 97.142 357.276 96.7727 357.276 96.3295ZM365.311 100.17C364.436 100.17 363.68 99.9886 363.044 99.625C362.411 99.2576 361.925 98.7386 361.584 98.0682C361.243 97.3939 361.072 96.6004 361.072 95.6875C361.072 94.7898 361.243 94.0019 361.584 93.3239C361.929 92.642 362.41 92.1117 363.027 91.733C363.644 91.3504 364.37 91.1591 365.203 91.1591C365.741 91.1591 366.249 91.2462 366.726 91.4205C367.207 91.5909 367.631 91.8561 367.999 92.2159C368.37 92.5758 368.661 93.0341 368.874 93.5909C369.086 94.1439 369.192 94.803 369.192 95.5682V96.1989H362.038V94.8125H367.22C367.216 94.4186 367.131 94.0682 366.964 93.7614C366.798 93.4508 366.565 93.2064 366.266 93.0284C365.97 92.8504 365.625 92.7614 365.232 92.7614C364.811 92.7614 364.442 92.8636 364.124 93.0682C363.805 93.2689 363.557 93.5341 363.379 93.8636C363.205 94.1894 363.116 94.5473 363.112 94.9375V96.1477C363.112 96.6553 363.205 97.0909 363.391 97.4545C363.576 97.8144 363.836 98.0909 364.169 98.2841C364.502 98.4735 364.893 98.5682 365.339 98.5682C365.639 98.5682 365.91 98.5265 366.152 98.4432C366.394 98.3561 366.605 98.2292 366.783 98.0625C366.961 97.8958 367.095 97.6894 367.186 97.4432L369.107 97.6591C368.985 98.1667 368.754 98.6098 368.413 98.9886C368.076 99.3636 367.644 99.6553 367.118 99.8636C366.591 100.068 365.989 100.17 365.311 100.17ZM373.347 98.4091L373.273 99.0341C373.22 99.5114 373.125 99.9962 372.989 100.489C372.856 100.985 372.716 101.441 372.568 101.858C372.42 102.275 372.301 102.602 372.21 102.841H370.824C370.877 102.61 370.949 102.295 371.04 101.898C371.134 101.5 371.225 101.053 371.312 100.557C371.4 100.061 371.458 99.5568 371.489 99.0455L371.528 98.4091H373.347ZM378.839 90.1307V88.3636H388.124V90.1307H384.527V100H382.436V90.1307H378.839ZM391.146 100.176C390.593 100.176 390.095 100.078 389.652 99.8807C389.213 99.6799 388.864 99.3845 388.607 98.9943C388.353 98.6042 388.226 98.1231 388.226 97.5511C388.226 97.0587 388.317 96.6515 388.499 96.3295C388.68 96.0076 388.929 95.75 389.243 95.5568C389.557 95.3636 389.911 95.2178 390.305 95.1193C390.703 95.017 391.114 94.9432 391.538 94.8977C392.05 94.8447 392.464 94.7973 392.783 94.7557C393.101 94.7102 393.332 94.642 393.476 94.5511C393.624 94.4564 393.697 94.3106 393.697 94.1136V94.0795C393.697 93.6515 393.571 93.3201 393.317 93.0852C393.063 92.8504 392.697 92.733 392.22 92.733C391.716 92.733 391.317 92.8428 391.021 93.0625C390.73 93.2822 390.533 93.5417 390.43 93.8409L388.51 93.5682C388.661 93.0379 388.911 92.5947 389.26 92.2386C389.608 91.8788 390.035 91.6098 390.538 91.4318C391.042 91.25 391.599 91.1591 392.209 91.1591C392.629 91.1591 393.048 91.2083 393.464 91.3068C393.881 91.4053 394.262 91.5682 394.607 91.7955C394.951 92.0189 395.228 92.3239 395.436 92.7102C395.648 93.0966 395.754 93.5795 395.754 94.1591V100H393.777V98.8011H393.709C393.584 99.0436 393.408 99.2708 393.18 99.483C392.957 99.6913 392.675 99.8598 392.334 99.9886C391.997 100.114 391.601 100.176 391.146 100.176ZM391.68 98.6648C392.093 98.6648 392.451 98.5833 392.754 98.4205C393.057 98.2538 393.29 98.0341 393.453 97.7614C393.62 97.4886 393.703 97.1913 393.703 96.8693V95.8409C393.639 95.8939 393.529 95.9432 393.374 95.9886C393.222 96.0341 393.052 96.0739 392.862 96.108C392.673 96.142 392.485 96.1723 392.3 96.1989C392.114 96.2254 391.953 96.2481 391.817 96.267C391.51 96.3087 391.235 96.3769 390.993 96.4716C390.75 96.5663 390.559 96.6989 390.419 96.8693C390.279 97.036 390.209 97.2519 390.209 97.517C390.209 97.8958 390.347 98.1818 390.624 98.375C390.9 98.5682 391.252 98.6648 391.68 98.6648ZM404.72 93.5795L402.845 93.7841C402.792 93.5947 402.699 93.4167 402.567 93.25C402.438 93.0833 402.264 92.9489 402.044 92.8466C401.824 92.7443 401.555 92.6932 401.237 92.6932C400.809 92.6932 400.449 92.786 400.158 92.9716C399.87 93.1572 399.728 93.3977 399.732 93.6932C399.728 93.947 399.821 94.1534 400.01 94.3125C400.203 94.4716 400.521 94.6023 400.964 94.7045L402.453 95.0227C403.279 95.2008 403.893 95.483 404.294 95.8693C404.699 96.2557 404.904 96.7614 404.908 97.3864C404.904 97.9356 404.743 98.4205 404.425 98.8409C404.11 99.2576 403.673 99.5833 403.112 99.8182C402.552 100.053 401.908 100.17 401.18 100.17C400.112 100.17 399.252 99.947 398.601 99.5C397.949 99.0492 397.561 98.4223 397.436 97.6193L399.442 97.4261C399.533 97.8201 399.726 98.1174 400.021 98.3182C400.317 98.5189 400.701 98.6193 401.175 98.6193C401.663 98.6193 402.055 98.5189 402.351 98.3182C402.65 98.1174 402.8 97.8693 402.8 97.5739C402.8 97.3239 402.703 97.1174 402.51 96.9545C402.321 96.7917 402.025 96.6667 401.624 96.5795L400.135 96.267C399.298 96.0928 398.679 95.7992 398.277 95.3864C397.875 94.9697 397.677 94.4432 397.68 93.8068C397.677 93.2689 397.822 92.803 398.118 92.4091C398.417 92.0114 398.832 91.7045 399.362 91.4886C399.896 91.2689 400.512 91.1591 401.209 91.1591C402.232 91.1591 403.036 91.3769 403.624 91.8125C404.214 92.2481 404.58 92.8371 404.72 93.5795ZM410.962 91.2727V92.8636H405.945V91.2727H410.962ZM407.183 89.1818H409.24V97.375C409.24 97.6515 409.282 97.8636 409.365 98.0114C409.452 98.1553 409.566 98.2538 409.706 98.3068C409.846 98.3598 410.001 98.3864 410.172 98.3864C410.301 98.3864 410.418 98.3769 410.524 98.358C410.634 98.339 410.717 98.322 410.774 98.3068L411.121 99.9148C411.011 99.9527 410.854 99.9943 410.649 100.04C410.448 100.085 410.202 100.112 409.911 100.119C409.395 100.134 408.931 100.057 408.518 99.8864C408.106 99.7121 407.778 99.4432 407.536 99.0795C407.297 98.7159 407.179 98.2614 407.183 97.7159V89.1818ZM416.452 100.17C415.577 100.17 414.821 99.9886 414.185 99.625C413.552 99.2576 413.065 98.7386 412.724 98.0682C412.384 97.3939 412.213 96.6004 412.213 95.6875C412.213 94.7898 412.384 94.0019 412.724 93.3239C413.069 92.642 413.55 92.1117 414.168 91.733C414.785 91.3504 415.51 91.1591 416.344 91.1591C416.882 91.1591 417.389 91.2462 417.866 91.4205C418.348 91.5909 418.772 91.8561 419.139 92.2159C419.51 92.5758 419.802 93.0341 420.014 93.5909C420.226 94.1439 420.332 94.803 420.332 95.5682V96.1989H413.179V94.8125H418.361C418.357 94.4186 418.272 94.0682 418.105 93.7614C417.938 93.4508 417.705 93.2064 417.406 93.0284C417.111 92.8504 416.766 92.7614 416.372 92.7614C415.952 92.7614 415.582 92.8636 415.264 93.0682C414.946 93.2689 414.698 93.5341 414.52 93.8636C414.346 94.1894 414.257 94.5473 414.253 94.9375V96.1477C414.253 96.6553 414.346 97.0909 414.531 97.4545C414.717 97.8144 414.976 98.0909 415.31 98.2841C415.643 98.4735 416.033 98.5682 416.48 98.5682C416.779 98.5682 417.05 98.5265 417.293 98.4432C417.535 98.3561 417.745 98.2292 417.923 98.0625C418.101 97.8958 418.236 97.6894 418.327 97.4432L420.247 97.6591C420.126 98.1667 419.895 98.6098 419.554 98.9886C419.217 99.3636 418.785 99.6553 418.259 99.8636C417.732 100.068 417.13 100.17 416.452 100.17ZM425.621 90.1307V88.3636H434.905V90.1307H431.308V100H429.217V90.1307H425.621ZM439.145 100.17C438.293 100.17 437.554 99.983 436.929 99.608C436.304 99.233 435.819 98.7083 435.474 98.0341C435.134 97.3598 434.963 96.572 434.963 95.6705C434.963 94.7689 435.134 93.9792 435.474 93.3011C435.819 92.6231 436.304 92.0966 436.929 91.7216C437.554 91.3466 438.293 91.1591 439.145 91.1591C439.997 91.1591 440.736 91.3466 441.361 91.7216C441.986 92.0966 442.469 92.6231 442.81 93.3011C443.154 93.9792 443.327 94.7689 443.327 95.6705C443.327 96.572 443.154 97.3598 442.81 98.0341C442.469 98.7083 441.986 99.233 441.361 99.608C440.736 99.983 439.997 100.17 439.145 100.17ZM439.156 98.5227C439.618 98.5227 440.005 98.3958 440.315 98.142C440.626 97.8845 440.857 97.5398 441.009 97.108C441.164 96.6761 441.241 96.1951 441.241 95.6648C441.241 95.1307 441.164 94.6477 441.009 94.2159C440.857 93.7803 440.626 93.4337 440.315 93.1761C440.005 92.9186 439.618 92.7898 439.156 92.7898C438.683 92.7898 438.289 92.9186 437.974 93.1761C437.664 93.4337 437.431 93.7803 437.276 94.2159C437.124 94.6477 437.048 95.1307 437.048 95.6648C437.048 96.1951 437.124 96.6761 437.276 97.108C437.431 97.5398 437.664 97.8845 437.974 98.142C438.289 98.3958 438.683 98.5227 439.156 98.5227ZM446.624 100L444.158 91.2727H446.254L447.788 97.4091H447.868L449.436 91.2727H451.51L453.078 97.375H453.163L454.675 91.2727H456.777L454.305 100H452.163L450.527 94.1023H450.408L448.771 100H446.624ZM460.27 94.8864V100H458.213V91.2727H460.179V92.7557H460.281C460.482 92.267 460.802 91.8788 461.241 91.5909C461.685 91.303 462.232 91.1591 462.884 91.1591C463.486 91.1591 464.01 91.2879 464.457 91.5455C464.908 91.803 465.257 92.1761 465.503 92.6648C465.753 93.1534 465.876 93.7462 465.872 94.4432V100H463.815V94.7614C463.815 94.178 463.664 93.7216 463.361 93.392C463.062 93.0625 462.647 92.8977 462.116 92.8977C461.757 92.8977 461.437 92.9773 461.156 93.1364C460.88 93.2917 460.662 93.517 460.503 93.8125C460.348 94.108 460.27 94.4659 460.27 94.8864ZM470.378 98.4091L470.304 99.0341C470.251 99.5114 470.156 99.9962 470.02 100.489C469.887 100.985 469.747 101.441 469.599 101.858C469.452 102.275 469.332 102.602 469.241 102.841H467.855C467.908 102.61 467.98 102.295 468.071 101.898C468.166 101.5 468.257 101.053 468.344 100.557C468.431 100.061 468.49 99.5568 468.52 99.0455L468.56 98.4091H470.378ZM476.382 100V88.3636H483.837V90.1307H478.49V93.2898H483.325V95.0568H478.49V100H476.382ZM485.757 100V88.3636H487.865V98.233H492.99V100H485.757Z" fill="black"/>
<g clip-path="url(#clip0_0_1)">
<path d="M67.1289 141.5C77.1484 128.961 100 98.5703 100 81.5C100 60.7969 83.2031 44 62.5 44C41.7969 44 25 60.7969 25 81.5C25 98.5703 47.8516 128.961 57.8711 141.5C60.2734 144.488 64.7266 144.488 67.1289 141.5ZM62.5 69C65.8152 69 68.9946 70.317 71.3388 72.6612C73.683 75.0054 75 78.1848 75 81.5C75 84.8152 73.683 87.9946 71.3388 90.3388C68.9946 92.683 65.8152 94 62.5 94C59.1848 94 56.0054 92.683 53.6612 90.3388C51.317 87.9946 50 84.8152 50 81.5C50 78.1848 51.317 75.0054 53.6612 72.6612C56.0054 70.317 59.1848 69 62.5 69Z" fill="white"/>
</g>
<defs>
<clipPath id="clip0_0_1">
<rect width="75" height="100" fill="white" transform="translate(25 44)"/>
</clipPath>
</defs>
</svg>
