<svg width="530" height="149" viewBox="0 0 530 149" fill="none" xmlns="http://www.w3.org/2000/svg">
<rect width="530" height="149" fill="#F5F5F5"/>
<path d="M0 2C0 0.895435 0.895431 0 2 0H528C529.105 0 530 0.895431 530 2V147C530 148.105 529.105 149 528 149H1.99999C0.895423 149 0 148.105 0 147V2Z" fill="white"/>
<path d="M2 1H528V-1H2V1ZM529 2V147H531V2H529ZM528 148H1.99999V150H528V148ZM1 147V2H-1V147H1ZM1.99999 148C1.44771 148 1 147.552 1 147H-1C-1 148.657 0.343133 150 1.99999 150V148ZM529 147C529 147.552 528.552 148 528 148V150C529.657 150 531 148.657 531 147H529ZM528 1C528.552 1 529 1.44771 529 2H531C531 0.343151 529.657 -1 528 -1V1ZM2 -1C0.343143 -1 -1 0.343153 -1 2H1C1 1.44772 1.44772 1 2 1V-1Z" fill="black" fill-opacity="0.1"/>
<rect width="530" height="40" fill="#A52A2A"/>
<rect y="40" width="125" height="109" fill="#A52A2A"/>
<g clip-path="url(#clip0_0_1)">
<rect width="100" height="100" transform="translate(12 45)" fill="#A52A2A"/>
<path d="M102.625 95C102.625 105.774 98.3449 116.108 90.7262 123.726C83.1075 131.345 72.7744 135.625 62 135.625C51.2256 135.625 40.8925 131.345 33.2738 123.726C25.6551 116.108 21.375 105.774 21.375 95C21.375 84.2256 25.6551 73.8925 33.2738 66.2738C40.8925 58.6551 51.2256 54.375 62 54.375C72.7744 54.375 83.1075 58.6551 90.7262 66.2738C98.3449 73.8925 102.625 84.2256 102.625 95ZM12 95C12 108.261 17.2678 120.979 26.6447 130.355C36.0215 139.732 48.7392 145 62 145C75.2608 145 87.9785 139.732 97.3553 130.355C106.732 120.979 112 108.261 112 95C112 81.7392 106.732 69.0215 97.3553 59.6447C87.9785 50.2678 75.2608 45 62 45C48.7392 45 36.0215 50.2678 26.6447 59.6447C17.2678 69.0215 12 81.7392 12 95ZM57.3125 68.4375V95C57.3125 96.5625 58.0937 98.0273 59.4023 98.9062L78.1523 111.406C80.3008 112.852 83.2109 112.266 84.6562 110.098C86.1016 107.93 85.5156 105.039 83.3477 103.594L66.6875 92.5V68.4375C66.6875 65.8398 64.5977 63.75 62 63.75C59.4023 63.75 57.3125 65.8398 57.3125 68.4375Z" fill="white"/>
</g>
<path d="M12.054 26V14.3636H14.1619V19.2898H19.554V14.3636H21.6676V26H19.554V21.0568H14.1619V26H12.054ZM27.6761 26.1705C26.8239 26.1705 26.0852 25.983 25.4602 25.608C24.8352 25.233 24.3504 24.7083 24.0057 24.0341C23.6648 23.3598 23.4943 22.572 23.4943 21.6705C23.4943 20.7689 23.6648 19.9792 24.0057 19.3011C24.3504 18.6231 24.8352 18.0966 25.4602 17.7216C26.0852 17.3466 26.8239 17.1591 27.6761 17.1591C28.5284 17.1591 29.267 17.3466 29.892 17.7216C30.517 18.0966 31 18.6231 31.3409 19.3011C31.6856 19.9792 31.858 20.7689 31.858 21.6705C31.858 22.572 31.6856 23.3598 31.3409 24.0341C31 24.7083 30.517 25.233 29.892 25.608C29.267 25.983 28.5284 26.1705 27.6761 26.1705ZM27.6875 24.5227C28.1496 24.5227 28.536 24.3958 28.8466 24.142C29.1572 23.8845 29.3883 23.5398 29.5398 23.108C29.6951 22.6761 29.7727 22.1951 29.7727 21.6648C29.7727 21.1307 29.6951 20.6477 29.5398 20.2159C29.3883 19.7803 29.1572 19.4337 28.8466 19.1761C28.536 18.9186 28.1496 18.7898 27.6875 18.7898C27.214 18.7898 26.8201 18.9186 26.5057 19.1761C26.1951 19.4337 25.9621 19.7803 25.8068 20.2159C25.6553 20.6477 25.5795 21.1307 25.5795 21.6648C25.5795 22.1951 25.6553 22.6761 25.8068 23.108C25.9621 23.5398 26.1951 23.8845 26.5057 24.142C26.8201 24.3958 27.214 24.5227 27.6875 24.5227ZM39.1662 22.3295V17.2727H41.223V26H39.2287V24.4489H39.1378C38.9408 24.9375 38.617 25.3371 38.1662 25.6477C37.7192 25.9583 37.1681 26.1136 36.5128 26.1136C35.9408 26.1136 35.4351 25.9867 34.9957 25.733C34.5601 25.4754 34.2192 25.1023 33.973 24.6136C33.7268 24.1212 33.6037 23.5265 33.6037 22.8295V17.2727H35.6605V22.5114C35.6605 23.0644 35.812 23.5038 36.1151 23.8295C36.4181 24.1553 36.8158 24.3182 37.3082 24.3182C37.6113 24.3182 37.9048 24.2443 38.1889 24.0966C38.473 23.9489 38.706 23.7292 38.8878 23.4375C39.0734 23.142 39.1662 22.7727 39.1662 22.3295ZM43.3381 26V17.2727H45.3324V18.7273H45.4233C45.5824 18.2235 45.8551 17.8352 46.2415 17.5625C46.6316 17.286 47.0767 17.1477 47.5767 17.1477C47.6903 17.1477 47.8172 17.1534 47.9574 17.1648C48.1013 17.1723 48.2206 17.1856 48.3153 17.2045V19.0966C48.2282 19.0663 48.09 19.0398 47.9006 19.017C47.715 18.9905 47.535 18.9773 47.3608 18.9773C46.9858 18.9773 46.6487 19.0587 46.3494 19.2216C46.054 19.3807 45.821 19.6023 45.6506 19.8864C45.4801 20.1705 45.3949 20.4981 45.3949 20.8693V26H43.3381ZM56.5795 19.5795L54.7045 19.7841C54.6515 19.5947 54.5587 19.4167 54.4261 19.25C54.2973 19.0833 54.1231 18.9489 53.9034 18.8466C53.6837 18.7443 53.4148 18.6932 53.0966 18.6932C52.6686 18.6932 52.3087 18.786 52.017 18.9716C51.7292 19.1572 51.5871 19.3977 51.5909 19.6932C51.5871 19.947 51.6799 20.1534 51.8693 20.3125C52.0625 20.4716 52.3807 20.6023 52.8239 20.7045L54.3125 21.0227C55.1383 21.2008 55.7519 21.483 56.1534 21.8693C56.5587 22.2557 56.7633 22.7614 56.767 23.3864C56.7633 23.9356 56.6023 24.4205 56.2841 24.8409C55.9697 25.2576 55.5322 25.5833 54.9716 25.8182C54.411 26.053 53.767 26.1705 53.0398 26.1705C51.9716 26.1705 51.1117 25.947 50.4602 25.5C49.8087 25.0492 49.4205 24.4223 49.2955 23.6193L51.3011 23.4261C51.392 23.8201 51.5852 24.1174 51.8807 24.3182C52.1761 24.5189 52.5606 24.6193 53.0341 24.6193C53.5227 24.6193 53.9148 24.5189 54.2102 24.3182C54.5095 24.1174 54.6591 23.8693 54.6591 23.5739C54.6591 23.3239 54.5625 23.1174 54.3693 22.9545C54.1799 22.7917 53.8845 22.6667 53.483 22.5795L51.9943 22.267C51.1572 22.0928 50.5379 21.7992 50.1364 21.3864C49.7348 20.9697 49.536 20.4432 49.5398 19.8068C49.536 19.2689 49.6818 18.803 49.9773 18.4091C50.2765 18.0114 50.6913 17.7045 51.2216 17.4886C51.7557 17.2689 52.3712 17.1591 53.0682 17.1591C54.0909 17.1591 54.8958 17.3769 55.483 17.8125C56.0739 18.2481 56.4394 18.8371 56.5795 19.5795ZM66.2386 26.1705C65.3864 26.1705 64.6477 25.983 64.0227 25.608C63.3977 25.233 62.9129 24.7083 62.5682 24.0341C62.2273 23.3598 62.0568 22.572 62.0568 21.6705C62.0568 20.7689 62.2273 19.9792 62.5682 19.3011C62.9129 18.6231 63.3977 18.0966 64.0227 17.7216C64.6477 17.3466 65.3864 17.1591 66.2386 17.1591C67.0909 17.1591 67.8295 17.3466 68.4545 17.7216C69.0795 18.0966 69.5625 18.6231 69.9034 19.3011C70.2481 19.9792 70.4205 20.7689 70.4205 21.6705C70.4205 22.572 70.2481 23.3598 69.9034 24.0341C69.5625 24.7083 69.0795 25.233 68.4545 25.608C67.8295 25.983 67.0909 26.1705 66.2386 26.1705ZM66.25 24.5227C66.7121 24.5227 67.0985 24.3958 67.4091 24.142C67.7197 23.8845 67.9508 23.5398 68.1023 23.108C68.2576 22.6761 68.3352 22.1951 68.3352 21.6648C68.3352 21.1307 68.2576 20.6477 68.1023 20.2159C67.9508 19.7803 67.7197 19.4337 67.4091 19.1761C67.0985 18.9186 66.7121 18.7898 66.25 18.7898C65.7765 18.7898 65.3826 18.9186 65.0682 19.1761C64.7576 19.4337 64.5246 19.7803 64.3693 20.2159C64.2178 20.6477 64.142 21.1307 64.142 21.6648C64.142 22.1951 64.2178 22.6761 64.3693 23.108C64.5246 23.5398 64.7576 23.8845 65.0682 24.142C65.3826 24.3958 65.7765 24.5227 66.25 24.5227ZM76.5866 17.2727V18.8636H71.4276V17.2727H76.5866ZM72.7173 26V16.4489C72.7173 15.8617 72.8385 15.3731 73.081 14.983C73.3272 14.5928 73.6567 14.3011 74.0696 14.108C74.4825 13.9148 74.9408 13.8182 75.4446 13.8182C75.8007 13.8182 76.117 13.8466 76.3935 13.9034C76.67 13.9602 76.8745 14.0114 77.0071 14.0568L76.598 15.6477C76.5109 15.6212 76.401 15.5947 76.2685 15.5682C76.1359 15.5379 75.9882 15.5227 75.8253 15.5227C75.4427 15.5227 75.1719 15.6155 75.0128 15.8011C74.8575 15.983 74.7798 16.2443 74.7798 16.5852V26H72.7173ZM92.6548 20.1818C92.6548 21.4356 92.42 22.5095 91.9503 23.4034C91.4844 24.2936 90.848 24.9754 90.0412 25.4489C89.2382 25.9223 88.3272 26.1591 87.3082 26.1591C86.2893 26.1591 85.3764 25.9223 84.5696 25.4489C83.7666 24.9716 83.1302 24.2879 82.6605 23.3977C82.1946 22.5038 81.9616 21.4318 81.9616 20.1818C81.9616 18.928 82.1946 17.8561 82.6605 16.9659C83.1302 16.072 83.7666 15.3883 84.5696 14.9148C85.3764 14.4413 86.2893 14.2045 87.3082 14.2045C88.3272 14.2045 89.2382 14.4413 90.0412 14.9148C90.848 15.3883 91.4844 16.072 91.9503 16.9659C92.42 17.8561 92.6548 18.928 92.6548 20.1818ZM90.5355 20.1818C90.5355 19.2992 90.3973 18.5549 90.1207 17.9489C89.848 17.339 89.4692 16.8788 88.9844 16.5682C88.4995 16.2538 87.9408 16.0966 87.3082 16.0966C86.6757 16.0966 86.117 16.2538 85.6321 16.5682C85.1473 16.8788 84.7666 17.339 84.4901 17.9489C84.2173 18.5549 84.081 19.2992 84.081 20.1818C84.081 21.0644 84.2173 21.8106 84.4901 22.4205C84.7666 23.0265 85.1473 23.4867 85.6321 23.8011C86.117 24.1117 86.6757 24.267 87.3082 24.267C87.9408 24.267 88.4995 24.1117 88.9844 23.8011C89.4692 23.4867 89.848 23.0265 90.1207 22.4205C90.3973 21.8106 90.5355 21.0644 90.5355 20.1818ZM94.5568 29.2727V17.2727H96.5795V18.7159H96.6989C96.8049 18.5038 96.9545 18.2784 97.1477 18.0398C97.3409 17.7973 97.6023 17.5909 97.9318 17.4205C98.2614 17.2462 98.6818 17.1591 99.1932 17.1591C99.8674 17.1591 100.475 17.3314 101.017 17.6761C101.563 18.017 101.994 18.5227 102.312 19.1932C102.634 19.8598 102.795 20.678 102.795 21.6477C102.795 22.6061 102.638 23.4205 102.324 24.0909C102.009 24.7614 101.581 25.2727 101.04 25.625C100.498 25.9773 99.8845 26.1534 99.1989 26.1534C98.6989 26.1534 98.2841 26.0701 97.9545 25.9034C97.625 25.7367 97.3598 25.536 97.1591 25.3011C96.9621 25.0625 96.8087 24.8371 96.6989 24.625H96.6136V29.2727H94.5568ZM96.5739 21.6364C96.5739 22.2008 96.6534 22.6951 96.8125 23.1193C96.9754 23.5436 97.2083 23.875 97.5114 24.1136C97.8182 24.3485 98.1894 24.4659 98.625 24.4659C99.0795 24.4659 99.4602 24.3447 99.767 24.1023C100.074 23.8561 100.305 23.5208 100.46 23.0966C100.619 22.6686 100.699 22.1818 100.699 21.6364C100.699 21.0947 100.621 20.6136 100.466 20.1932C100.311 19.7727 100.08 19.4432 99.7727 19.2045C99.4659 18.9659 99.0833 18.8466 98.625 18.8466C98.1856 18.8466 97.8125 18.9621 97.5057 19.1932C97.1989 19.4242 96.9659 19.7481 96.8068 20.1648C96.6515 20.5814 96.5739 21.072 96.5739 21.6364ZM108.42 26.1705C107.545 26.1705 106.79 25.9886 106.153 25.625C105.521 25.2576 105.034 24.7386 104.693 24.0682C104.352 23.3939 104.182 22.6004 104.182 21.6875C104.182 20.7898 104.352 20.0019 104.693 19.3239C105.038 18.642 105.519 18.1117 106.136 17.733C106.754 17.3504 107.479 17.1591 108.312 17.1591C108.85 17.1591 109.358 17.2462 109.835 17.4205C110.316 17.5909 110.741 17.8561 111.108 18.2159C111.479 18.5758 111.771 19.0341 111.983 19.5909C112.195 20.1439 112.301 20.803 112.301 21.5682V22.1989H105.148V20.8125H110.33C110.326 20.4186 110.241 20.0682 110.074 19.7614C109.907 19.4508 109.674 19.2064 109.375 19.0284C109.08 18.8504 108.735 18.7614 108.341 18.7614C107.92 18.7614 107.551 18.8636 107.233 19.0682C106.915 19.2689 106.667 19.5341 106.489 19.8636C106.314 20.1894 106.225 20.5473 106.222 20.9375V22.1477C106.222 22.6553 106.314 23.0909 106.5 23.4545C106.686 23.8144 106.945 24.0909 107.278 24.2841C107.612 24.4735 108.002 24.5682 108.449 24.5682C108.748 24.5682 109.019 24.5265 109.261 24.4432C109.504 24.3561 109.714 24.2292 109.892 24.0625C110.07 23.8958 110.205 23.6894 110.295 23.4432L112.216 23.6591C112.095 24.1667 111.864 24.6098 111.523 24.9886C111.186 25.3636 110.754 25.6553 110.227 25.8636C109.701 26.0682 109.098 26.1705 108.42 26.1705ZM114.041 26V17.2727H116.036V18.7273H116.126C116.286 18.2235 116.558 17.8352 116.945 17.5625C117.335 17.286 117.78 17.1477 118.28 17.1477C118.393 17.1477 118.52 17.1534 118.661 17.1648C118.804 17.1723 118.924 17.1856 119.018 17.2045V19.0966C118.931 19.0663 118.793 19.0398 118.604 19.017C118.418 18.9905 118.238 18.9773 118.064 18.9773C117.689 18.9773 117.352 19.0587 117.053 19.2216C116.757 19.3807 116.524 19.6023 116.354 19.8864C116.183 20.1705 116.098 20.4981 116.098 20.8693V26H114.041ZM122.74 26.1761C122.187 26.1761 121.689 26.0777 121.246 25.8807C120.806 25.6799 120.458 25.3845 120.2 24.9943C119.946 24.6042 119.82 24.1231 119.82 23.5511C119.82 23.0587 119.911 22.6515 120.092 22.3295C120.274 22.0076 120.522 21.75 120.837 21.5568C121.151 21.3636 121.505 21.2178 121.899 21.1193C122.297 21.017 122.708 20.9432 123.132 20.8977C123.643 20.8447 124.058 20.7973 124.376 20.7557C124.695 20.7102 124.926 20.642 125.07 20.5511C125.217 20.4564 125.291 20.3106 125.291 20.1136V20.0795C125.291 19.6515 125.164 19.3201 124.911 19.0852C124.657 18.8504 124.291 18.733 123.814 18.733C123.31 18.733 122.911 18.8428 122.615 19.0625C122.323 19.2822 122.126 19.5417 122.024 19.8409L120.104 19.5682C120.255 19.0379 120.505 18.5947 120.854 18.2386C121.202 17.8788 121.628 17.6098 122.132 17.4318C122.636 17.25 123.193 17.1591 123.803 17.1591C124.223 17.1591 124.642 17.2083 125.058 17.3068C125.475 17.4053 125.856 17.5682 126.2 17.7955C126.545 18.0189 126.821 18.3239 127.03 18.7102C127.242 19.0966 127.348 19.5795 127.348 20.1591V26H125.371V24.8011H125.303C125.178 25.0436 125.001 25.2708 124.774 25.483C124.551 25.6913 124.268 25.8598 123.928 25.9886C123.59 26.1136 123.195 26.1761 122.74 26.1761ZM123.274 24.6648C123.687 24.6648 124.045 24.5833 124.348 24.4205C124.651 24.2538 124.884 24.0341 125.047 23.7614C125.214 23.4886 125.297 23.1913 125.297 22.8693V21.8409C125.232 21.8939 125.123 21.9432 124.967 21.9886C124.816 22.0341 124.645 22.0739 124.456 22.108C124.267 22.142 124.079 22.1723 123.893 22.1989C123.708 22.2254 123.547 22.2481 123.411 22.267C123.104 22.3087 122.829 22.3769 122.587 22.4716C122.344 22.5663 122.153 22.6989 122.013 22.8693C121.873 23.036 121.803 23.2519 121.803 23.517C121.803 23.8958 121.941 24.1818 122.217 24.375C122.494 24.5682 122.846 24.6648 123.274 24.6648ZM133.774 17.2727V18.8636H128.757V17.2727H133.774ZM129.996 15.1818H132.053V23.375C132.053 23.6515 132.094 23.8636 132.178 24.0114C132.265 24.1553 132.378 24.2538 132.518 24.3068C132.659 24.3598 132.814 24.3864 132.984 24.3864C133.113 24.3864 133.231 24.3769 133.337 24.358C133.446 24.339 133.53 24.322 133.587 24.3068L133.933 25.9148C133.823 25.9527 133.666 25.9943 133.462 26.0398C133.261 26.0852 133.015 26.1117 132.723 26.1193C132.208 26.1345 131.744 26.0568 131.331 25.8864C130.918 25.7121 130.59 25.4432 130.348 25.0795C130.109 24.7159 129.992 24.2614 129.996 23.7159V15.1818ZM135.494 26V17.2727H137.551V26H135.494ZM136.528 16.0341C136.203 16.0341 135.922 15.9261 135.688 15.7102C135.453 15.4905 135.335 15.2273 135.335 14.9205C135.335 14.6098 135.453 14.3466 135.688 14.1307C135.922 13.911 136.203 13.8011 136.528 13.8011C136.858 13.8011 137.138 13.911 137.369 14.1307C137.604 14.3466 137.722 14.6098 137.722 14.9205C137.722 15.2273 137.604 15.4905 137.369 15.7102C137.138 15.9261 136.858 16.0341 136.528 16.0341ZM143.473 26.1705C142.621 26.1705 141.882 25.983 141.257 25.608C140.632 25.233 140.147 24.7083 139.803 24.0341C139.462 23.3598 139.291 22.572 139.291 21.6705C139.291 20.7689 139.462 19.9792 139.803 19.3011C140.147 18.6231 140.632 18.0966 141.257 17.7216C141.882 17.3466 142.621 17.1591 143.473 17.1591C144.325 17.1591 145.064 17.3466 145.689 17.7216C146.314 18.0966 146.797 18.6231 147.138 19.3011C147.482 19.9792 147.655 20.7689 147.655 21.6705C147.655 22.572 147.482 23.3598 147.138 24.0341C146.797 24.7083 146.314 25.233 145.689 25.608C145.064 25.983 144.325 26.1705 143.473 26.1705ZM143.484 24.5227C143.946 24.5227 144.333 24.3958 144.643 24.142C144.954 23.8845 145.185 23.5398 145.337 23.108C145.492 22.6761 145.57 22.1951 145.57 21.6648C145.57 21.1307 145.492 20.6477 145.337 20.2159C145.185 19.7803 144.954 19.4337 144.643 19.1761C144.333 18.9186 143.946 18.7898 143.484 18.7898C143.011 18.7898 142.617 18.9186 142.303 19.1761C141.992 19.4337 141.759 19.7803 141.604 20.2159C141.452 20.6477 141.376 21.1307 141.376 21.6648C141.376 22.1951 141.452 22.6761 141.604 23.108C141.759 23.5398 141.992 23.8845 142.303 24.142C142.617 24.3958 143.011 24.5227 143.484 24.5227ZM151.457 20.8864V26H149.401V17.2727H151.366V18.7557H151.469C151.67 18.267 151.99 17.8788 152.429 17.5909C152.872 17.303 153.42 17.1591 154.071 17.1591C154.673 17.1591 155.198 17.2879 155.645 17.5455C156.096 17.803 156.444 18.1761 156.69 18.6648C156.94 19.1534 157.063 19.7462 157.06 20.4432V26H155.003V20.7614C155.003 20.178 154.851 19.7216 154.548 19.392C154.249 19.0625 153.834 18.8977 153.304 18.8977C152.944 18.8977 152.624 18.9773 152.344 19.1364C152.067 19.2917 151.849 19.517 151.69 19.8125C151.535 20.108 151.457 20.4659 151.457 20.8864Z" fill="white"/>
<path d="M206.632 67.3636H209.212L212.666 75.7955H212.803L216.257 67.3636H218.837V79H216.814V71.0057H216.706L213.49 78.9659H211.979L208.763 70.9886H208.655V79H206.632V67.3636ZM224.848 79.1705C223.996 79.1705 223.257 78.983 222.632 78.608C222.007 78.233 221.522 77.7083 221.178 77.0341C220.837 76.3598 220.666 75.572 220.666 74.6705C220.666 73.7689 220.837 72.9792 221.178 72.3011C221.522 71.6231 222.007 71.0966 222.632 70.7216C223.257 70.3466 223.996 70.1591 224.848 70.1591C225.7 70.1591 226.439 70.3466 227.064 70.7216C227.689 71.0966 228.172 71.6231 228.513 72.3011C228.857 72.9792 229.03 73.7689 229.03 74.6705C229.03 75.572 228.857 76.3598 228.513 77.0341C228.172 77.7083 227.689 78.233 227.064 78.608C226.439 78.983 225.7 79.1705 224.848 79.1705ZM224.859 77.5227C225.321 77.5227 225.708 77.3958 226.018 77.142C226.329 76.8845 226.56 76.5398 226.712 76.108C226.867 75.6761 226.945 75.1951 226.945 74.6648C226.945 74.1307 226.867 73.6477 226.712 73.2159C226.56 72.7803 226.329 72.4337 226.018 72.1761C225.708 71.9186 225.321 71.7898 224.859 71.7898C224.386 71.7898 223.992 71.9186 223.678 72.1761C223.367 72.4337 223.134 72.7803 222.979 73.2159C222.827 73.6477 222.751 74.1307 222.751 74.6648C222.751 75.1951 222.827 75.6761 222.979 76.108C223.134 76.5398 223.367 76.8845 223.678 77.142C223.992 77.3958 224.386 77.5227 224.859 77.5227ZM232.832 73.8864V79H230.776V70.2727H232.741V71.7557H232.844C233.045 71.267 233.365 70.8788 233.804 70.5909C234.247 70.303 234.795 70.1591 235.446 70.1591C236.048 70.1591 236.573 70.2879 237.02 70.5455C237.471 70.803 237.819 71.1761 238.065 71.6648C238.315 72.1534 238.438 72.7462 238.435 73.4432V79H236.378V73.7614C236.378 73.178 236.226 72.7216 235.923 72.392C235.624 72.0625 235.209 71.8977 234.679 71.8977C234.319 71.8977 233.999 71.9773 233.719 72.1364C233.442 72.2917 233.224 72.517 233.065 72.8125C232.91 73.108 232.832 73.4659 232.832 73.8864ZM243.764 79.1534C243.079 79.1534 242.465 78.9773 241.923 78.625C241.382 78.2727 240.954 77.7614 240.639 77.0909C240.325 76.4205 240.168 75.6061 240.168 74.6477C240.168 73.678 240.327 72.8598 240.645 72.1932C240.967 71.5227 241.401 71.017 241.946 70.6761C242.491 70.3314 243.099 70.1591 243.77 70.1591C244.281 70.1591 244.702 70.2462 245.031 70.4205C245.361 70.5909 245.622 70.7973 245.815 71.0398C246.009 71.2784 246.158 71.5038 246.264 71.7159H246.349V67.3636H248.412V79H246.389V77.625H246.264C246.158 77.8371 246.005 78.0625 245.804 78.3011C245.603 78.536 245.338 78.7367 245.009 78.9034C244.679 79.0701 244.264 79.1534 243.764 79.1534ZM244.338 77.4659C244.774 77.4659 245.145 77.3485 245.452 77.1136C245.759 76.875 245.991 76.5436 246.151 76.1193C246.31 75.6951 246.389 75.2008 246.389 74.6364C246.389 74.072 246.31 73.5814 246.151 73.1648C245.995 72.7481 245.764 72.4242 245.457 72.1932C245.154 71.9621 244.781 71.8466 244.338 71.8466C243.88 71.8466 243.497 71.9659 243.19 72.2045C242.884 72.4432 242.652 72.7727 242.497 73.1932C242.342 73.6136 242.264 74.0947 242.264 74.6364C242.264 75.1818 242.342 75.6686 242.497 76.0966C242.656 76.5208 242.889 76.8561 243.196 77.1023C243.507 77.3447 243.887 77.4659 244.338 77.4659ZM253.115 79.1761C252.562 79.1761 252.064 79.0777 251.621 78.8807C251.181 78.6799 250.833 78.3845 250.575 77.9943C250.321 77.6042 250.195 77.1231 250.195 76.5511C250.195 76.0587 250.286 75.6515 250.467 75.3295C250.649 75.0076 250.897 74.75 251.212 74.5568C251.526 74.3636 251.88 74.2178 252.274 74.1193C252.672 74.017 253.083 73.9432 253.507 73.8977C254.018 73.8447 254.433 73.7973 254.751 73.7557C255.07 73.7102 255.301 73.642 255.445 73.5511C255.592 73.4564 255.666 73.3106 255.666 73.1136V73.0795C255.666 72.6515 255.539 72.3201 255.286 72.0852C255.032 71.8504 254.666 71.733 254.189 71.733C253.685 71.733 253.286 71.8428 252.99 72.0625C252.698 72.2822 252.501 72.5417 252.399 72.8409L250.479 72.5682C250.63 72.0379 250.88 71.5947 251.229 71.2386C251.577 70.8788 252.003 70.6098 252.507 70.4318C253.011 70.25 253.568 70.1591 254.178 70.1591C254.598 70.1591 255.017 70.2083 255.433 70.3068C255.85 70.4053 256.231 70.5682 256.575 70.7955C256.92 71.0189 257.196 71.3239 257.405 71.7102C257.617 72.0966 257.723 72.5795 257.723 73.1591V79H255.746V77.8011H255.678C255.553 78.0436 255.376 78.2708 255.149 78.483C254.926 78.6913 254.643 78.8598 254.303 78.9886C253.965 79.1136 253.57 79.1761 253.115 79.1761ZM253.649 77.6648C254.062 77.6648 254.42 77.5833 254.723 77.4205C255.026 77.2538 255.259 77.0341 255.422 76.7614C255.589 76.4886 255.672 76.1913 255.672 75.8693V74.8409C255.607 74.8939 255.498 74.9432 255.342 74.9886C255.191 75.0341 255.02 75.0739 254.831 75.108C254.642 75.142 254.454 75.1723 254.268 75.1989C254.083 75.2254 253.922 75.2481 253.786 75.267C253.479 75.3087 253.204 75.3769 252.962 75.4716C252.719 75.5663 252.528 75.6989 252.388 75.8693C252.248 76.036 252.178 76.2519 252.178 76.517C252.178 76.8958 252.316 77.1818 252.592 77.375C252.869 77.5682 253.221 77.6648 253.649 77.6648ZM260.757 82.2727C260.477 82.2727 260.217 82.25 259.979 82.2045C259.744 82.1629 259.556 82.1136 259.416 82.0568L259.893 80.4545C260.193 80.5417 260.46 80.5833 260.695 80.5795C260.929 80.5758 261.136 80.5019 261.314 80.358C261.496 80.2178 261.649 79.983 261.774 79.6534L261.95 79.1818L258.786 70.2727H260.967L262.979 76.8636H263.07L265.087 70.2727H267.274L263.78 80.0568C263.617 80.5189 263.401 80.9148 263.132 81.2443C262.863 81.5777 262.534 81.8314 262.143 82.0057C261.757 82.1837 261.295 82.2727 260.757 82.2727ZM277.956 72.3352V74.0284H272.717V72.3352H277.956ZM284.179 79V67.3636H291.634V69.1307H286.287V72.2898H291.122V74.0568H286.287V79H284.179ZM293.338 79V70.2727H295.332V71.7273H295.423C295.582 71.2235 295.855 70.8352 296.241 70.5625C296.632 70.286 297.077 70.1477 297.577 70.1477C297.69 70.1477 297.817 70.1534 297.957 70.1648C298.101 70.1723 298.221 70.1856 298.315 70.2045V72.0966C298.228 72.0663 298.09 72.0398 297.901 72.017C297.715 71.9905 297.535 71.9773 297.361 71.9773C296.986 71.9773 296.649 72.0587 296.349 72.2216C296.054 72.3807 295.821 72.6023 295.651 72.8864C295.48 73.1705 295.395 73.4981 295.395 73.8693V79H293.338ZM299.682 79V70.2727H301.739V79H299.682ZM300.716 69.0341C300.39 69.0341 300.11 68.9261 299.875 68.7102C299.64 68.4905 299.523 68.2273 299.523 67.9205C299.523 67.6098 299.64 67.3466 299.875 67.1307C300.11 66.911 300.39 66.8011 300.716 66.8011C301.045 66.8011 301.326 66.911 301.557 67.1307C301.792 67.3466 301.909 67.6098 301.909 67.9205C301.909 68.2273 301.792 68.4905 301.557 68.7102C301.326 68.9261 301.045 69.0341 300.716 69.0341ZM307.092 79.1534C306.407 79.1534 305.793 78.9773 305.251 78.625C304.71 78.2727 304.282 77.7614 303.967 77.0909C303.653 76.4205 303.496 75.6061 303.496 74.6477C303.496 73.678 303.655 72.8598 303.973 72.1932C304.295 71.5227 304.729 71.017 305.274 70.6761C305.82 70.3314 306.428 70.1591 307.098 70.1591C307.609 70.1591 308.03 70.2462 308.359 70.4205C308.689 70.5909 308.95 70.7973 309.143 71.0398C309.337 71.2784 309.486 71.5038 309.592 71.7159H309.678V67.3636H311.74V79H309.717V77.625H309.592C309.486 77.8371 309.333 78.0625 309.132 78.3011C308.931 78.536 308.666 78.7367 308.337 78.9034C308.007 79.0701 307.592 79.1534 307.092 79.1534ZM307.666 77.4659C308.102 77.4659 308.473 77.3485 308.78 77.1136C309.087 76.875 309.32 76.5436 309.479 76.1193C309.638 75.6951 309.717 75.2008 309.717 74.6364C309.717 74.072 309.638 73.5814 309.479 73.1648C309.323 72.7481 309.092 72.4242 308.786 72.1932C308.482 71.9621 308.109 71.8466 307.666 71.8466C307.208 71.8466 306.825 71.9659 306.518 72.2045C306.212 72.4432 305.981 72.7727 305.825 73.1932C305.67 73.6136 305.592 74.0947 305.592 74.6364C305.592 75.1818 305.67 75.6686 305.825 76.0966C305.984 76.5208 306.217 76.8561 306.524 77.1023C306.835 77.3447 307.215 77.4659 307.666 77.4659ZM316.443 79.1761C315.89 79.1761 315.392 79.0777 314.949 78.8807C314.509 78.6799 314.161 78.3845 313.903 77.9943C313.65 77.6042 313.523 77.1231 313.523 76.5511C313.523 76.0587 313.614 75.6515 313.795 75.3295C313.977 75.0076 314.225 74.75 314.54 74.5568C314.854 74.3636 315.208 74.2178 315.602 74.1193C316 74.017 316.411 73.9432 316.835 73.8977C317.347 73.8447 317.761 73.7973 318.08 73.7557C318.398 73.7102 318.629 73.642 318.773 73.5511C318.92 73.4564 318.994 73.3106 318.994 73.1136V73.0795C318.994 72.6515 318.867 72.3201 318.614 72.0852C318.36 71.8504 317.994 71.733 317.517 71.733C317.013 71.733 316.614 71.8428 316.318 72.0625C316.027 72.2822 315.83 72.5417 315.727 72.8409L313.807 72.5682C313.958 72.0379 314.208 71.5947 314.557 71.2386C314.905 70.8788 315.331 70.6098 315.835 70.4318C316.339 70.25 316.896 70.1591 317.506 70.1591C317.926 70.1591 318.345 70.2083 318.761 70.3068C319.178 70.4053 319.559 70.5682 319.903 70.7955C320.248 71.0189 320.525 71.3239 320.733 71.7102C320.945 72.0966 321.051 72.5795 321.051 73.1591V79H319.074V77.8011H319.006C318.881 78.0436 318.705 78.2708 318.477 78.483C318.254 78.6913 317.972 78.8598 317.631 78.9886C317.294 79.1136 316.898 79.1761 316.443 79.1761ZM316.977 77.6648C317.39 77.6648 317.748 77.5833 318.051 77.4205C318.354 77.2538 318.587 77.0341 318.75 76.7614C318.917 76.4886 319 76.1913 319 75.8693V74.8409C318.936 74.8939 318.826 74.9432 318.67 74.9886C318.519 75.0341 318.348 75.0739 318.159 75.108C317.97 75.142 317.782 75.1723 317.597 75.1989C317.411 75.2254 317.25 75.2481 317.114 75.267C316.807 75.3087 316.532 75.3769 316.29 75.4716C316.047 75.5663 315.856 75.6989 315.716 75.8693C315.576 76.036 315.506 76.2519 315.506 76.517C315.506 76.8958 315.644 77.1818 315.92 77.375C316.197 77.5682 316.549 77.6648 316.977 77.6648ZM324.085 82.2727C323.805 82.2727 323.545 82.25 323.307 82.2045C323.072 82.1629 322.884 82.1136 322.744 82.0568L323.222 80.4545C323.521 80.5417 323.788 80.5833 324.023 80.5795C324.258 80.5758 324.464 80.5019 324.642 80.358C324.824 80.2178 324.977 79.983 325.102 79.6534L325.278 79.1818L322.114 70.2727H324.295L326.307 76.8636H326.398L328.415 70.2727H330.602L327.108 80.0568C326.945 80.5189 326.729 80.9148 326.46 81.2443C326.191 81.5777 325.862 81.8314 325.472 82.0057C325.085 82.1837 324.623 82.2727 324.085 82.2727ZM333.293 79.125C332.948 79.125 332.652 79.0038 332.406 78.7614C332.16 78.5189 332.039 78.2235 332.043 77.875C332.039 77.5341 332.16 77.2424 332.406 77C332.652 76.7576 332.948 76.6364 333.293 76.6364C333.626 76.6364 333.916 76.7576 334.162 77C334.412 77.2424 334.539 77.5341 334.543 77.875C334.539 78.1061 334.478 78.3163 334.361 78.5057C334.247 78.6951 334.096 78.8466 333.906 78.9602C333.721 79.0701 333.516 79.125 333.293 79.125ZM333.293 72.8977C332.948 72.8977 332.652 72.7765 332.406 72.5341C332.16 72.2879 332.039 71.9924 332.043 71.6477C332.039 71.3068 332.16 71.0152 332.406 70.7727C332.652 70.5265 332.948 70.4034 333.293 70.4034C333.626 70.4034 333.916 70.5265 334.162 70.7727C334.412 71.0152 334.539 71.3068 334.543 71.6477C334.539 71.875 334.478 72.0833 334.361 72.2727C334.247 72.4621 334.096 72.6136 333.906 72.7273C333.721 72.8409 333.516 72.8977 333.293 72.8977ZM345.345 67.3636V79H343.237V69.4148H343.169L340.447 71.1534V69.2216L343.339 67.3636H345.345ZM352.601 79.2216C351.665 79.2216 350.862 78.9848 350.192 78.5114C349.525 78.0341 349.012 77.3466 348.652 76.4489C348.296 75.5473 348.118 74.4621 348.118 73.1932C348.122 71.9242 348.302 70.8447 348.658 69.9545C349.018 69.0606 349.531 68.3788 350.197 67.9091C350.868 67.4394 351.669 67.2045 352.601 67.2045C353.533 67.2045 354.334 67.4394 355.004 67.9091C355.675 68.3788 356.188 69.0606 356.544 69.9545C356.904 70.8485 357.084 71.928 357.084 73.1932C357.084 74.4659 356.904 75.553 356.544 76.4545C356.188 77.3523 355.675 78.0379 355.004 78.5114C354.338 78.9848 353.536 79.2216 352.601 79.2216ZM352.601 77.4432C353.328 77.4432 353.902 77.0852 354.322 76.3693C354.747 75.6496 354.959 74.5909 354.959 73.1932C354.959 72.2689 354.862 71.4924 354.669 70.8636C354.476 70.2348 354.203 69.7614 353.851 69.4432C353.499 69.1212 353.082 68.9602 352.601 68.9602C351.877 68.9602 351.305 69.3201 350.885 70.0398C350.464 70.7557 350.252 71.8068 350.249 73.1932C350.245 74.1212 350.338 74.9015 350.527 75.5341C350.72 76.1667 350.993 76.6439 351.345 76.9659C351.697 77.2841 352.116 77.4432 352.601 77.4432ZM364.548 79H362.298L366.395 67.3636H368.997L373.099 79H370.849L367.741 69.75H367.651L364.548 79ZM364.622 74.4375H370.759V76.1307H364.622V74.4375ZM374.632 67.3636H377.212L380.666 75.7955H380.803L384.257 67.3636H386.837V79H384.814V71.0057H384.706L381.49 78.9659H379.979L376.763 70.9886H376.655V79H374.632V67.3636ZM398.3 72.3352V74.0284H393.061V72.3352H398.3ZM409.142 67.3636V79H407.034V69.4148H406.966L404.244 71.1534V69.2216L407.136 67.3636H409.142ZM416.83 67.3636V79H414.722V69.4148H414.653L411.932 71.1534V69.2216L414.824 67.3636H416.83ZM423.866 79V67.3636H428.23C429.124 67.3636 429.874 67.5303 430.48 67.8636C431.09 68.197 431.55 68.6553 431.861 69.2386C432.175 69.8182 432.332 70.4773 432.332 71.2159C432.332 71.9621 432.175 72.625 431.861 73.2045C431.546 73.7841 431.082 74.2405 430.469 74.5739C429.855 74.9034 429.099 75.0682 428.202 75.0682H425.31V73.3352H427.918C428.44 73.3352 428.868 73.2443 429.202 73.0625C429.535 72.8807 429.781 72.6307 429.94 72.3125C430.103 71.9943 430.185 71.6288 430.185 71.2159C430.185 70.803 430.103 70.4394 429.94 70.125C429.781 69.8106 429.533 69.5663 429.196 69.392C428.863 69.214 428.433 69.125 427.906 69.125H425.974V79H423.866ZM434.163 67.3636H436.743L440.197 75.7955H440.334L443.788 67.3636H446.368V79H444.345V71.0057H444.237L441.021 78.9659H439.51L436.294 70.9886H436.186V79H434.163V67.3636Z" fill="#A52A2A"/>
<path d="M203.933 111.562C203.879 111.066 203.656 110.68 203.262 110.403C202.872 110.127 202.364 109.989 201.739 109.989C201.3 109.989 200.923 110.055 200.609 110.188C200.294 110.32 200.054 110.5 199.887 110.727C199.72 110.955 199.635 111.214 199.631 111.506C199.631 111.748 199.686 111.958 199.796 112.136C199.91 112.314 200.063 112.466 200.256 112.591C200.45 112.712 200.664 112.814 200.898 112.898C201.133 112.981 201.37 113.051 201.609 113.108L202.7 113.381C203.139 113.483 203.561 113.621 203.967 113.795C204.376 113.97 204.741 114.189 205.063 114.455C205.389 114.72 205.647 115.04 205.836 115.415C206.025 115.79 206.12 116.229 206.12 116.733C206.12 117.415 205.946 118.015 205.597 118.534C205.249 119.049 204.745 119.453 204.086 119.744C203.431 120.032 202.637 120.176 201.705 120.176C200.8 120.176 200.014 120.036 199.347 119.756C198.684 119.475 198.165 119.066 197.79 118.528C197.419 117.991 197.219 117.335 197.188 116.562H199.262C199.292 116.968 199.417 117.305 199.637 117.574C199.857 117.843 200.143 118.044 200.495 118.176C200.851 118.309 201.249 118.375 201.688 118.375C202.147 118.375 202.548 118.307 202.893 118.17C203.241 118.03 203.514 117.837 203.711 117.591C203.908 117.341 204.008 117.049 204.012 116.716C204.008 116.413 203.919 116.163 203.745 115.966C203.571 115.765 203.326 115.598 203.012 115.466C202.701 115.33 202.338 115.208 201.921 115.102L200.597 114.761C199.639 114.515 198.881 114.142 198.325 113.642C197.772 113.138 197.495 112.47 197.495 111.636C197.495 110.951 197.681 110.35 198.052 109.835C198.427 109.32 198.936 108.92 199.58 108.636C200.224 108.348 200.953 108.205 201.768 108.205C202.594 108.205 203.317 108.348 203.938 108.636C204.563 108.92 205.054 109.316 205.41 109.824C205.766 110.328 205.95 110.907 205.961 111.562H203.933ZM210.42 120.176C209.867 120.176 209.369 120.078 208.925 119.881C208.486 119.68 208.138 119.384 207.88 118.994C207.626 118.604 207.499 118.123 207.499 117.551C207.499 117.059 207.59 116.652 207.772 116.33C207.954 116.008 208.202 115.75 208.516 115.557C208.831 115.364 209.185 115.218 209.579 115.119C209.977 115.017 210.388 114.943 210.812 114.898C211.323 114.845 211.738 114.797 212.056 114.756C212.374 114.71 212.605 114.642 212.749 114.551C212.897 114.456 212.971 114.311 212.971 114.114V114.08C212.971 113.652 212.844 113.32 212.59 113.085C212.336 112.85 211.971 112.733 211.494 112.733C210.99 112.733 210.59 112.843 210.295 113.062C210.003 113.282 209.806 113.542 209.704 113.841L207.783 113.568C207.935 113.038 208.185 112.595 208.533 112.239C208.882 111.879 209.308 111.61 209.812 111.432C210.316 111.25 210.872 111.159 211.482 111.159C211.903 111.159 212.321 111.208 212.738 111.307C213.155 111.405 213.535 111.568 213.88 111.795C214.225 112.019 214.501 112.324 214.71 112.71C214.922 113.097 215.028 113.58 215.028 114.159V120H213.05V118.801H212.982C212.857 119.044 212.681 119.271 212.454 119.483C212.23 119.691 211.948 119.86 211.607 119.989C211.27 120.114 210.874 120.176 210.42 120.176ZM210.954 118.665C211.367 118.665 211.725 118.583 212.028 118.42C212.331 118.254 212.564 118.034 212.727 117.761C212.893 117.489 212.977 117.191 212.977 116.869V115.841C212.912 115.894 212.802 115.943 212.647 115.989C212.496 116.034 212.325 116.074 212.136 116.108C211.946 116.142 211.759 116.172 211.573 116.199C211.388 116.225 211.227 116.248 211.09 116.267C210.783 116.309 210.509 116.377 210.266 116.472C210.024 116.566 209.833 116.699 209.692 116.869C209.552 117.036 209.482 117.252 209.482 117.517C209.482 117.896 209.621 118.182 209.897 118.375C210.174 118.568 210.526 118.665 210.954 118.665ZM221.454 111.273V112.864H216.437V111.273H221.454ZM217.675 109.182H219.732V117.375C219.732 117.652 219.774 117.864 219.857 118.011C219.944 118.155 220.058 118.254 220.198 118.307C220.338 118.36 220.494 118.386 220.664 118.386C220.793 118.386 220.91 118.377 221.016 118.358C221.126 118.339 221.21 118.322 221.266 118.307L221.613 119.915C221.503 119.953 221.346 119.994 221.141 120.04C220.941 120.085 220.694 120.112 220.403 120.119C219.888 120.134 219.424 120.057 219.011 119.886C218.598 119.712 218.27 119.443 218.028 119.08C217.789 118.716 217.672 118.261 217.675 117.716V109.182ZM228.737 116.33V111.273H230.793V120H228.799V118.449H228.708C228.511 118.937 228.187 119.337 227.737 119.648C227.29 119.958 226.738 120.114 226.083 120.114C225.511 120.114 225.005 119.987 224.566 119.733C224.13 119.475 223.79 119.102 223.543 118.614C223.297 118.121 223.174 117.527 223.174 116.83V111.273H225.231V116.511C225.231 117.064 225.382 117.504 225.685 117.83C225.988 118.155 226.386 118.318 226.879 118.318C227.182 118.318 227.475 118.244 227.759 118.097C228.043 117.949 228.276 117.729 228.458 117.438C228.644 117.142 228.737 116.773 228.737 116.33ZM232.908 120V111.273H234.903V112.727H234.994C235.153 112.223 235.425 111.835 235.812 111.562C236.202 111.286 236.647 111.148 237.147 111.148C237.261 111.148 237.388 111.153 237.528 111.165C237.672 111.172 237.791 111.186 237.886 111.205V113.097C237.799 113.066 237.66 113.04 237.471 113.017C237.285 112.991 237.105 112.977 236.931 112.977C236.556 112.977 236.219 113.059 235.92 113.222C235.624 113.381 235.391 113.602 235.221 113.886C235.05 114.17 234.965 114.498 234.965 114.869V120H232.908ZM242.131 120.153C241.446 120.153 240.832 119.977 240.29 119.625C239.749 119.273 239.321 118.761 239.006 118.091C238.692 117.42 238.535 116.606 238.535 115.648C238.535 114.678 238.694 113.86 239.012 113.193C239.334 112.523 239.768 112.017 240.313 111.676C240.859 111.331 241.467 111.159 242.137 111.159C242.648 111.159 243.069 111.246 243.398 111.42C243.728 111.591 243.989 111.797 244.183 112.04C244.376 112.278 244.525 112.504 244.631 112.716H244.717V108.364H246.779V120H244.756V118.625H244.631C244.525 118.837 244.372 119.062 244.171 119.301C243.97 119.536 243.705 119.737 243.376 119.903C243.046 120.07 242.631 120.153 242.131 120.153ZM242.705 118.466C243.141 118.466 243.512 118.348 243.819 118.114C244.126 117.875 244.359 117.544 244.518 117.119C244.677 116.695 244.756 116.201 244.756 115.636C244.756 115.072 244.677 114.581 244.518 114.165C244.362 113.748 244.131 113.424 243.825 113.193C243.522 112.962 243.148 112.847 242.705 112.847C242.247 112.847 241.864 112.966 241.558 113.205C241.251 113.443 241.02 113.773 240.864 114.193C240.709 114.614 240.631 115.095 240.631 115.636C240.631 116.182 240.709 116.669 240.864 117.097C241.023 117.521 241.256 117.856 241.563 118.102C241.874 118.345 242.254 118.466 242.705 118.466ZM251.482 120.176C250.929 120.176 250.431 120.078 249.988 119.881C249.549 119.68 249.2 119.384 248.942 118.994C248.689 118.604 248.562 118.123 248.562 117.551C248.562 117.059 248.653 116.652 248.835 116.33C249.016 116.008 249.264 115.75 249.579 115.557C249.893 115.364 250.247 115.218 250.641 115.119C251.039 115.017 251.45 114.943 251.874 114.898C252.386 114.845 252.8 114.797 253.119 114.756C253.437 114.71 253.668 114.642 253.812 114.551C253.96 114.456 254.033 114.311 254.033 114.114V114.08C254.033 113.652 253.906 113.32 253.653 113.085C253.399 112.85 253.033 112.733 252.556 112.733C252.052 112.733 251.653 112.843 251.357 113.062C251.066 113.282 250.869 113.542 250.766 113.841L248.846 113.568C248.997 113.038 249.247 112.595 249.596 112.239C249.944 111.879 250.371 111.61 250.874 111.432C251.378 111.25 251.935 111.159 252.545 111.159C252.965 111.159 253.384 111.208 253.8 111.307C254.217 111.405 254.598 111.568 254.942 111.795C255.287 112.019 255.564 112.324 255.772 112.71C255.984 113.097 256.09 113.58 256.09 114.159V120H254.113V118.801H254.045C253.92 119.044 253.744 119.271 253.516 119.483C253.293 119.691 253.011 119.86 252.67 119.989C252.333 120.114 251.937 120.176 251.482 120.176ZM252.016 118.665C252.429 118.665 252.787 118.583 253.09 118.42C253.393 118.254 253.626 118.034 253.789 117.761C253.956 117.489 254.039 117.191 254.039 116.869V115.841C253.975 115.894 253.865 115.943 253.71 115.989C253.558 116.034 253.388 116.074 253.198 116.108C253.009 116.142 252.821 116.172 252.636 116.199C252.45 116.225 252.289 116.248 252.153 116.267C251.846 116.309 251.571 116.377 251.329 116.472C251.086 116.566 250.895 116.699 250.755 116.869C250.615 117.036 250.545 117.252 250.545 117.517C250.545 117.896 250.683 118.182 250.96 118.375C251.236 118.568 251.588 118.665 252.016 118.665ZM259.124 123.273C258.844 123.273 258.585 123.25 258.346 123.205C258.111 123.163 257.924 123.114 257.783 123.057L258.261 121.455C258.56 121.542 258.827 121.583 259.062 121.58C259.297 121.576 259.503 121.502 259.681 121.358C259.863 121.218 260.016 120.983 260.141 120.653L260.317 120.182L257.153 111.273H259.335L261.346 117.864H261.437L263.454 111.273H265.641L262.147 121.057C261.984 121.519 261.768 121.915 261.499 122.244C261.23 122.578 260.901 122.831 260.511 123.006C260.124 123.184 259.662 123.273 259.124 123.273ZM276.323 113.335V115.028H271.085V113.335H276.323ZM288.87 111.562C288.817 111.066 288.594 110.68 288.2 110.403C287.809 110.127 287.302 109.989 286.677 109.989C286.237 109.989 285.861 110.055 285.546 110.188C285.232 110.32 284.991 110.5 284.825 110.727C284.658 110.955 284.573 111.214 284.569 111.506C284.569 111.748 284.624 111.958 284.734 112.136C284.847 112.314 285.001 112.466 285.194 112.591C285.387 112.712 285.601 112.814 285.836 112.898C286.071 112.981 286.308 113.051 286.546 113.108L287.637 113.381C288.076 113.483 288.499 113.621 288.904 113.795C289.313 113.97 289.679 114.189 290.001 114.455C290.326 114.72 290.584 115.04 290.773 115.415C290.963 115.79 291.058 116.229 291.058 116.733C291.058 117.415 290.883 118.015 290.535 118.534C290.186 119.049 289.683 119.453 289.023 119.744C288.368 120.032 287.575 120.176 286.643 120.176C285.737 120.176 284.951 120.036 284.285 119.756C283.622 119.475 283.103 119.066 282.728 118.528C282.357 117.991 282.156 117.335 282.126 116.562H284.2C284.23 116.968 284.355 117.305 284.575 117.574C284.794 117.843 285.08 118.044 285.433 118.176C285.789 118.309 286.186 118.375 286.626 118.375C287.084 118.375 287.486 118.307 287.83 118.17C288.179 118.03 288.451 117.837 288.648 117.591C288.845 117.341 288.946 117.049 288.95 116.716C288.946 116.413 288.857 116.163 288.683 115.966C288.508 115.765 288.264 115.598 287.95 115.466C287.639 115.33 287.275 115.208 286.859 115.102L285.535 114.761C284.576 114.515 283.819 114.142 283.262 113.642C282.709 113.138 282.433 112.47 282.433 111.636C282.433 110.951 282.618 110.35 282.989 109.835C283.364 109.32 283.874 108.92 284.518 108.636C285.162 108.348 285.891 108.205 286.705 108.205C287.531 108.205 288.254 108.348 288.876 108.636C289.501 108.92 289.991 109.316 290.347 109.824C290.703 110.328 290.887 110.907 290.898 111.562H288.87ZM298.408 116.33V111.273H300.465V120H298.471V118.449H298.38C298.183 118.937 297.859 119.337 297.408 119.648C296.961 119.958 296.41 120.114 295.755 120.114C295.183 120.114 294.677 119.987 294.238 119.733C293.802 119.475 293.461 119.102 293.215 118.614C292.969 118.121 292.846 117.527 292.846 116.83V111.273H294.903V116.511C294.903 117.064 295.054 117.504 295.357 117.83C295.66 118.155 296.058 118.318 296.55 118.318C296.853 118.318 297.147 118.244 297.431 118.097C297.715 117.949 297.948 117.729 298.13 117.438C298.316 117.142 298.408 116.773 298.408 116.33ZM304.637 114.886V120H302.58V111.273H304.546V112.756H304.648C304.849 112.267 305.169 111.879 305.609 111.591C306.052 111.303 306.599 111.159 307.251 111.159C307.853 111.159 308.378 111.288 308.825 111.545C309.275 111.803 309.624 112.176 309.87 112.665C310.12 113.153 310.243 113.746 310.239 114.443V120H308.183V114.761C308.183 114.178 308.031 113.722 307.728 113.392C307.429 113.062 307.014 112.898 306.484 112.898C306.124 112.898 305.804 112.977 305.523 113.136C305.247 113.292 305.029 113.517 304.87 113.812C304.715 114.108 304.637 114.466 304.637 114.886ZM315.569 120.153C314.883 120.153 314.27 119.977 313.728 119.625C313.186 119.273 312.758 118.761 312.444 118.091C312.129 117.42 311.972 116.606 311.972 115.648C311.972 114.678 312.131 113.86 312.45 113.193C312.772 112.523 313.205 112.017 313.751 111.676C314.296 111.331 314.904 111.159 315.575 111.159C316.086 111.159 316.506 111.246 316.836 111.42C317.165 111.591 317.427 111.797 317.62 112.04C317.813 112.278 317.963 112.504 318.069 112.716H318.154V108.364H320.217V120H318.194V118.625H318.069C317.963 118.837 317.809 119.062 317.609 119.301C317.408 119.536 317.143 119.737 316.813 119.903C316.484 120.07 316.069 120.153 315.569 120.153ZM316.143 118.466C316.578 118.466 316.95 118.348 317.256 118.114C317.563 117.875 317.796 117.544 317.955 117.119C318.114 116.695 318.194 116.201 318.194 115.636C318.194 115.072 318.114 114.581 317.955 114.165C317.8 113.748 317.569 113.424 317.262 113.193C316.959 112.962 316.586 112.847 316.143 112.847C315.684 112.847 315.302 112.966 314.995 113.205C314.688 113.443 314.457 113.773 314.302 114.193C314.147 114.614 314.069 115.095 314.069 115.636C314.069 116.182 314.147 116.669 314.302 117.097C314.461 117.521 314.694 117.856 315.001 118.102C315.311 118.345 315.692 118.466 316.143 118.466ZM324.92 120.176C324.367 120.176 323.869 120.078 323.425 119.881C322.986 119.68 322.638 119.384 322.38 118.994C322.126 118.604 321.999 118.123 321.999 117.551C321.999 117.059 322.09 116.652 322.272 116.33C322.454 116.008 322.702 115.75 323.016 115.557C323.331 115.364 323.685 115.218 324.079 115.119C324.477 115.017 324.888 114.943 325.312 114.898C325.823 114.845 326.238 114.797 326.556 114.756C326.874 114.71 327.105 114.642 327.249 114.551C327.397 114.456 327.471 114.311 327.471 114.114V114.08C327.471 113.652 327.344 113.32 327.09 113.085C326.836 112.85 326.471 112.733 325.994 112.733C325.49 112.733 325.09 112.843 324.795 113.062C324.503 113.282 324.306 113.542 324.204 113.841L322.283 113.568C322.435 113.038 322.685 112.595 323.033 112.239C323.382 111.879 323.808 111.61 324.312 111.432C324.816 111.25 325.372 111.159 325.982 111.159C326.403 111.159 326.821 111.208 327.238 111.307C327.655 111.405 328.035 111.568 328.38 111.795C328.725 112.019 329.001 112.324 329.21 112.71C329.422 113.097 329.528 113.58 329.528 114.159V120H327.55V118.801H327.482C327.357 119.044 327.181 119.271 326.954 119.483C326.73 119.691 326.448 119.86 326.107 119.989C325.77 120.114 325.374 120.176 324.92 120.176ZM325.454 118.665C325.867 118.665 326.225 118.583 326.528 118.42C326.831 118.254 327.064 118.034 327.227 117.761C327.393 117.489 327.477 117.191 327.477 116.869V115.841C327.412 115.894 327.302 115.943 327.147 115.989C326.996 116.034 326.825 116.074 326.636 116.108C326.446 116.142 326.259 116.172 326.073 116.199C325.888 116.225 325.727 116.248 325.59 116.267C325.283 116.309 325.009 116.377 324.766 116.472C324.524 116.566 324.333 116.699 324.192 116.869C324.052 117.036 323.982 117.252 323.982 117.517C323.982 117.896 324.121 118.182 324.397 118.375C324.674 118.568 325.026 118.665 325.454 118.665ZM332.562 123.273C332.281 123.273 332.022 123.25 331.783 123.205C331.549 123.163 331.361 123.114 331.221 123.057L331.698 121.455C331.997 121.542 332.264 121.583 332.499 121.58C332.734 121.576 332.941 121.502 333.119 121.358C333.3 121.218 333.454 120.983 333.579 120.653L333.755 120.182L330.59 111.273H332.772L334.783 117.864H334.874L336.891 111.273H339.079L335.585 121.057C335.422 121.519 335.206 121.915 334.937 122.244C334.668 122.578 334.338 122.831 333.948 123.006C333.562 123.184 333.1 123.273 332.562 123.273ZM341.769 120.125C341.424 120.125 341.129 120.004 340.883 119.761C340.637 119.519 340.515 119.223 340.519 118.875C340.515 118.534 340.637 118.242 340.883 118C341.129 117.758 341.424 117.636 341.769 117.636C342.103 117.636 342.392 117.758 342.638 118C342.888 118.242 343.015 118.534 343.019 118.875C343.015 119.106 342.955 119.316 342.837 119.506C342.724 119.695 342.572 119.847 342.383 119.96C342.197 120.07 341.993 120.125 341.769 120.125ZM341.769 113.898C341.424 113.898 341.129 113.777 340.883 113.534C340.637 113.288 340.515 112.992 340.519 112.648C340.515 112.307 340.637 112.015 340.883 111.773C341.129 111.527 341.424 111.403 341.769 111.403C342.103 111.403 342.392 111.527 342.638 111.773C342.888 112.015 343.015 112.307 343.019 112.648C343.015 112.875 342.955 113.083 342.837 113.273C342.724 113.462 342.572 113.614 342.383 113.727C342.197 113.841 341.993 113.898 341.769 113.898ZM353.822 108.364V120H351.714V110.415H351.646L348.924 112.153V110.222L351.816 108.364H353.822ZM361.509 108.364V120H359.401V110.415H359.333L356.612 112.153V110.222L359.504 108.364H361.509ZM370.04 120H367.79L371.887 108.364H374.489L378.592 120H376.342L373.234 110.75H373.143L370.04 120ZM370.114 115.438H376.251V117.131H370.114V115.438ZM380.124 108.364H382.704L386.158 116.795H386.295L389.749 108.364H392.329V120H390.306V112.006H390.198L386.982 119.966H385.471L382.255 111.989H382.147V120H380.124V108.364ZM403.792 113.335V115.028H398.553V113.335H403.792ZM414.634 108.364V120H412.526V110.415H412.458L409.737 112.153V110.222L412.629 108.364H414.634ZM417.589 120V118.477L421.629 114.517C422.015 114.127 422.337 113.78 422.594 113.477C422.852 113.174 423.045 112.881 423.174 112.597C423.303 112.312 423.367 112.009 423.367 111.688C423.367 111.32 423.284 111.006 423.117 110.744C422.951 110.479 422.721 110.275 422.43 110.131C422.138 109.987 421.807 109.915 421.435 109.915C421.053 109.915 420.718 109.994 420.43 110.153C420.142 110.309 419.918 110.53 419.759 110.818C419.604 111.106 419.526 111.449 419.526 111.847H417.521C417.521 111.108 417.689 110.466 418.026 109.92C418.363 109.375 418.827 108.953 419.418 108.653C420.013 108.354 420.695 108.205 421.464 108.205C422.244 108.205 422.93 108.35 423.521 108.642C424.112 108.934 424.57 109.333 424.896 109.841C425.225 110.348 425.39 110.928 425.39 111.58C425.39 112.015 425.307 112.443 425.14 112.864C424.973 113.284 424.68 113.75 424.259 114.261C423.843 114.773 423.257 115.392 422.504 116.119L420.498 118.159V118.239H425.566V120H417.589ZM433.103 120H430.853L434.95 108.364H437.552L441.654 120H439.404L436.296 110.75H436.205L433.103 120ZM433.177 115.438H439.313V117.131H433.177V115.438ZM443.187 108.364H445.766L449.221 116.795H449.357L452.812 108.364H455.391V120H453.369V112.006H453.261L450.045 119.966H448.533L445.317 111.989H445.21V120H443.187V108.364Z" fill="#A52A2A"/>
<defs>
<clipPath id="clip0_0_1">
<rect width="100" height="100" fill="white" transform="translate(12 45)"/>
</clipPath>
</defs>
</svg>
