<svg width="530" height="149" viewBox="0 0 530 149" fill="none" xmlns="http://www.w3.org/2000/svg">
<rect width="530" height="149" fill="#F5F5F5"/>
<path d="M0 2C0 0.895435 0.895431 0 2 0H528C529.105 0 530 0.895431 530 2V147C530 148.105 529.105 149 528 149H1.99999C0.895423 149 0 148.105 0 147V2Z" fill="white"/>
<path d="M2 1H528V-1H2V1ZM529 2V147H531V2H529ZM528 148H1.99999V150H528V148ZM1 147V2H-1V147H1ZM1.99999 148C1.44771 148 1 147.552 1 147H-1C-1 148.657 0.343133 150 1.99999 150V148ZM529 147C529 147.552 528.552 148 528 148V150C529.657 150 531 148.657 531 147H529ZM528 1C528.552 1 529 1.44771 529 2H531C531 0.343151 529.657 -1 528 -1V1ZM2 -1C0.343143 -1 -1 0.343153 -1 2H1C1 1.44772 1.44772 1 2 1V-1Z" fill="black" fill-opacity="0.1"/>
<rect width="530" height="40" fill="#A52A2A"/>
<rect y="40" width="125" height="109" fill="#A52A2A"/>
<path d="M12.054 26V14.3636H14.1619V19.2898H19.554V14.3636H21.6676V26H19.554V21.0568H14.1619V26H12.054ZM27.6761 26.1705C26.8239 26.1705 26.0852 25.983 25.4602 25.608C24.8352 25.233 24.3504 24.7083 24.0057 24.0341C23.6648 23.3598 23.4943 22.572 23.4943 21.6705C23.4943 20.7689 23.6648 19.9792 24.0057 19.3011C24.3504 18.6231 24.8352 18.0966 25.4602 17.7216C26.0852 17.3466 26.8239 17.1591 27.6761 17.1591C28.5284 17.1591 29.267 17.3466 29.892 17.7216C30.517 18.0966 31 18.6231 31.3409 19.3011C31.6856 19.9792 31.858 20.7689 31.858 21.6705C31.858 22.572 31.6856 23.3598 31.3409 24.0341C31 24.7083 30.517 25.233 29.892 25.608C29.267 25.983 28.5284 26.1705 27.6761 26.1705ZM27.6875 24.5227C28.1496 24.5227 28.536 24.3958 28.8466 24.142C29.1572 23.8845 29.3883 23.5398 29.5398 23.108C29.6951 22.6761 29.7727 22.1951 29.7727 21.6648C29.7727 21.1307 29.6951 20.6477 29.5398 20.2159C29.3883 19.7803 29.1572 19.4337 28.8466 19.1761C28.536 18.9186 28.1496 18.7898 27.6875 18.7898C27.214 18.7898 26.8201 18.9186 26.5057 19.1761C26.1951 19.4337 25.9621 19.7803 25.8068 20.2159C25.6553 20.6477 25.5795 21.1307 25.5795 21.6648C25.5795 22.1951 25.6553 22.6761 25.8068 23.108C25.9621 23.5398 26.1951 23.8845 26.5057 24.142C26.8201 24.3958 27.214 24.5227 27.6875 24.5227ZM39.1662 22.3295V17.2727H41.223V26H39.2287V24.4489H39.1378C38.9408 24.9375 38.617 25.3371 38.1662 25.6477C37.7192 25.9583 37.1681 26.1136 36.5128 26.1136C35.9408 26.1136 35.4351 25.9867 34.9957 25.733C34.5601 25.4754 34.2192 25.1023 33.973 24.6136C33.7268 24.1212 33.6037 23.5265 33.6037 22.8295V17.2727H35.6605V22.5114C35.6605 23.0644 35.812 23.5038 36.1151 23.8295C36.4181 24.1553 36.8158 24.3182 37.3082 24.3182C37.6113 24.3182 37.9048 24.2443 38.1889 24.0966C38.473 23.9489 38.706 23.7292 38.8878 23.4375C39.0734 23.142 39.1662 22.7727 39.1662 22.3295ZM43.3381 26V17.2727H45.3324V18.7273H45.4233C45.5824 18.2235 45.8551 17.8352 46.2415 17.5625C46.6316 17.286 47.0767 17.1477 47.5767 17.1477C47.6903 17.1477 47.8172 17.1534 47.9574 17.1648C48.1013 17.1723 48.2206 17.1856 48.3153 17.2045V19.0966C48.2282 19.0663 48.09 19.0398 47.9006 19.017C47.715 18.9905 47.535 18.9773 47.3608 18.9773C46.9858 18.9773 46.6487 19.0587 46.3494 19.2216C46.054 19.3807 45.821 19.6023 45.6506 19.8864C45.4801 20.1705 45.3949 20.4981 45.3949 20.8693V26H43.3381ZM56.5795 19.5795L54.7045 19.7841C54.6515 19.5947 54.5587 19.4167 54.4261 19.25C54.2973 19.0833 54.1231 18.9489 53.9034 18.8466C53.6837 18.7443 53.4148 18.6932 53.0966 18.6932C52.6686 18.6932 52.3087 18.786 52.017 18.9716C51.7292 19.1572 51.5871 19.3977 51.5909 19.6932C51.5871 19.947 51.6799 20.1534 51.8693 20.3125C52.0625 20.4716 52.3807 20.6023 52.8239 20.7045L54.3125 21.0227C55.1383 21.2008 55.7519 21.483 56.1534 21.8693C56.5587 22.2557 56.7633 22.7614 56.767 23.3864C56.7633 23.9356 56.6023 24.4205 56.2841 24.8409C55.9697 25.2576 55.5322 25.5833 54.9716 25.8182C54.411 26.053 53.767 26.1705 53.0398 26.1705C51.9716 26.1705 51.1117 25.947 50.4602 25.5C49.8087 25.0492 49.4205 24.4223 49.2955 23.6193L51.3011 23.4261C51.392 23.8201 51.5852 24.1174 51.8807 24.3182C52.1761 24.5189 52.5606 24.6193 53.0341 24.6193C53.5227 24.6193 53.9148 24.5189 54.2102 24.3182C54.5095 24.1174 54.6591 23.8693 54.6591 23.5739C54.6591 23.3239 54.5625 23.1174 54.3693 22.9545C54.1799 22.7917 53.8845 22.6667 53.483 22.5795L51.9943 22.267C51.1572 22.0928 50.5379 21.7992 50.1364 21.3864C49.7348 20.9697 49.536 20.4432 49.5398 19.8068C49.536 19.2689 49.6818 18.803 49.9773 18.4091C50.2765 18.0114 50.6913 17.7045 51.2216 17.4886C51.7557 17.2689 52.3712 17.1591 53.0682 17.1591C54.0909 17.1591 54.8958 17.3769 55.483 17.8125C56.0739 18.2481 56.4394 18.8371 56.5795 19.5795ZM66.2386 26.1705C65.3864 26.1705 64.6477 25.983 64.0227 25.608C63.3977 25.233 62.9129 24.7083 62.5682 24.0341C62.2273 23.3598 62.0568 22.572 62.0568 21.6705C62.0568 20.7689 62.2273 19.9792 62.5682 19.3011C62.9129 18.6231 63.3977 18.0966 64.0227 17.7216C64.6477 17.3466 65.3864 17.1591 66.2386 17.1591C67.0909 17.1591 67.8295 17.3466 68.4545 17.7216C69.0795 18.0966 69.5625 18.6231 69.9034 19.3011C70.2481 19.9792 70.4205 20.7689 70.4205 21.6705C70.4205 22.572 70.2481 23.3598 69.9034 24.0341C69.5625 24.7083 69.0795 25.233 68.4545 25.608C67.8295 25.983 67.0909 26.1705 66.2386 26.1705ZM66.25 24.5227C66.7121 24.5227 67.0985 24.3958 67.4091 24.142C67.7197 23.8845 67.9508 23.5398 68.1023 23.108C68.2576 22.6761 68.3352 22.1951 68.3352 21.6648C68.3352 21.1307 68.2576 20.6477 68.1023 20.2159C67.9508 19.7803 67.7197 19.4337 67.4091 19.1761C67.0985 18.9186 66.7121 18.7898 66.25 18.7898C65.7765 18.7898 65.3826 18.9186 65.0682 19.1761C64.7576 19.4337 64.5246 19.7803 64.3693 20.2159C64.2178 20.6477 64.142 21.1307 64.142 21.6648C64.142 22.1951 64.2178 22.6761 64.3693 23.108C64.5246 23.5398 64.7576 23.8845 65.0682 24.142C65.3826 24.3958 65.7765 24.5227 66.25 24.5227ZM76.5866 17.2727V18.8636H71.4276V17.2727H76.5866ZM72.7173 26V16.4489C72.7173 15.8617 72.8385 15.3731 73.081 14.983C73.3272 14.5928 73.6567 14.3011 74.0696 14.108C74.4825 13.9148 74.9408 13.8182 75.4446 13.8182C75.8007 13.8182 76.117 13.8466 76.3935 13.9034C76.67 13.9602 76.8745 14.0114 77.0071 14.0568L76.598 15.6477C76.5109 15.6212 76.401 15.5947 76.2685 15.5682C76.1359 15.5379 75.9882 15.5227 75.8253 15.5227C75.4427 15.5227 75.1719 15.6155 75.0128 15.8011C74.8575 15.983 74.7798 16.2443 74.7798 16.5852V26H72.7173ZM92.6548 20.1818C92.6548 21.4356 92.42 22.5095 91.9503 23.4034C91.4844 24.2936 90.848 24.9754 90.0412 25.4489C89.2382 25.9223 88.3272 26.1591 87.3082 26.1591C86.2893 26.1591 85.3764 25.9223 84.5696 25.4489C83.7666 24.9716 83.1302 24.2879 82.6605 23.3977C82.1946 22.5038 81.9616 21.4318 81.9616 20.1818C81.9616 18.928 82.1946 17.8561 82.6605 16.9659C83.1302 16.072 83.7666 15.3883 84.5696 14.9148C85.3764 14.4413 86.2893 14.2045 87.3082 14.2045C88.3272 14.2045 89.2382 14.4413 90.0412 14.9148C90.848 15.3883 91.4844 16.072 91.9503 16.9659C92.42 17.8561 92.6548 18.928 92.6548 20.1818ZM90.5355 20.1818C90.5355 19.2992 90.3973 18.5549 90.1207 17.9489C89.848 17.339 89.4692 16.8788 88.9844 16.5682C88.4995 16.2538 87.9408 16.0966 87.3082 16.0966C86.6757 16.0966 86.117 16.2538 85.6321 16.5682C85.1473 16.8788 84.7666 17.339 84.4901 17.9489C84.2173 18.5549 84.081 19.2992 84.081 20.1818C84.081 21.0644 84.2173 21.8106 84.4901 22.4205C84.7666 23.0265 85.1473 23.4867 85.6321 23.8011C86.117 24.1117 86.6757 24.267 87.3082 24.267C87.9408 24.267 88.4995 24.1117 88.9844 23.8011C89.4692 23.4867 89.848 23.0265 90.1207 22.4205C90.3973 21.8106 90.5355 21.0644 90.5355 20.1818ZM94.5568 29.2727V17.2727H96.5795V18.7159H96.6989C96.8049 18.5038 96.9545 18.2784 97.1477 18.0398C97.3409 17.7973 97.6023 17.5909 97.9318 17.4205C98.2614 17.2462 98.6818 17.1591 99.1932 17.1591C99.8674 17.1591 100.475 17.3314 101.017 17.6761C101.563 18.017 101.994 18.5227 102.312 19.1932C102.634 19.8598 102.795 20.678 102.795 21.6477C102.795 22.6061 102.638 23.4205 102.324 24.0909C102.009 24.7614 101.581 25.2727 101.04 25.625C100.498 25.9773 99.8845 26.1534 99.1989 26.1534C98.6989 26.1534 98.2841 26.0701 97.9545 25.9034C97.625 25.7367 97.3598 25.536 97.1591 25.3011C96.9621 25.0625 96.8087 24.8371 96.6989 24.625H96.6136V29.2727H94.5568ZM96.5739 21.6364C96.5739 22.2008 96.6534 22.6951 96.8125 23.1193C96.9754 23.5436 97.2083 23.875 97.5114 24.1136C97.8182 24.3485 98.1894 24.4659 98.625 24.4659C99.0795 24.4659 99.4602 24.3447 99.767 24.1023C100.074 23.8561 100.305 23.5208 100.46 23.0966C100.619 22.6686 100.699 22.1818 100.699 21.6364C100.699 21.0947 100.621 20.6136 100.466 20.1932C100.311 19.7727 100.08 19.4432 99.7727 19.2045C99.4659 18.9659 99.0833 18.8466 98.625 18.8466C98.1856 18.8466 97.8125 18.9621 97.5057 19.1932C97.1989 19.4242 96.9659 19.7481 96.8068 20.1648C96.6515 20.5814 96.5739 21.072 96.5739 21.6364ZM108.42 26.1705C107.545 26.1705 106.79 25.9886 106.153 25.625C105.521 25.2576 105.034 24.7386 104.693 24.0682C104.352 23.3939 104.182 22.6004 104.182 21.6875C104.182 20.7898 104.352 20.0019 104.693 19.3239C105.038 18.642 105.519 18.1117 106.136 17.733C106.754 17.3504 107.479 17.1591 108.312 17.1591C108.85 17.1591 109.358 17.2462 109.835 17.4205C110.316 17.5909 110.741 17.8561 111.108 18.2159C111.479 18.5758 111.771 19.0341 111.983 19.5909C112.195 20.1439 112.301 20.803 112.301 21.5682V22.1989H105.148V20.8125H110.33C110.326 20.4186 110.241 20.0682 110.074 19.7614C109.907 19.4508 109.674 19.2064 109.375 19.0284C109.08 18.8504 108.735 18.7614 108.341 18.7614C107.92 18.7614 107.551 18.8636 107.233 19.0682C106.915 19.2689 106.667 19.5341 106.489 19.8636C106.314 20.1894 106.225 20.5473 106.222 20.9375V22.1477C106.222 22.6553 106.314 23.0909 106.5 23.4545C106.686 23.8144 106.945 24.0909 107.278 24.2841C107.612 24.4735 108.002 24.5682 108.449 24.5682C108.748 24.5682 109.019 24.5265 109.261 24.4432C109.504 24.3561 109.714 24.2292 109.892 24.0625C110.07 23.8958 110.205 23.6894 110.295 23.4432L112.216 23.6591C112.095 24.1667 111.864 24.6098 111.523 24.9886C111.186 25.3636 110.754 25.6553 110.227 25.8636C109.701 26.0682 109.098 26.1705 108.42 26.1705ZM114.041 26V17.2727H116.036V18.7273H116.126C116.286 18.2235 116.558 17.8352 116.945 17.5625C117.335 17.286 117.78 17.1477 118.28 17.1477C118.393 17.1477 118.52 17.1534 118.661 17.1648C118.804 17.1723 118.924 17.1856 119.018 17.2045V19.0966C118.931 19.0663 118.793 19.0398 118.604 19.017C118.418 18.9905 118.238 18.9773 118.064 18.9773C117.689 18.9773 117.352 19.0587 117.053 19.2216C116.757 19.3807 116.524 19.6023 116.354 19.8864C116.183 20.1705 116.098 20.4981 116.098 20.8693V26H114.041ZM122.74 26.1761C122.187 26.1761 121.689 26.0777 121.246 25.8807C120.806 25.6799 120.458 25.3845 120.2 24.9943C119.946 24.6042 119.82 24.1231 119.82 23.5511C119.82 23.0587 119.911 22.6515 120.092 22.3295C120.274 22.0076 120.522 21.75 120.837 21.5568C121.151 21.3636 121.505 21.2178 121.899 21.1193C122.297 21.017 122.708 20.9432 123.132 20.8977C123.643 20.8447 124.058 20.7973 124.376 20.7557C124.695 20.7102 124.926 20.642 125.07 20.5511C125.217 20.4564 125.291 20.3106 125.291 20.1136V20.0795C125.291 19.6515 125.164 19.3201 124.911 19.0852C124.657 18.8504 124.291 18.733 123.814 18.733C123.31 18.733 122.911 18.8428 122.615 19.0625C122.323 19.2822 122.126 19.5417 122.024 19.8409L120.104 19.5682C120.255 19.0379 120.505 18.5947 120.854 18.2386C121.202 17.8788 121.628 17.6098 122.132 17.4318C122.636 17.25 123.193 17.1591 123.803 17.1591C124.223 17.1591 124.642 17.2083 125.058 17.3068C125.475 17.4053 125.856 17.5682 126.2 17.7955C126.545 18.0189 126.821 18.3239 127.03 18.7102C127.242 19.0966 127.348 19.5795 127.348 20.1591V26H125.371V24.8011H125.303C125.178 25.0436 125.001 25.2708 124.774 25.483C124.551 25.6913 124.268 25.8598 123.928 25.9886C123.59 26.1136 123.195 26.1761 122.74 26.1761ZM123.274 24.6648C123.687 24.6648 124.045 24.5833 124.348 24.4205C124.651 24.2538 124.884 24.0341 125.047 23.7614C125.214 23.4886 125.297 23.1913 125.297 22.8693V21.8409C125.232 21.8939 125.123 21.9432 124.967 21.9886C124.816 22.0341 124.645 22.0739 124.456 22.108C124.267 22.142 124.079 22.1723 123.893 22.1989C123.708 22.2254 123.547 22.2481 123.411 22.267C123.104 22.3087 122.829 22.3769 122.587 22.4716C122.344 22.5663 122.153 22.6989 122.013 22.8693C121.873 23.036 121.803 23.2519 121.803 23.517C121.803 23.8958 121.941 24.1818 122.217 24.375C122.494 24.5682 122.846 24.6648 123.274 24.6648ZM133.774 17.2727V18.8636H128.757V17.2727H133.774ZM129.996 15.1818H132.053V23.375C132.053 23.6515 132.094 23.8636 132.178 24.0114C132.265 24.1553 132.378 24.2538 132.518 24.3068C132.659 24.3598 132.814 24.3864 132.984 24.3864C133.113 24.3864 133.231 24.3769 133.337 24.358C133.446 24.339 133.53 24.322 133.587 24.3068L133.933 25.9148C133.823 25.9527 133.666 25.9943 133.462 26.0398C133.261 26.0852 133.015 26.1117 132.723 26.1193C132.208 26.1345 131.744 26.0568 131.331 25.8864C130.918 25.7121 130.59 25.4432 130.348 25.0795C130.109 24.7159 129.992 24.2614 129.996 23.7159V15.1818ZM135.494 26V17.2727H137.551V26H135.494ZM136.528 16.0341C136.203 16.0341 135.922 15.9261 135.688 15.7102C135.453 15.4905 135.335 15.2273 135.335 14.9205C135.335 14.6098 135.453 14.3466 135.688 14.1307C135.922 13.911 136.203 13.8011 136.528 13.8011C136.858 13.8011 137.138 13.911 137.369 14.1307C137.604 14.3466 137.722 14.6098 137.722 14.9205C137.722 15.2273 137.604 15.4905 137.369 15.7102C137.138 15.9261 136.858 16.0341 136.528 16.0341ZM143.473 26.1705C142.621 26.1705 141.882 25.983 141.257 25.608C140.632 25.233 140.147 24.7083 139.803 24.0341C139.462 23.3598 139.291 22.572 139.291 21.6705C139.291 20.7689 139.462 19.9792 139.803 19.3011C140.147 18.6231 140.632 18.0966 141.257 17.7216C141.882 17.3466 142.621 17.1591 143.473 17.1591C144.325 17.1591 145.064 17.3466 145.689 17.7216C146.314 18.0966 146.797 18.6231 147.138 19.3011C147.482 19.9792 147.655 20.7689 147.655 21.6705C147.655 22.572 147.482 23.3598 147.138 24.0341C146.797 24.7083 146.314 25.233 145.689 25.608C145.064 25.983 144.325 26.1705 143.473 26.1705ZM143.484 24.5227C143.946 24.5227 144.333 24.3958 144.643 24.142C144.954 23.8845 145.185 23.5398 145.337 23.108C145.492 22.6761 145.57 22.1951 145.57 21.6648C145.57 21.1307 145.492 20.6477 145.337 20.2159C145.185 19.7803 144.954 19.4337 144.643 19.1761C144.333 18.9186 143.946 18.7898 143.484 18.7898C143.011 18.7898 142.617 18.9186 142.303 19.1761C141.992 19.4337 141.759 19.7803 141.604 20.2159C141.452 20.6477 141.376 21.1307 141.376 21.6648C141.376 22.1951 141.452 22.6761 141.604 23.108C141.759 23.5398 141.992 23.8845 142.303 24.142C142.617 24.3958 143.011 24.5227 143.484 24.5227ZM151.457 20.8864V26H149.401V17.2727H151.366V18.7557H151.469C151.67 18.267 151.99 17.8788 152.429 17.5909C152.872 17.303 153.42 17.1591 154.071 17.1591C154.673 17.1591 155.198 17.2879 155.645 17.5455C156.096 17.803 156.444 18.1761 156.69 18.6648C156.94 19.1534 157.063 19.7462 157.06 20.4432V26H155.003V20.7614C155.003 20.178 154.851 19.7216 154.548 19.392C154.249 19.0625 153.834 18.8977 153.304 18.8977C152.944 18.8977 152.624 18.9773 152.344 19.1364C152.067 19.2917 151.849 19.517 151.69 19.8125C151.535 20.108 151.457 20.4659 151.457 20.8864Z" fill="white"/>
<path d="M206.632 65.3636H209.212L212.666 73.7955H212.803L216.257 65.3636H218.837V77H216.814V69.0057H216.706L213.49 76.9659H211.979L208.763 68.9886H208.655V77H206.632V65.3636ZM224.848 77.1705C223.996 77.1705 223.257 76.983 222.632 76.608C222.007 76.233 221.522 75.7083 221.178 75.0341C220.837 74.3598 220.666 73.572 220.666 72.6705C220.666 71.7689 220.837 70.9792 221.178 70.3011C221.522 69.6231 222.007 69.0966 222.632 68.7216C223.257 68.3466 223.996 68.1591 224.848 68.1591C225.7 68.1591 226.439 68.3466 227.064 68.7216C227.689 69.0966 228.172 69.6231 228.513 70.3011C228.857 70.9792 229.03 71.7689 229.03 72.6705C229.03 73.572 228.857 74.3598 228.513 75.0341C228.172 75.7083 227.689 76.233 227.064 76.608C226.439 76.983 225.7 77.1705 224.848 77.1705ZM224.859 75.5227C225.321 75.5227 225.708 75.3958 226.018 75.142C226.329 74.8845 226.56 74.5398 226.712 74.108C226.867 73.6761 226.945 73.1951 226.945 72.6648C226.945 72.1307 226.867 71.6477 226.712 71.2159C226.56 70.7803 226.329 70.4337 226.018 70.1761C225.708 69.9186 225.321 69.7898 224.859 69.7898C224.386 69.7898 223.992 69.9186 223.678 70.1761C223.367 70.4337 223.134 70.7803 222.979 71.2159C222.827 71.6477 222.751 72.1307 222.751 72.6648C222.751 73.1951 222.827 73.6761 222.979 74.108C223.134 74.5398 223.367 74.8845 223.678 75.142C223.992 75.3958 224.386 75.5227 224.859 75.5227ZM232.832 71.8864V77H230.776V68.2727H232.741V69.7557H232.844C233.045 69.267 233.365 68.8788 233.804 68.5909C234.247 68.303 234.795 68.1591 235.446 68.1591C236.048 68.1591 236.573 68.2879 237.02 68.5455C237.471 68.803 237.819 69.1761 238.065 69.6648C238.315 70.1534 238.438 70.7462 238.435 71.4432V77H236.378V71.7614C236.378 71.178 236.226 70.7216 235.923 70.392C235.624 70.0625 235.209 69.8977 234.679 69.8977C234.319 69.8977 233.999 69.9773 233.719 70.1364C233.442 70.2917 233.224 70.517 233.065 70.8125C232.91 71.108 232.832 71.4659 232.832 71.8864ZM243.764 77.1534C243.079 77.1534 242.465 76.9773 241.923 76.625C241.382 76.2727 240.954 75.7614 240.639 75.0909C240.325 74.4205 240.168 73.6061 240.168 72.6477C240.168 71.678 240.327 70.8598 240.645 70.1932C240.967 69.5227 241.401 69.017 241.946 68.6761C242.491 68.3314 243.099 68.1591 243.77 68.1591C244.281 68.1591 244.702 68.2462 245.031 68.4205C245.361 68.5909 245.622 68.7973 245.815 69.0398C246.009 69.2784 246.158 69.5038 246.264 69.7159H246.349V65.3636H248.412V77H246.389V75.625H246.264C246.158 75.8371 246.005 76.0625 245.804 76.3011C245.603 76.536 245.338 76.7367 245.009 76.9034C244.679 77.0701 244.264 77.1534 243.764 77.1534ZM244.338 75.4659C244.774 75.4659 245.145 75.3485 245.452 75.1136C245.759 74.875 245.991 74.5436 246.151 74.1193C246.31 73.6951 246.389 73.2008 246.389 72.6364C246.389 72.072 246.31 71.5814 246.151 71.1648C245.995 70.7481 245.764 70.4242 245.457 70.1932C245.154 69.9621 244.781 69.8466 244.338 69.8466C243.88 69.8466 243.497 69.9659 243.19 70.2045C242.884 70.4432 242.652 70.7727 242.497 71.1932C242.342 71.6136 242.264 72.0947 242.264 72.6364C242.264 73.1818 242.342 73.6686 242.497 74.0966C242.656 74.5208 242.889 74.8561 243.196 75.1023C243.507 75.3447 243.887 75.4659 244.338 75.4659ZM253.115 77.1761C252.562 77.1761 252.064 77.0777 251.621 76.8807C251.181 76.6799 250.833 76.3845 250.575 75.9943C250.321 75.6042 250.195 75.1231 250.195 74.5511C250.195 74.0587 250.286 73.6515 250.467 73.3295C250.649 73.0076 250.897 72.75 251.212 72.5568C251.526 72.3636 251.88 72.2178 252.274 72.1193C252.672 72.017 253.083 71.9432 253.507 71.8977C254.018 71.8447 254.433 71.7973 254.751 71.7557C255.07 71.7102 255.301 71.642 255.445 71.5511C255.592 71.4564 255.666 71.3106 255.666 71.1136V71.0795C255.666 70.6515 255.539 70.3201 255.286 70.0852C255.032 69.8504 254.666 69.733 254.189 69.733C253.685 69.733 253.286 69.8428 252.99 70.0625C252.698 70.2822 252.501 70.5417 252.399 70.8409L250.479 70.5682C250.63 70.0379 250.88 69.5947 251.229 69.2386C251.577 68.8788 252.003 68.6098 252.507 68.4318C253.011 68.25 253.568 68.1591 254.178 68.1591C254.598 68.1591 255.017 68.2083 255.433 68.3068C255.85 68.4053 256.231 68.5682 256.575 68.7955C256.92 69.0189 257.196 69.3239 257.405 69.7102C257.617 70.0966 257.723 70.5795 257.723 71.1591V77H255.746V75.8011H255.678C255.553 76.0436 255.376 76.2708 255.149 76.483C254.926 76.6913 254.643 76.8598 254.303 76.9886C253.965 77.1136 253.57 77.1761 253.115 77.1761ZM253.649 75.6648C254.062 75.6648 254.42 75.5833 254.723 75.4205C255.026 75.2538 255.259 75.0341 255.422 74.7614C255.589 74.4886 255.672 74.1913 255.672 73.8693V72.8409C255.607 72.8939 255.498 72.9432 255.342 72.9886C255.191 73.0341 255.02 73.0739 254.831 73.108C254.642 73.142 254.454 73.1723 254.268 73.1989C254.083 73.2254 253.922 73.2481 253.786 73.267C253.479 73.3087 253.204 73.3769 252.962 73.4716C252.719 73.5663 252.528 73.6989 252.388 73.8693C252.248 74.036 252.178 74.2519 252.178 74.517C252.178 74.8958 252.316 75.1818 252.592 75.375C252.869 75.5682 253.221 75.6648 253.649 75.6648ZM260.757 80.2727C260.477 80.2727 260.217 80.25 259.979 80.2045C259.744 80.1629 259.556 80.1136 259.416 80.0568L259.893 78.4545C260.193 78.5417 260.46 78.5833 260.695 78.5795C260.929 78.5758 261.136 78.5019 261.314 78.358C261.496 78.2178 261.649 77.983 261.774 77.6534L261.95 77.1818L258.786 68.2727H260.967L262.979 74.8636H263.07L265.087 68.2727H267.274L263.78 78.0568C263.617 78.5189 263.401 78.9148 263.132 79.2443C262.863 79.5777 262.534 79.8314 262.143 80.0057C261.757 80.1837 261.295 80.2727 260.757 80.2727ZM277.956 70.3352V72.0284H272.717V70.3352H277.956ZM284.179 77V65.3636H291.634V67.1307H286.287V70.2898H291.122V72.0568H286.287V77H284.179ZM293.338 77V68.2727H295.332V69.7273H295.423C295.582 69.2235 295.855 68.8352 296.241 68.5625C296.632 68.286 297.077 68.1477 297.577 68.1477C297.69 68.1477 297.817 68.1534 297.957 68.1648C298.101 68.1723 298.221 68.1856 298.315 68.2045V70.0966C298.228 70.0663 298.09 70.0398 297.901 70.017C297.715 69.9905 297.535 69.9773 297.361 69.9773C296.986 69.9773 296.649 70.0587 296.349 70.2216C296.054 70.3807 295.821 70.6023 295.651 70.8864C295.48 71.1705 295.395 71.4981 295.395 71.8693V77H293.338ZM299.682 77V68.2727H301.739V77H299.682ZM300.716 67.0341C300.39 67.0341 300.11 66.9261 299.875 66.7102C299.64 66.4905 299.523 66.2273 299.523 65.9205C299.523 65.6098 299.64 65.3466 299.875 65.1307C300.11 64.911 300.39 64.8011 300.716 64.8011C301.045 64.8011 301.326 64.911 301.557 65.1307C301.792 65.3466 301.909 65.6098 301.909 65.9205C301.909 66.2273 301.792 66.4905 301.557 66.7102C301.326 66.9261 301.045 67.0341 300.716 67.0341ZM307.092 77.1534C306.407 77.1534 305.793 76.9773 305.251 76.625C304.71 76.2727 304.282 75.7614 303.967 75.0909C303.653 74.4205 303.496 73.6061 303.496 72.6477C303.496 71.678 303.655 70.8598 303.973 70.1932C304.295 69.5227 304.729 69.017 305.274 68.6761C305.82 68.3314 306.428 68.1591 307.098 68.1591C307.609 68.1591 308.03 68.2462 308.359 68.4205C308.689 68.5909 308.95 68.7973 309.143 69.0398C309.337 69.2784 309.486 69.5038 309.592 69.7159H309.678V65.3636H311.74V77H309.717V75.625H309.592C309.486 75.8371 309.333 76.0625 309.132 76.3011C308.931 76.536 308.666 76.7367 308.337 76.9034C308.007 77.0701 307.592 77.1534 307.092 77.1534ZM307.666 75.4659C308.102 75.4659 308.473 75.3485 308.78 75.1136C309.087 74.875 309.32 74.5436 309.479 74.1193C309.638 73.6951 309.717 73.2008 309.717 72.6364C309.717 72.072 309.638 71.5814 309.479 71.1648C309.323 70.7481 309.092 70.4242 308.786 70.1932C308.482 69.9621 308.109 69.8466 307.666 69.8466C307.208 69.8466 306.825 69.9659 306.518 70.2045C306.212 70.4432 305.981 70.7727 305.825 71.1932C305.67 71.6136 305.592 72.0947 305.592 72.6364C305.592 73.1818 305.67 73.6686 305.825 74.0966C305.984 74.5208 306.217 74.8561 306.524 75.1023C306.835 75.3447 307.215 75.4659 307.666 75.4659ZM316.443 77.1761C315.89 77.1761 315.392 77.0777 314.949 76.8807C314.509 76.6799 314.161 76.3845 313.903 75.9943C313.65 75.6042 313.523 75.1231 313.523 74.5511C313.523 74.0587 313.614 73.6515 313.795 73.3295C313.977 73.0076 314.225 72.75 314.54 72.5568C314.854 72.3636 315.208 72.2178 315.602 72.1193C316 72.017 316.411 71.9432 316.835 71.8977C317.347 71.8447 317.761 71.7973 318.08 71.7557C318.398 71.7102 318.629 71.642 318.773 71.5511C318.92 71.4564 318.994 71.3106 318.994 71.1136V71.0795C318.994 70.6515 318.867 70.3201 318.614 70.0852C318.36 69.8504 317.994 69.733 317.517 69.733C317.013 69.733 316.614 69.8428 316.318 70.0625C316.027 70.2822 315.83 70.5417 315.727 70.8409L313.807 70.5682C313.958 70.0379 314.208 69.5947 314.557 69.2386C314.905 68.8788 315.331 68.6098 315.835 68.4318C316.339 68.25 316.896 68.1591 317.506 68.1591C317.926 68.1591 318.345 68.2083 318.761 68.3068C319.178 68.4053 319.559 68.5682 319.903 68.7955C320.248 69.0189 320.525 69.3239 320.733 69.7102C320.945 70.0966 321.051 70.5795 321.051 71.1591V77H319.074V75.8011H319.006C318.881 76.0436 318.705 76.2708 318.477 76.483C318.254 76.6913 317.972 76.8598 317.631 76.9886C317.294 77.1136 316.898 77.1761 316.443 77.1761ZM316.977 75.6648C317.39 75.6648 317.748 75.5833 318.051 75.4205C318.354 75.2538 318.587 75.0341 318.75 74.7614C318.917 74.4886 319 74.1913 319 73.8693V72.8409C318.936 72.8939 318.826 72.9432 318.67 72.9886C318.519 73.0341 318.348 73.0739 318.159 73.108C317.97 73.142 317.782 73.1723 317.597 73.1989C317.411 73.2254 317.25 73.2481 317.114 73.267C316.807 73.3087 316.532 73.3769 316.29 73.4716C316.047 73.5663 315.856 73.6989 315.716 73.8693C315.576 74.036 315.506 74.2519 315.506 74.517C315.506 74.8958 315.644 75.1818 315.92 75.375C316.197 75.5682 316.549 75.6648 316.977 75.6648ZM324.085 80.2727C323.805 80.2727 323.545 80.25 323.307 80.2045C323.072 80.1629 322.884 80.1136 322.744 80.0568L323.222 78.4545C323.521 78.5417 323.788 78.5833 324.023 78.5795C324.258 78.5758 324.464 78.5019 324.642 78.358C324.824 78.2178 324.977 77.983 325.102 77.6534L325.278 77.1818L322.114 68.2727H324.295L326.307 74.8636H326.398L328.415 68.2727H330.602L327.108 78.0568C326.945 78.5189 326.729 78.9148 326.46 79.2443C326.191 79.5777 325.862 79.8314 325.472 80.0057C325.085 80.1837 324.623 80.2727 324.085 80.2727ZM333.293 77.125C332.948 77.125 332.652 77.0038 332.406 76.7614C332.16 76.5189 332.039 76.2235 332.043 75.875C332.039 75.5341 332.16 75.2424 332.406 75C332.652 74.7576 332.948 74.6364 333.293 74.6364C333.626 74.6364 333.916 74.7576 334.162 75C334.412 75.2424 334.539 75.5341 334.543 75.875C334.539 76.1061 334.478 76.3163 334.361 76.5057C334.247 76.6951 334.096 76.8466 333.906 76.9602C333.721 77.0701 333.516 77.125 333.293 77.125ZM333.293 70.8977C332.948 70.8977 332.652 70.7765 332.406 70.5341C332.16 70.2879 332.039 69.9924 332.043 69.6477C332.039 69.3068 332.16 69.0152 332.406 68.7727C332.652 68.5265 332.948 68.4034 333.293 68.4034C333.626 68.4034 333.916 68.5265 334.162 68.7727C334.412 69.0152 334.539 69.3068 334.543 69.6477C334.539 69.875 334.478 70.0833 334.361 70.2727C334.247 70.4621 334.096 70.6136 333.906 70.7273C333.721 70.8409 333.516 70.8977 333.293 70.8977ZM345.345 65.3636V77H343.237V67.4148H343.169L340.447 69.1534V67.2216L343.339 65.3636H345.345ZM352.601 77.2216C351.665 77.2216 350.862 76.9848 350.192 76.5114C349.525 76.0341 349.012 75.3466 348.652 74.4489C348.296 73.5473 348.118 72.4621 348.118 71.1932C348.122 69.9242 348.302 68.8447 348.658 67.9545C349.018 67.0606 349.531 66.3788 350.197 65.9091C350.868 65.4394 351.669 65.2045 352.601 65.2045C353.533 65.2045 354.334 65.4394 355.004 65.9091C355.675 66.3788 356.188 67.0606 356.544 67.9545C356.904 68.8485 357.084 69.928 357.084 71.1932C357.084 72.4659 356.904 73.553 356.544 74.4545C356.188 75.3523 355.675 76.0379 355.004 76.5114C354.338 76.9848 353.536 77.2216 352.601 77.2216ZM352.601 75.4432C353.328 75.4432 353.902 75.0852 354.322 74.3693C354.747 73.6496 354.959 72.5909 354.959 71.1932C354.959 70.2689 354.862 69.4924 354.669 68.8636C354.476 68.2348 354.203 67.7614 353.851 67.4432C353.499 67.1212 353.082 66.9602 352.601 66.9602C351.877 66.9602 351.305 67.3201 350.885 68.0398C350.464 68.7557 350.252 69.8068 350.249 71.1932C350.245 72.1212 350.338 72.9015 350.527 73.5341C350.72 74.1667 350.993 74.6439 351.345 74.9659C351.697 75.2841 352.116 75.4432 352.601 75.4432ZM364.548 77H362.298L366.395 65.3636H368.997L373.099 77H370.849L367.741 67.75H367.651L364.548 77ZM364.622 72.4375H370.759V74.1307H364.622V72.4375ZM374.632 65.3636H377.212L380.666 73.7955H380.803L384.257 65.3636H386.837V77H384.814V69.0057H384.706L381.49 76.9659H379.979L376.763 68.9886H376.655V77H374.632V65.3636ZM398.3 70.3352V72.0284H393.061V70.3352H398.3ZM409.142 65.3636V77H407.034V67.4148H406.966L404.244 69.1534V67.2216L407.136 65.3636H409.142ZM416.83 65.3636V77H414.722V67.4148H414.653L411.932 69.1534V67.2216L414.824 65.3636H416.83ZM423.866 77V65.3636H428.23C429.124 65.3636 429.874 65.5303 430.48 65.8636C431.09 66.197 431.55 66.6553 431.861 67.2386C432.175 67.8182 432.332 68.4773 432.332 69.2159C432.332 69.9621 432.175 70.625 431.861 71.2045C431.546 71.7841 431.082 72.2405 430.469 72.5739C429.855 72.9034 429.099 73.0682 428.202 73.0682H425.31V71.3352H427.918C428.44 71.3352 428.868 71.2443 429.202 71.0625C429.535 70.8807 429.781 70.6307 429.94 70.3125C430.103 69.9943 430.185 69.6288 430.185 69.2159C430.185 68.803 430.103 68.4394 429.94 68.125C429.781 67.8106 429.533 67.5663 429.196 67.392C428.863 67.214 428.433 67.125 427.906 67.125H425.974V77H423.866ZM434.163 65.3636H436.743L440.197 73.7955H440.334L443.788 65.3636H446.368V77H444.345V69.0057H444.237L441.021 76.9659H439.51L436.294 68.9886H436.186V77H434.163V65.3636Z" fill="black"/>
<path d="M203.933 112.562C203.879 112.066 203.656 111.68 203.262 111.403C202.872 111.127 202.364 110.989 201.739 110.989C201.3 110.989 200.923 111.055 200.609 111.188C200.294 111.32 200.054 111.5 199.887 111.727C199.72 111.955 199.635 112.214 199.631 112.506C199.631 112.748 199.686 112.958 199.796 113.136C199.91 113.314 200.063 113.466 200.256 113.591C200.45 113.712 200.664 113.814 200.898 113.898C201.133 113.981 201.37 114.051 201.609 114.108L202.7 114.381C203.139 114.483 203.561 114.621 203.967 114.795C204.376 114.97 204.741 115.189 205.063 115.455C205.389 115.72 205.647 116.04 205.836 116.415C206.025 116.79 206.12 117.229 206.12 117.733C206.12 118.415 205.946 119.015 205.597 119.534C205.249 120.049 204.745 120.453 204.086 120.744C203.431 121.032 202.637 121.176 201.705 121.176C200.8 121.176 200.014 121.036 199.347 120.756C198.684 120.475 198.165 120.066 197.79 119.528C197.419 118.991 197.219 118.335 197.188 117.562H199.262C199.292 117.968 199.417 118.305 199.637 118.574C199.857 118.843 200.143 119.044 200.495 119.176C200.851 119.309 201.249 119.375 201.688 119.375C202.147 119.375 202.548 119.307 202.893 119.17C203.241 119.03 203.514 118.837 203.711 118.591C203.908 118.341 204.008 118.049 204.012 117.716C204.008 117.413 203.919 117.163 203.745 116.966C203.571 116.765 203.326 116.598 203.012 116.466C202.701 116.33 202.338 116.208 201.921 116.102L200.597 115.761C199.639 115.515 198.881 115.142 198.325 114.642C197.772 114.138 197.495 113.47 197.495 112.636C197.495 111.951 197.681 111.35 198.052 110.835C198.427 110.32 198.936 109.92 199.58 109.636C200.224 109.348 200.953 109.205 201.768 109.205C202.594 109.205 203.317 109.348 203.938 109.636C204.563 109.92 205.054 110.316 205.41 110.824C205.766 111.328 205.95 111.907 205.961 112.562H203.933ZM210.42 121.176C209.867 121.176 209.369 121.078 208.925 120.881C208.486 120.68 208.138 120.384 207.88 119.994C207.626 119.604 207.499 119.123 207.499 118.551C207.499 118.059 207.59 117.652 207.772 117.33C207.954 117.008 208.202 116.75 208.516 116.557C208.831 116.364 209.185 116.218 209.579 116.119C209.977 116.017 210.388 115.943 210.812 115.898C211.323 115.845 211.738 115.797 212.056 115.756C212.374 115.71 212.605 115.642 212.749 115.551C212.897 115.456 212.971 115.311 212.971 115.114V115.08C212.971 114.652 212.844 114.32 212.59 114.085C212.336 113.85 211.971 113.733 211.494 113.733C210.99 113.733 210.59 113.843 210.295 114.062C210.003 114.282 209.806 114.542 209.704 114.841L207.783 114.568C207.935 114.038 208.185 113.595 208.533 113.239C208.882 112.879 209.308 112.61 209.812 112.432C210.316 112.25 210.872 112.159 211.482 112.159C211.903 112.159 212.321 112.208 212.738 112.307C213.155 112.405 213.535 112.568 213.88 112.795C214.225 113.019 214.501 113.324 214.71 113.71C214.922 114.097 215.028 114.58 215.028 115.159V121H213.05V119.801H212.982C212.857 120.044 212.681 120.271 212.454 120.483C212.23 120.691 211.948 120.86 211.607 120.989C211.27 121.114 210.874 121.176 210.42 121.176ZM210.954 119.665C211.367 119.665 211.725 119.583 212.028 119.42C212.331 119.254 212.564 119.034 212.727 118.761C212.893 118.489 212.977 118.191 212.977 117.869V116.841C212.912 116.894 212.802 116.943 212.647 116.989C212.496 117.034 212.325 117.074 212.136 117.108C211.946 117.142 211.759 117.172 211.573 117.199C211.388 117.225 211.227 117.248 211.09 117.267C210.783 117.309 210.509 117.377 210.266 117.472C210.024 117.566 209.833 117.699 209.692 117.869C209.552 118.036 209.482 118.252 209.482 118.517C209.482 118.896 209.621 119.182 209.897 119.375C210.174 119.568 210.526 119.665 210.954 119.665ZM221.454 112.273V113.864H216.437V112.273H221.454ZM217.675 110.182H219.732V118.375C219.732 118.652 219.774 118.864 219.857 119.011C219.944 119.155 220.058 119.254 220.198 119.307C220.338 119.36 220.494 119.386 220.664 119.386C220.793 119.386 220.91 119.377 221.016 119.358C221.126 119.339 221.21 119.322 221.266 119.307L221.613 120.915C221.503 120.953 221.346 120.994 221.141 121.04C220.941 121.085 220.694 121.112 220.403 121.119C219.888 121.134 219.424 121.057 219.011 120.886C218.598 120.712 218.27 120.443 218.028 120.08C217.789 119.716 217.672 119.261 217.675 118.716V110.182ZM228.737 117.33V112.273H230.793V121H228.799V119.449H228.708C228.511 119.937 228.187 120.337 227.737 120.648C227.29 120.958 226.738 121.114 226.083 121.114C225.511 121.114 225.005 120.987 224.566 120.733C224.13 120.475 223.79 120.102 223.543 119.614C223.297 119.121 223.174 118.527 223.174 117.83V112.273H225.231V117.511C225.231 118.064 225.382 118.504 225.685 118.83C225.988 119.155 226.386 119.318 226.879 119.318C227.182 119.318 227.475 119.244 227.759 119.097C228.043 118.949 228.276 118.729 228.458 118.438C228.644 118.142 228.737 117.773 228.737 117.33ZM232.908 121V112.273H234.903V113.727H234.994C235.153 113.223 235.425 112.835 235.812 112.562C236.202 112.286 236.647 112.148 237.147 112.148C237.261 112.148 237.388 112.153 237.528 112.165C237.672 112.172 237.791 112.186 237.886 112.205V114.097C237.799 114.066 237.66 114.04 237.471 114.017C237.285 113.991 237.105 113.977 236.931 113.977C236.556 113.977 236.219 114.059 235.92 114.222C235.624 114.381 235.391 114.602 235.221 114.886C235.05 115.17 234.965 115.498 234.965 115.869V121H232.908ZM242.131 121.153C241.446 121.153 240.832 120.977 240.29 120.625C239.749 120.273 239.321 119.761 239.006 119.091C238.692 118.42 238.535 117.606 238.535 116.648C238.535 115.678 238.694 114.86 239.012 114.193C239.334 113.523 239.768 113.017 240.313 112.676C240.859 112.331 241.467 112.159 242.137 112.159C242.648 112.159 243.069 112.246 243.398 112.42C243.728 112.591 243.989 112.797 244.183 113.04C244.376 113.278 244.525 113.504 244.631 113.716H244.717V109.364H246.779V121H244.756V119.625H244.631C244.525 119.837 244.372 120.062 244.171 120.301C243.97 120.536 243.705 120.737 243.376 120.903C243.046 121.07 242.631 121.153 242.131 121.153ZM242.705 119.466C243.141 119.466 243.512 119.348 243.819 119.114C244.126 118.875 244.359 118.544 244.518 118.119C244.677 117.695 244.756 117.201 244.756 116.636C244.756 116.072 244.677 115.581 244.518 115.165C244.362 114.748 244.131 114.424 243.825 114.193C243.522 113.962 243.148 113.847 242.705 113.847C242.247 113.847 241.864 113.966 241.558 114.205C241.251 114.443 241.02 114.773 240.864 115.193C240.709 115.614 240.631 116.095 240.631 116.636C240.631 117.182 240.709 117.669 240.864 118.097C241.023 118.521 241.256 118.856 241.563 119.102C241.874 119.345 242.254 119.466 242.705 119.466ZM251.482 121.176C250.929 121.176 250.431 121.078 249.988 120.881C249.549 120.68 249.2 120.384 248.942 119.994C248.689 119.604 248.562 119.123 248.562 118.551C248.562 118.059 248.653 117.652 248.835 117.33C249.016 117.008 249.264 116.75 249.579 116.557C249.893 116.364 250.247 116.218 250.641 116.119C251.039 116.017 251.45 115.943 251.874 115.898C252.386 115.845 252.8 115.797 253.119 115.756C253.437 115.71 253.668 115.642 253.812 115.551C253.96 115.456 254.033 115.311 254.033 115.114V115.08C254.033 114.652 253.906 114.32 253.653 114.085C253.399 113.85 253.033 113.733 252.556 113.733C252.052 113.733 251.653 113.843 251.357 114.062C251.066 114.282 250.869 114.542 250.766 114.841L248.846 114.568C248.997 114.038 249.247 113.595 249.596 113.239C249.944 112.879 250.371 112.61 250.874 112.432C251.378 112.25 251.935 112.159 252.545 112.159C252.965 112.159 253.384 112.208 253.8 112.307C254.217 112.405 254.598 112.568 254.942 112.795C255.287 113.019 255.564 113.324 255.772 113.71C255.984 114.097 256.09 114.58 256.09 115.159V121H254.113V119.801H254.045C253.92 120.044 253.744 120.271 253.516 120.483C253.293 120.691 253.011 120.86 252.67 120.989C252.333 121.114 251.937 121.176 251.482 121.176ZM252.016 119.665C252.429 119.665 252.787 119.583 253.09 119.42C253.393 119.254 253.626 119.034 253.789 118.761C253.956 118.489 254.039 118.191 254.039 117.869V116.841C253.975 116.894 253.865 116.943 253.71 116.989C253.558 117.034 253.388 117.074 253.198 117.108C253.009 117.142 252.821 117.172 252.636 117.199C252.45 117.225 252.289 117.248 252.153 117.267C251.846 117.309 251.571 117.377 251.329 117.472C251.086 117.566 250.895 117.699 250.755 117.869C250.615 118.036 250.545 118.252 250.545 118.517C250.545 118.896 250.683 119.182 250.96 119.375C251.236 119.568 251.588 119.665 252.016 119.665ZM259.124 124.273C258.844 124.273 258.585 124.25 258.346 124.205C258.111 124.163 257.924 124.114 257.783 124.057L258.261 122.455C258.56 122.542 258.827 122.583 259.062 122.58C259.297 122.576 259.503 122.502 259.681 122.358C259.863 122.218 260.016 121.983 260.141 121.653L260.317 121.182L257.153 112.273H259.335L261.346 118.864H261.437L263.454 112.273H265.641L262.147 122.057C261.984 122.519 261.768 122.915 261.499 123.244C261.23 123.578 260.901 123.831 260.511 124.006C260.124 124.184 259.662 124.273 259.124 124.273ZM276.323 114.335V116.028H271.085V114.335H276.323ZM288.87 112.562C288.817 112.066 288.594 111.68 288.2 111.403C287.809 111.127 287.302 110.989 286.677 110.989C286.237 110.989 285.861 111.055 285.546 111.188C285.232 111.32 284.991 111.5 284.825 111.727C284.658 111.955 284.573 112.214 284.569 112.506C284.569 112.748 284.624 112.958 284.734 113.136C284.847 113.314 285.001 113.466 285.194 113.591C285.387 113.712 285.601 113.814 285.836 113.898C286.071 113.981 286.308 114.051 286.546 114.108L287.637 114.381C288.076 114.483 288.499 114.621 288.904 114.795C289.313 114.97 289.679 115.189 290.001 115.455C290.326 115.72 290.584 116.04 290.773 116.415C290.963 116.79 291.058 117.229 291.058 117.733C291.058 118.415 290.883 119.015 290.535 119.534C290.186 120.049 289.683 120.453 289.023 120.744C288.368 121.032 287.575 121.176 286.643 121.176C285.737 121.176 284.951 121.036 284.285 120.756C283.622 120.475 283.103 120.066 282.728 119.528C282.357 118.991 282.156 118.335 282.126 117.562H284.2C284.23 117.968 284.355 118.305 284.575 118.574C284.794 118.843 285.08 119.044 285.433 119.176C285.789 119.309 286.186 119.375 286.626 119.375C287.084 119.375 287.486 119.307 287.83 119.17C288.179 119.03 288.451 118.837 288.648 118.591C288.845 118.341 288.946 118.049 288.95 117.716C288.946 117.413 288.857 117.163 288.683 116.966C288.508 116.765 288.264 116.598 287.95 116.466C287.639 116.33 287.275 116.208 286.859 116.102L285.535 115.761C284.576 115.515 283.819 115.142 283.262 114.642C282.709 114.138 282.433 113.47 282.433 112.636C282.433 111.951 282.618 111.35 282.989 110.835C283.364 110.32 283.874 109.92 284.518 109.636C285.162 109.348 285.891 109.205 286.705 109.205C287.531 109.205 288.254 109.348 288.876 109.636C289.501 109.92 289.991 110.316 290.347 110.824C290.703 111.328 290.887 111.907 290.898 112.562H288.87ZM298.408 117.33V112.273H300.465V121H298.471V119.449H298.38C298.183 119.937 297.859 120.337 297.408 120.648C296.961 120.958 296.41 121.114 295.755 121.114C295.183 121.114 294.677 120.987 294.238 120.733C293.802 120.475 293.461 120.102 293.215 119.614C292.969 119.121 292.846 118.527 292.846 117.83V112.273H294.903V117.511C294.903 118.064 295.054 118.504 295.357 118.83C295.66 119.155 296.058 119.318 296.55 119.318C296.853 119.318 297.147 119.244 297.431 119.097C297.715 118.949 297.948 118.729 298.13 118.438C298.316 118.142 298.408 117.773 298.408 117.33ZM304.637 115.886V121H302.58V112.273H304.546V113.756H304.648C304.849 113.267 305.169 112.879 305.609 112.591C306.052 112.303 306.599 112.159 307.251 112.159C307.853 112.159 308.378 112.288 308.825 112.545C309.275 112.803 309.624 113.176 309.87 113.665C310.12 114.153 310.243 114.746 310.239 115.443V121H308.183V115.761C308.183 115.178 308.031 114.722 307.728 114.392C307.429 114.062 307.014 113.898 306.484 113.898C306.124 113.898 305.804 113.977 305.523 114.136C305.247 114.292 305.029 114.517 304.87 114.812C304.715 115.108 304.637 115.466 304.637 115.886ZM315.569 121.153C314.883 121.153 314.27 120.977 313.728 120.625C313.186 120.273 312.758 119.761 312.444 119.091C312.129 118.42 311.972 117.606 311.972 116.648C311.972 115.678 312.131 114.86 312.45 114.193C312.772 113.523 313.205 113.017 313.751 112.676C314.296 112.331 314.904 112.159 315.575 112.159C316.086 112.159 316.506 112.246 316.836 112.42C317.165 112.591 317.427 112.797 317.62 113.04C317.813 113.278 317.963 113.504 318.069 113.716H318.154V109.364H320.217V121H318.194V119.625H318.069C317.963 119.837 317.809 120.062 317.609 120.301C317.408 120.536 317.143 120.737 316.813 120.903C316.484 121.07 316.069 121.153 315.569 121.153ZM316.143 119.466C316.578 119.466 316.95 119.348 317.256 119.114C317.563 118.875 317.796 118.544 317.955 118.119C318.114 117.695 318.194 117.201 318.194 116.636C318.194 116.072 318.114 115.581 317.955 115.165C317.8 114.748 317.569 114.424 317.262 114.193C316.959 113.962 316.586 113.847 316.143 113.847C315.684 113.847 315.302 113.966 314.995 114.205C314.688 114.443 314.457 114.773 314.302 115.193C314.147 115.614 314.069 116.095 314.069 116.636C314.069 117.182 314.147 117.669 314.302 118.097C314.461 118.521 314.694 118.856 315.001 119.102C315.311 119.345 315.692 119.466 316.143 119.466ZM324.92 121.176C324.367 121.176 323.869 121.078 323.425 120.881C322.986 120.68 322.638 120.384 322.38 119.994C322.126 119.604 321.999 119.123 321.999 118.551C321.999 118.059 322.09 117.652 322.272 117.33C322.454 117.008 322.702 116.75 323.016 116.557C323.331 116.364 323.685 116.218 324.079 116.119C324.477 116.017 324.888 115.943 325.312 115.898C325.823 115.845 326.238 115.797 326.556 115.756C326.874 115.71 327.105 115.642 327.249 115.551C327.397 115.456 327.471 115.311 327.471 115.114V115.08C327.471 114.652 327.344 114.32 327.09 114.085C326.836 113.85 326.471 113.733 325.994 113.733C325.49 113.733 325.09 113.843 324.795 114.062C324.503 114.282 324.306 114.542 324.204 114.841L322.283 114.568C322.435 114.038 322.685 113.595 323.033 113.239C323.382 112.879 323.808 112.61 324.312 112.432C324.816 112.25 325.372 112.159 325.982 112.159C326.403 112.159 326.821 112.208 327.238 112.307C327.655 112.405 328.035 112.568 328.38 112.795C328.725 113.019 329.001 113.324 329.21 113.71C329.422 114.097 329.528 114.58 329.528 115.159V121H327.55V119.801H327.482C327.357 120.044 327.181 120.271 326.954 120.483C326.73 120.691 326.448 120.86 326.107 120.989C325.77 121.114 325.374 121.176 324.92 121.176ZM325.454 119.665C325.867 119.665 326.225 119.583 326.528 119.42C326.831 119.254 327.064 119.034 327.227 118.761C327.393 118.489 327.477 118.191 327.477 117.869V116.841C327.412 116.894 327.302 116.943 327.147 116.989C326.996 117.034 326.825 117.074 326.636 117.108C326.446 117.142 326.259 117.172 326.073 117.199C325.888 117.225 325.727 117.248 325.59 117.267C325.283 117.309 325.009 117.377 324.766 117.472C324.524 117.566 324.333 117.699 324.192 117.869C324.052 118.036 323.982 118.252 323.982 118.517C323.982 118.896 324.121 119.182 324.397 119.375C324.674 119.568 325.026 119.665 325.454 119.665ZM332.562 124.273C332.281 124.273 332.022 124.25 331.783 124.205C331.549 124.163 331.361 124.114 331.221 124.057L331.698 122.455C331.997 122.542 332.264 122.583 332.499 122.58C332.734 122.576 332.941 122.502 333.119 122.358C333.3 122.218 333.454 121.983 333.579 121.653L333.755 121.182L330.59 112.273H332.772L334.783 118.864H334.874L336.891 112.273H339.079L335.585 122.057C335.422 122.519 335.206 122.915 334.937 123.244C334.668 123.578 334.338 123.831 333.948 124.006C333.562 124.184 333.1 124.273 332.562 124.273ZM341.769 121.125C341.424 121.125 341.129 121.004 340.883 120.761C340.637 120.519 340.515 120.223 340.519 119.875C340.515 119.534 340.637 119.242 340.883 119C341.129 118.758 341.424 118.636 341.769 118.636C342.103 118.636 342.392 118.758 342.638 119C342.888 119.242 343.015 119.534 343.019 119.875C343.015 120.106 342.955 120.316 342.837 120.506C342.724 120.695 342.572 120.847 342.383 120.96C342.197 121.07 341.993 121.125 341.769 121.125ZM341.769 114.898C341.424 114.898 341.129 114.777 340.883 114.534C340.637 114.288 340.515 113.992 340.519 113.648C340.515 113.307 340.637 113.015 340.883 112.773C341.129 112.527 341.424 112.403 341.769 112.403C342.103 112.403 342.392 112.527 342.638 112.773C342.888 113.015 343.015 113.307 343.019 113.648C343.015 113.875 342.955 114.083 342.837 114.273C342.724 114.462 342.572 114.614 342.383 114.727C342.197 114.841 341.993 114.898 341.769 114.898ZM353.822 109.364V121H351.714V111.415H351.646L348.924 113.153V111.222L351.816 109.364H353.822ZM361.509 109.364V121H359.401V111.415H359.333L356.612 113.153V111.222L359.504 109.364H361.509ZM370.04 121H367.79L371.887 109.364H374.489L378.592 121H376.342L373.234 111.75H373.143L370.04 121ZM370.114 116.438H376.251V118.131H370.114V116.438ZM380.124 109.364H382.704L386.158 117.795H386.295L389.749 109.364H392.329V121H390.306V113.006H390.198L386.982 120.966H385.471L382.255 112.989H382.147V121H380.124V109.364ZM403.792 114.335V116.028H398.553V114.335H403.792ZM414.634 109.364V121H412.526V111.415H412.458L409.737 113.153V111.222L412.629 109.364H414.634ZM417.589 121V119.477L421.629 115.517C422.015 115.127 422.337 114.78 422.594 114.477C422.852 114.174 423.045 113.881 423.174 113.597C423.303 113.312 423.367 113.009 423.367 112.688C423.367 112.32 423.284 112.006 423.117 111.744C422.951 111.479 422.721 111.275 422.43 111.131C422.138 110.987 421.807 110.915 421.435 110.915C421.053 110.915 420.718 110.994 420.43 111.153C420.142 111.309 419.918 111.53 419.759 111.818C419.604 112.106 419.526 112.449 419.526 112.847H417.521C417.521 112.108 417.689 111.466 418.026 110.92C418.363 110.375 418.827 109.953 419.418 109.653C420.013 109.354 420.695 109.205 421.464 109.205C422.244 109.205 422.93 109.35 423.521 109.642C424.112 109.934 424.57 110.333 424.896 110.841C425.225 111.348 425.39 111.928 425.39 112.58C425.39 113.015 425.307 113.443 425.14 113.864C424.973 114.284 424.68 114.75 424.259 115.261C423.843 115.773 423.257 116.392 422.504 117.119L420.498 119.159V119.239H425.566V121H417.589ZM433.103 121H430.853L434.95 109.364H437.552L441.654 121H439.404L436.296 111.75H436.205L433.103 121ZM433.177 116.438H439.313V118.131H433.177V116.438ZM443.187 109.364H445.766L449.221 117.795H449.357L452.812 109.364H455.391V121H453.369V113.006H453.261L450.045 120.966H448.533L445.317 112.989H445.21V121H443.187V109.364Z" fill="black"/>
<g clip-path="url(#clip0_0_1)">
<rect width="100" height="100" transform="translate(13 40)" fill="#A52A2A"/>
<path d="M103.625 90C103.625 100.774 99.3449 111.108 91.7262 118.726C84.1075 126.345 73.7744 130.625 63 130.625C52.2256 130.625 41.8925 126.345 34.2738 118.726C26.6551 111.108 22.375 100.774 22.375 90C22.375 79.2256 26.6551 68.8925 34.2738 61.2738C41.8925 53.6551 52.2256 49.375 63 49.375C73.7744 49.375 84.1075 53.6551 91.7262 61.2738C99.3449 68.8925 103.625 79.2256 103.625 90ZM13 90C13 103.261 18.2678 115.979 27.6447 125.355C37.0215 134.732 49.7392 140 63 140C76.2608 140 88.9785 134.732 98.3553 125.355C107.732 115.979 113 103.261 113 90C113 76.7392 107.732 64.0215 98.3553 54.6447C88.9785 45.2678 76.2608 40 63 40C49.7392 40 37.0215 45.2678 27.6447 54.6447C18.2678 64.0215 13 76.7392 13 90ZM58.3125 63.4375V90C58.3125 91.5625 59.0937 93.0273 60.4023 93.9062L79.1523 106.406C81.3008 107.852 84.2109 107.266 85.6562 105.098C87.1016 102.93 86.5156 100.039 84.3477 98.5938L67.6875 87.5V63.4375C67.6875 60.8398 65.5977 58.75 63 58.75C60.4023 58.75 58.3125 60.8398 58.3125 63.4375Z" fill="white"/>
</g>
<defs>
<clipPath id="clip0_0_1">
<rect width="100" height="100" fill="white" transform="translate(13 40)"/>
</clipPath>
</defs>
</svg>
